<?xml version="1.0"?>
<svg xmlns="http://www.w3.org/2000/svg" xmlns:xlink="http://www.w3.org/1999/xlink" viewBox="0 0 801.700000 240.000000" width="400.850000mm" height="120.000000mm" version="1.1">
<a xlink:href="bp-0x60000f01d680.svg">
<rect x="0.000000" y="0.000000" width="800.700000" height="239.000000" rx="0" ry="0" style="stroke:#000000;fill:#FFFFFF;"/>
</a>
<text x="10.000000" y="7.000000" font-family="Verdana" font-size="7"></text>
<rect x="40.000000" y="112.000000" width="38.700000" height="24.000000" rx="0" ry="0" style="stroke:#000000;fill:#FFFFFF;"/>
<text x="59.350000" y="126.000000" font-family="Verdana" font-size="7" text-anchor="middle" fill="#000000">[122] gf</text>
<circle cx="42.000000" cy="114.000000" r="1"/>
<rect x="94.700000" y="108.000000" width="24.000000" height="24.000000" rx="0" ry="0" style="stroke:#000000;fill:#FFFFFF;"/>
<text x="106.700000" y="122.000000" font-family="Verdana" font-size="7" text-anchor="middle" fill="#000000">*</text>
<circle cx="96.700000" cy="110.000000" r="1"/>
<line x1="91.700000" y1="115.000000" x2="94.700000" y2="116.000000"  transform="rotate(0.000000,94.700000,116.000000)" style="stroke: black; stroke-width:0.25;"/>
<line x1="91.700000" y1="117.000000" x2="94.700000" y2="116.000000"  transform="rotate(0.000000,94.700000,116.000000)" style="stroke: black; stroke-width:0.25;"/>
<line x1="91.700000" y1="123.000000" x2="94.700000" y2="124.000000"  transform="rotate(0.000000,94.700000,124.000000)" style="stroke: black; stroke-width:0.25;"/>
<line x1="91.700000" y1="125.000000" x2="94.700000" y2="124.000000"  transform="rotate(0.000000,94.700000,124.000000)" style="stroke: black; stroke-width:0.25;"/>
<rect x="186.700000" y="112.000000" width="24.000000" height="24.000000" rx="0" ry="0" style="stroke:#000000;fill:#FFFFFF;"/>
<text x="198.700000" y="126.000000" font-family="Verdana" font-size="7" text-anchor="middle" fill="#000000">mem</text>
<circle cx="188.700000" cy="114.000000" r="1"/>
<line x1="183.700000" y1="123.000000" x2="186.700000" y2="124.000000"  transform="rotate(0.000000,186.700000,124.000000)" style="stroke: black; stroke-width:0.25;"/>
<line x1="183.700000" y1="125.000000" x2="186.700000" y2="124.000000"  transform="rotate(0.000000,186.700000,124.000000)" style="stroke: black; stroke-width:0.25;"/>
<rect x="236.700000" y="116.000000" width="24.000000" height="24.000000" rx="0" ry="0" style="stroke:#000000;fill:#FFFFFF;"/>
<text x="248.700000" y="130.000000" font-family="Verdana" font-size="7" text-anchor="middle" fill="#000000">mem</text>
<circle cx="238.700000" cy="118.000000" r="1"/>
<line x1="233.700000" y1="127.000000" x2="236.700000" y2="128.000000"  transform="rotate(0.000000,236.700000,128.000000)" style="stroke: black; stroke-width:0.25;"/>
<line x1="233.700000" y1="129.000000" x2="236.700000" y2="128.000000"  transform="rotate(0.000000,236.700000,128.000000)" style="stroke: black; stroke-width:0.25;"/>
<a xlink:href="a0-0x60000f1e4ea0.svg">
<rect x="294.700000" y="62.000000" width="24.000000" height="24.000000" rx="0" ry="0" style="stroke:#000000;fill:#FFFFFF;"/>
</a>
<a xlink:href="a0-0x60000f1e4ea0.svg">
<text x="306.700000" y="76.000000" font-family="Verdana" font-size="7" text-anchor="middle" fill="#000000">a0</text>
</a>
<circle cx="296.700000" cy="64.000000" r="1"/>
<rect x="334.700000" y="58.000000" width="24.000000" height="24.000000" rx="0" ry="0" style="stroke:#000000;fill:#FFFFFF;"/>
<text x="346.700000" y="72.000000" font-family="Verdana" font-size="7" text-anchor="middle" fill="#000000">*</text>
<circle cx="336.700000" cy="60.000000" r="1"/>
<line x1="331.700000" y1="65.000000" x2="334.700000" y2="66.000000"  transform="rotate(0.000000,334.700000,66.000000)" style="stroke: black; stroke-width:0.25;"/>
<line x1="331.700000" y1="67.000000" x2="334.700000" y2="66.000000"  transform="rotate(0.000000,334.700000,66.000000)" style="stroke: black; stroke-width:0.25;"/>
<line x1="331.700000" y1="73.000000" x2="334.700000" y2="74.000000"  transform="rotate(0.000000,334.700000,74.000000)" style="stroke: black; stroke-width:0.25;"/>
<line x1="331.700000" y1="75.000000" x2="334.700000" y2="74.000000"  transform="rotate(0.000000,334.700000,74.000000)" style="stroke: black; stroke-width:0.25;"/>
<rect x="294.700000" y="112.000000" width="24.000000" height="24.000000" rx="0" ry="0" style="stroke:#000000;fill:#FFFFFF;"/>
<text x="306.700000" y="126.000000" font-family="Verdana" font-size="7" text-anchor="middle" fill="#000000">0</text>
<circle cx="296.700000" cy="114.000000" r="1"/>
<line x1="285.700000" y1="103.000000" x2="285.700000" y2="145.000000"  style="stroke: black; stroke-linecap:round; stroke-width:0.25; stroke-dasharray:3,3;"/>
<line x1="285.700000" y1="145.000000" x2="327.700000" y2="145.000000"  style="stroke: black; stroke-linecap:round; stroke-width:0.25; stroke-dasharray:3,3;"/>
<line x1="327.700000" y1="145.000000" x2="327.700000" y2="103.000000"  style="stroke: black; stroke-linecap:round; stroke-width:0.25; stroke-dasharray:3,3;"/>
<line x1="285.700000" y1="103.000000" x2="290.700000" y2="103.000000"  style="stroke: black; stroke-linecap:round; stroke-width:0.25; stroke-dasharray:3,3;"/>
<line x1="310.050000" y1="103.000000" x2="327.700000" y2="103.000000"  style="stroke: black; stroke-linecap:round; stroke-width:0.25; stroke-dasharray:3,3;"/>
<text x="290.700000" y="105.000000" font-family="Verdana" font-size="7">SAFE</text>
<rect x="344.700000" y="108.000000" width="24.000000" height="24.000000" rx="0" ry="0" style="stroke:#000000;fill:#FFFFFF;"/>
<text x="356.700000" y="122.000000" font-family="Verdana" font-size="7" text-anchor="middle" fill="#000000">*</text>
<circle cx="346.700000" cy="110.000000" r="1"/>
<line x1="341.700000" y1="115.000000" x2="344.700000" y2="116.000000"  transform="rotate(0.000000,344.700000,116.000000)" style="stroke: black; stroke-width:0.25;"/>
<line x1="341.700000" y1="117.000000" x2="344.700000" y2="116.000000"  transform="rotate(0.000000,344.700000,116.000000)" style="stroke: black; stroke-width:0.25;"/>
<line x1="341.700000" y1="123.000000" x2="344.700000" y2="124.000000"  transform="rotate(0.000000,344.700000,124.000000)" style="stroke: black; stroke-width:0.25;"/>
<line x1="341.700000" y1="125.000000" x2="344.700000" y2="124.000000"  transform="rotate(0.000000,344.700000,124.000000)" style="stroke: black; stroke-width:0.25;"/>
<a xlink:href="a2-0x60000f1e50e0.svg">
<rect x="294.700000" y="162.000000" width="24.000000" height="24.000000" rx="0" ry="0" style="stroke:#000000;fill:#FFFFFF;"/>
</a>
<a xlink:href="a2-0x60000f1e50e0.svg">
<text x="306.700000" y="176.000000" font-family="Verdana" font-size="7" text-anchor="middle" fill="#000000">a2</text>
</a>
<circle cx="296.700000" cy="164.000000" r="1"/>
<rect x="334.700000" y="158.000000" width="24.000000" height="24.000000" rx="0" ry="0" style="stroke:#000000;fill:#FFFFFF;"/>
<text x="346.700000" y="172.000000" font-family="Verdana" font-size="7" text-anchor="middle" fill="#000000">*</text>
<circle cx="336.700000" cy="160.000000" r="1"/>
<line x1="331.700000" y1="165.000000" x2="334.700000" y2="166.000000"  transform="rotate(0.000000,334.700000,166.000000)" style="stroke: black; stroke-width:0.25;"/>
<line x1="331.700000" y1="167.000000" x2="334.700000" y2="166.000000"  transform="rotate(0.000000,334.700000,166.000000)" style="stroke: black; stroke-width:0.25;"/>
<line x1="331.700000" y1="173.000000" x2="334.700000" y2="174.000000"  transform="rotate(0.000000,334.700000,174.000000)" style="stroke: black; stroke-width:0.25;"/>
<line x1="331.700000" y1="175.000000" x2="334.700000" y2="174.000000"  transform="rotate(0.000000,334.700000,174.000000)" style="stroke: black; stroke-width:0.25;"/>
<rect x="673.700000" y="96.000000" width="24.000000" height="24.000000" rx="0" ry="0" style="stroke:#000000;fill:#FFFFFF;"/>
<text x="685.700000" y="110.000000" font-family="Verdana" font-size="7" text-anchor="middle" fill="#000000">mem</text>
<circle cx="695.700000" cy="118.000000" r="1"/>
<line x1="700.700000" y1="107.000000" x2="697.700000" y2="108.000000"  transform="rotate(0.000000,697.700000,108.000000)" style="stroke: black; stroke-width:0.25;"/>
<line x1="700.700000" y1="109.000000" x2="697.700000" y2="108.000000"  transform="rotate(0.000000,697.700000,108.000000)" style="stroke: black; stroke-width:0.25;"/>
<rect x="623.700000" y="158.000000" width="24.000000" height="24.000000" rx="0" ry="0" style="stroke:#000000;fill:#FFFFFF;"/>
<text x="635.700000" y="172.000000" font-family="Verdana" font-size="7" text-anchor="middle" fill="#000000">0</text>
<circle cx="645.700000" cy="180.000000" r="1"/>
<line x1="614.700000" y1="149.000000" x2="614.700000" y2="191.000000"  style="stroke: black; stroke-linecap:round; stroke-width:0.25; stroke-dasharray:3,3;"/>
<line x1="614.700000" y1="191.000000" x2="656.700000" y2="191.000000"  style="stroke: black; stroke-linecap:round; stroke-width:0.25; stroke-dasharray:3,3;"/>
<line x1="656.700000" y1="191.000000" x2="656.700000" y2="149.000000"  style="stroke: black; stroke-linecap:round; stroke-width:0.25; stroke-dasharray:3,3;"/>
<line x1="614.700000" y1="149.000000" x2="619.700000" y2="149.000000"  style="stroke: black; stroke-linecap:round; stroke-width:0.25; stroke-dasharray:3,3;"/>
<line x1="639.050000" y1="149.000000" x2="656.700000" y2="149.000000"  style="stroke: black; stroke-linecap:round; stroke-width:0.25; stroke-dasharray:3,3;"/>
<text x="619.700000" y="151.000000" font-family="Verdana" font-size="7">SAFE</text>
<a xlink:href="b1-0x60000f1e5710.svg">
<rect x="623.700000" y="116.000000" width="24.000000" height="24.000000" rx="0" ry="0" style="stroke:#000000;fill:#FFFFFF;"/>
</a>
<a xlink:href="b1-0x60000f1e5710.svg">
<text x="635.700000" y="130.000000" font-family="Verdana" font-size="7" text-anchor="middle" fill="#000000">b1</text>
</a>
<circle cx="645.700000" cy="138.000000" r="1"/>
<rect x="573.700000" y="142.000000" width="24.000000" height="24.000000" rx="0" ry="0" style="stroke:#000000;fill:#FFFFFF;"/>
<text x="585.700000" y="156.000000" font-family="Verdana" font-size="7" text-anchor="middle" fill="#000000">-</text>
<circle cx="595.700000" cy="164.000000" r="1"/>
<line x1="600.700000" y1="157.000000" x2="597.700000" y2="158.000000"  transform="rotate(0.000000,597.700000,158.000000)" style="stroke: black; stroke-width:0.25;"/>
<line x1="600.700000" y1="159.000000" x2="597.700000" y2="158.000000"  transform="rotate(0.000000,597.700000,158.000000)" style="stroke: black; stroke-width:0.25;"/>
<line x1="600.700000" y1="149.000000" x2="597.700000" y2="150.000000"  transform="rotate(0.000000,597.700000,150.000000)" style="stroke: black; stroke-width:0.25;"/>
<line x1="600.700000" y1="151.000000" x2="597.700000" y2="150.000000"  transform="rotate(0.000000,597.700000,150.000000)" style="stroke: black; stroke-width:0.25;"/>
<rect x="533.700000" y="146.000000" width="24.000000" height="24.000000" rx="0" ry="0" style="stroke:#000000;fill:#FFFFFF;"/>
<text x="545.700000" y="160.000000" font-family="Verdana" font-size="7" text-anchor="middle" fill="#000000">*</text>
<circle cx="555.700000" cy="168.000000" r="1"/>
<line x1="560.700000" y1="161.000000" x2="557.700000" y2="162.000000"  transform="rotate(0.000000,557.700000,162.000000)" style="stroke: black; stroke-width:0.25;"/>
<line x1="560.700000" y1="163.000000" x2="557.700000" y2="162.000000"  transform="rotate(0.000000,557.700000,162.000000)" style="stroke: black; stroke-width:0.25;"/>
<line x1="560.700000" y1="153.000000" x2="557.700000" y2="154.000000"  transform="rotate(0.000000,557.700000,154.000000)" style="stroke: black; stroke-width:0.25;"/>
<line x1="560.700000" y1="155.000000" x2="557.700000" y2="154.000000"  transform="rotate(0.000000,557.700000,154.000000)" style="stroke: black; stroke-width:0.25;"/>
<rect x="623.700000" y="66.000000" width="24.000000" height="24.000000" rx="0" ry="0" style="stroke:#000000;fill:#FFFFFF;"/>
<text x="635.700000" y="80.000000" font-family="Verdana" font-size="7" text-anchor="middle" fill="#000000">0</text>
<circle cx="645.700000" cy="88.000000" r="1"/>
<line x1="614.700000" y1="57.000000" x2="614.700000" y2="99.000000"  style="stroke: black; stroke-linecap:round; stroke-width:0.25; stroke-dasharray:3,3;"/>
<line x1="614.700000" y1="99.000000" x2="656.700000" y2="99.000000"  style="stroke: black; stroke-linecap:round; stroke-width:0.25; stroke-dasharray:3,3;"/>
<line x1="656.700000" y1="99.000000" x2="656.700000" y2="57.000000"  style="stroke: black; stroke-linecap:round; stroke-width:0.25; stroke-dasharray:3,3;"/>
<line x1="614.700000" y1="57.000000" x2="619.700000" y2="57.000000"  style="stroke: black; stroke-linecap:round; stroke-width:0.25; stroke-dasharray:3,3;"/>
<line x1="639.050000" y1="57.000000" x2="656.700000" y2="57.000000"  style="stroke: black; stroke-linecap:round; stroke-width:0.25; stroke-dasharray:3,3;"/>
<text x="619.700000" y="59.000000" font-family="Verdana" font-size="7">SAFE</text>
<a xlink:href="b2-0x60000f1e5c20.svg">
<rect x="623.700000" y="24.000000" width="24.000000" height="24.000000" rx="0" ry="0" style="stroke:#000000;fill:#FFFFFF;"/>
</a>
<a xlink:href="b2-0x60000f1e5c20.svg">
<text x="635.700000" y="38.000000" font-family="Verdana" font-size="7" text-anchor="middle" fill="#000000">b2</text>
</a>
<circle cx="645.700000" cy="46.000000" r="1"/>
<rect x="573.700000" y="50.000000" width="24.000000" height="24.000000" rx="0" ry="0" style="stroke:#000000;fill:#FFFFFF;"/>
<text x="585.700000" y="64.000000" font-family="Verdana" font-size="7" text-anchor="middle" fill="#000000">-</text>
<circle cx="595.700000" cy="72.000000" r="1"/>
<line x1="600.700000" y1="65.000000" x2="597.700000" y2="66.000000"  transform="rotate(0.000000,597.700000,66.000000)" style="stroke: black; stroke-width:0.25;"/>
<line x1="600.700000" y1="67.000000" x2="597.700000" y2="66.000000"  transform="rotate(0.000000,597.700000,66.000000)" style="stroke: black; stroke-width:0.25;"/>
<line x1="600.700000" y1="57.000000" x2="597.700000" y2="58.000000"  transform="rotate(0.000000,597.700000,58.000000)" style="stroke: black; stroke-width:0.25;"/>
<line x1="600.700000" y1="59.000000" x2="597.700000" y2="58.000000"  transform="rotate(0.000000,597.700000,58.000000)" style="stroke: black; stroke-width:0.25;"/>
<rect x="533.700000" y="54.000000" width="24.000000" height="24.000000" rx="0" ry="0" style="stroke:#000000;fill:#FFFFFF;"/>
<text x="545.700000" y="68.000000" font-family="Verdana" font-size="7" text-anchor="middle" fill="#000000">*</text>
<circle cx="555.700000" cy="76.000000" r="1"/>
<line x1="560.700000" y1="69.000000" x2="557.700000" y2="70.000000"  transform="rotate(0.000000,557.700000,70.000000)" style="stroke: black; stroke-width:0.25;"/>
<line x1="560.700000" y1="71.000000" x2="557.700000" y2="70.000000"  transform="rotate(0.000000,557.700000,70.000000)" style="stroke: black; stroke-width:0.25;"/>
<line x1="560.700000" y1="61.000000" x2="557.700000" y2="62.000000"  transform="rotate(0.000000,557.700000,62.000000)" style="stroke: black; stroke-width:0.25;"/>
<line x1="560.700000" y1="63.000000" x2="557.700000" y2="62.000000"  transform="rotate(0.000000,557.700000,62.000000)" style="stroke: black; stroke-width:0.25;"/>
<line x1="755.700000" y1="212.000000" x2="755.700000" y2="208.000000"  style="stroke:black; stroke-linecap:round; stroke-width:0.25;"/>
<line x1="755.700000" y1="208.000000" x2="759.700000" y2="208.000000"  style="stroke:black; stroke-linecap:round; stroke-width:0.25;"/>
<line x1="759.700000" y1="208.000000" x2="759.700000" y2="212.000000"  style="stroke:black; stroke-linecap:round; stroke-width:0.25;"/>
<line x1="15.000000" y1="15.000000" x2="15.000000" y2="225.000000"  style="stroke: black; stroke-linecap:round; stroke-width:0.25; stroke-dasharray:3,3;"/>
<line x1="15.000000" y1="225.000000" x2="786.700000" y2="225.000000"  style="stroke: black; stroke-linecap:round; stroke-width:0.25; stroke-dasharray:3,3;"/>
<line x1="786.700000" y1="225.000000" x2="786.700000" y2="15.000000"  style="stroke: black; stroke-linecap:round; stroke-width:0.25; stroke-dasharray:3,3;"/>
<line x1="15.000000" y1="15.000000" x2="20.000000" y2="15.000000"  style="stroke: black; stroke-linecap:round; stroke-width:0.25; stroke-dasharray:3,3;"/>
<line x1="129.650000" y1="15.000000" x2="786.700000" y2="15.000000"  style="stroke: black; stroke-linecap:round; stroke-width:0.25; stroke-dasharray:3,3;"/>
<text x="20.000000" y="17.000000" font-family="Verdana" font-size="7">bandpassBiquad(x120)(x121)(x122)</text>
<line x1="788.700000" y1="119.000000" x2="791.700000" y2="120.000000"  transform="rotate(0.000000,791.700000,120.000000)" style="stroke: black; stroke-width:0.25;"/>
<line x1="788.700000" y1="121.000000" x2="791.700000" y2="120.000000"  transform="rotate(0.000000,791.700000,120.000000)" style="stroke: black; stroke-width:0.25;"/>
<line x1="10.000000" y1="120.000000" x2="20.000000" y2="120.000000"  style="stroke:black; stroke-linecap:round; stroke-width:0.25;"/>
<line x1="20.000000" y1="120.000000" x2="24.000000" y2="120.000000"  style="stroke:black; stroke-linecap:round; stroke-width:0.25;"/>
<line x1="24.000000" y1="120.000000" x2="28.000000" y2="120.000000"  style="stroke:black; stroke-linecap:round; stroke-width:0.25;"/>
<line x1="28.000000" y1="104.000000" x2="36.000000" y2="104.000000"  style="stroke:black; stroke-linecap:round; stroke-width:0.25;"/>
<line x1="28.000000" y1="120.000000" x2="28.000000" y2="104.000000"  style="stroke:black; stroke-linecap:round; stroke-width:0.25;"/>
<line x1="28.000000" y1="120.000000" x2="28.000000" y2="120.000000"  style="stroke:black; stroke-linecap:round; stroke-width:0.25;"/>
<line x1="36.000000" y1="104.000000" x2="59.350000" y2="104.000000"  style="stroke:black; stroke-linecap:round; stroke-width:0.25;"/>
<line x1="59.350000" y1="104.000000" x2="82.700000" y2="104.000000"  style="stroke:black; stroke-linecap:round; stroke-width:0.25;"/>
<line x1="78.700000" y1="124.000000" x2="82.700000" y2="124.000000"  style="stroke:black; stroke-linecap:round; stroke-width:0.25;"/>
<line x1="82.700000" y1="104.000000" x2="90.700000" y2="104.000000"  style="stroke:black; stroke-linecap:round; stroke-width:0.25;"/>
<line x1="82.700000" y1="124.000000" x2="90.700000" y2="124.000000"  style="stroke:black; stroke-linecap:round; stroke-width:0.25;"/>
<line x1="90.700000" y1="104.000000" x2="90.700000" y2="116.000000"  style="stroke:black; stroke-linecap:round; stroke-width:0.25;"/>
<line x1="90.700000" y1="116.000000" x2="90.700000" y2="116.000000"  style="stroke:black; stroke-linecap:round; stroke-width:0.25;"/>
<line x1="90.700000" y1="116.000000" x2="94.700000" y2="116.000000"  style="stroke:black; stroke-linecap:round; stroke-width:0.25;"/>
<line x1="90.700000" y1="124.000000" x2="94.700000" y2="124.000000"  style="stroke:black; stroke-linecap:round; stroke-width:0.25;"/>
<line x1="118.700000" y1="120.000000" x2="122.700000" y2="120.000000"  style="stroke:black; stroke-linecap:round; stroke-width:0.25;"/>
<line x1="122.700000" y1="120.000000" x2="182.700000" y2="100.000000"  style="stroke:black; stroke-linecap:round; stroke-width:0.25;"/>
<line x1="122.700000" y1="120.000000" x2="182.700000" y2="124.000000"  style="stroke:black; stroke-linecap:round; stroke-width:0.25;"/>
<line x1="182.700000" y1="100.000000" x2="223.700000" y2="100.000000"  style="stroke:black; stroke-linecap:round; stroke-width:0.25;"/>
<line x1="182.700000" y1="124.000000" x2="186.700000" y2="124.000000"  style="stroke:black; stroke-linecap:round; stroke-width:0.25;"/>
<line x1="210.700000" y1="124.000000" x2="214.700000" y2="124.000000"  style="stroke:black; stroke-linecap:round; stroke-width:0.25;"/>
<line x1="214.700000" y1="124.000000" x2="232.700000" y2="108.000000"  style="stroke:black; stroke-linecap:round; stroke-width:0.25;"/>
<line x1="214.700000" y1="124.000000" x2="232.700000" y2="128.000000"  style="stroke:black; stroke-linecap:round; stroke-width:0.25;"/>
<line x1="223.700000" y1="100.000000" x2="264.700000" y2="100.000000"  style="stroke:black; stroke-linecap:round; stroke-width:0.25;"/>
<line x1="232.700000" y1="108.000000" x2="248.700000" y2="108.000000"  style="stroke:black; stroke-linecap:round; stroke-width:0.25;"/>
<line x1="232.700000" y1="128.000000" x2="236.700000" y2="128.000000"  style="stroke:black; stroke-linecap:round; stroke-width:0.25;"/>
<line x1="248.700000" y1="108.000000" x2="264.700000" y2="108.000000"  style="stroke:black; stroke-linecap:round; stroke-width:0.25;"/>
<line x1="260.700000" y1="128.000000" x2="264.700000" y2="128.000000"  style="stroke:black; stroke-linecap:round; stroke-width:0.25;"/>
<line x1="264.700000" y1="54.000000" x2="280.700000" y2="54.000000"  style="stroke:black; stroke-linecap:round; stroke-width:0.25;"/>
<line x1="264.700000" y1="100.000000" x2="264.700000" y2="54.000000"  style="stroke:black; stroke-linecap:round; stroke-width:0.25;"/>
<line x1="264.700000" y1="100.000000" x2="264.700000" y2="100.000000"  style="stroke:black; stroke-linecap:round; stroke-width:0.25;"/>
<line x1="264.700000" y1="108.000000" x2="272.700000" y2="108.000000"  style="stroke:black; stroke-linecap:round; stroke-width:0.25;"/>
<line x1="264.700000" y1="128.000000" x2="280.700000" y2="128.000000"  style="stroke:black; stroke-linecap:round; stroke-width:0.25;"/>
<line x1="272.700000" y1="94.000000" x2="280.700000" y2="94.000000"  style="stroke:black; stroke-linecap:round; stroke-width:0.25;"/>
<line x1="272.700000" y1="108.000000" x2="272.700000" y2="94.000000"  style="stroke:black; stroke-linecap:round; stroke-width:0.25;"/>
<line x1="280.700000" y1="54.000000" x2="290.700000" y2="54.000000"  style="stroke:black; stroke-linecap:round; stroke-width:0.25;"/>
<line x1="280.700000" y1="94.000000" x2="306.700000" y2="94.000000"  style="stroke:black; stroke-linecap:round; stroke-width:0.25;"/>
<line x1="280.700000" y1="128.000000" x2="280.700000" y2="154.000000"  style="stroke:black; stroke-linecap:round; stroke-width:0.25;"/>
<line x1="280.700000" y1="154.000000" x2="280.700000" y2="154.000000"  style="stroke:black; stroke-linecap:round; stroke-width:0.25;"/>
<line x1="280.700000" y1="154.000000" x2="290.700000" y2="154.000000"  style="stroke:black; stroke-linecap:round; stroke-width:0.25;"/>
<line x1="290.700000" y1="54.000000" x2="306.700000" y2="54.000000"  style="stroke:black; stroke-linecap:round; stroke-width:0.25;"/>
<line x1="290.700000" y1="154.000000" x2="306.700000" y2="154.000000"  style="stroke:black; stroke-linecap:round; stroke-width:0.25;"/>
<line x1="306.700000" y1="54.000000" x2="322.700000" y2="54.000000"  style="stroke:black; stroke-linecap:round; stroke-width:0.25;"/>
<line x1="306.700000" y1="94.000000" x2="332.700000" y2="94.000000"  style="stroke:black; stroke-linecap:round; stroke-width:0.25;"/>
<line x1="306.700000" y1="154.000000" x2="322.700000" y2="154.000000"  style="stroke:black; stroke-linecap:round; stroke-width:0.25;"/>
<line x1="318.700000" y1="74.000000" x2="322.700000" y2="74.000000"  style="stroke:black; stroke-linecap:round; stroke-width:0.25;"/>
<line x1="318.700000" y1="124.000000" x2="322.700000" y2="124.000000"  style="stroke:black; stroke-linecap:round; stroke-width:0.25;"/>
<line x1="318.700000" y1="174.000000" x2="322.700000" y2="174.000000"  style="stroke:black; stroke-linecap:round; stroke-width:0.25;"/>
<line x1="322.700000" y1="54.000000" x2="330.700000" y2="54.000000"  style="stroke:black; stroke-linecap:round; stroke-width:0.25;"/>
<line x1="322.700000" y1="74.000000" x2="330.700000" y2="74.000000"  style="stroke:black; stroke-linecap:round; stroke-width:0.25;"/>
<line x1="322.700000" y1="124.000000" x2="332.700000" y2="124.000000"  style="stroke:black; stroke-linecap:round; stroke-width:0.25;"/>
<line x1="322.700000" y1="154.000000" x2="330.700000" y2="154.000000"  style="stroke:black; stroke-linecap:round; stroke-width:0.25;"/>
<line x1="322.700000" y1="174.000000" x2="330.700000" y2="174.000000"  style="stroke:black; stroke-linecap:round; stroke-width:0.25;"/>
<line x1="330.700000" y1="54.000000" x2="330.700000" y2="66.000000"  style="stroke:black; stroke-linecap:round; stroke-width:0.25;"/>
<line x1="330.700000" y1="66.000000" x2="330.700000" y2="66.000000"  style="stroke:black; stroke-linecap:round; stroke-width:0.25;"/>
<line x1="330.700000" y1="66.000000" x2="334.700000" y2="66.000000"  style="stroke:black; stroke-linecap:round; stroke-width:0.25;"/>
<line x1="330.700000" y1="74.000000" x2="334.700000" y2="74.000000"  style="stroke:black; stroke-linecap:round; stroke-width:0.25;"/>
<line x1="330.700000" y1="154.000000" x2="330.700000" y2="166.000000"  style="stroke:black; stroke-linecap:round; stroke-width:0.25;"/>
<line x1="330.700000" y1="166.000000" x2="330.700000" y2="166.000000"  style="stroke:black; stroke-linecap:round; stroke-width:0.25;"/>
<line x1="330.700000" y1="166.000000" x2="334.700000" y2="166.000000"  style="stroke:black; stroke-linecap:round; stroke-width:0.25;"/>
<line x1="330.700000" y1="174.000000" x2="334.700000" y2="174.000000"  style="stroke:black; stroke-linecap:round; stroke-width:0.25;"/>
<line x1="332.700000" y1="94.000000" x2="340.700000" y2="94.000000"  style="stroke:black; stroke-linecap:round; stroke-width:0.25;"/>
<line x1="332.700000" y1="124.000000" x2="340.700000" y2="124.000000"  style="stroke:black; stroke-linecap:round; stroke-width:0.25;"/>
<line x1="340.700000" y1="94.000000" x2="340.700000" y2="116.000000"  style="stroke:black; stroke-linecap:round; stroke-width:0.25;"/>
<line x1="340.700000" y1="116.000000" x2="340.700000" y2="116.000000"  style="stroke:black; stroke-linecap:round; stroke-width:0.25;"/>
<line x1="340.700000" y1="116.000000" x2="344.700000" y2="116.000000"  style="stroke:black; stroke-linecap:round; stroke-width:0.25;"/>
<line x1="340.700000" y1="124.000000" x2="344.700000" y2="124.000000"  style="stroke:black; stroke-linecap:round; stroke-width:0.25;"/>
<line x1="358.700000" y1="70.000000" x2="362.700000" y2="70.000000"  style="stroke:black; stroke-linecap:round; stroke-width:0.25;"/>
<line x1="358.700000" y1="170.000000" x2="362.700000" y2="170.000000"  style="stroke:black; stroke-linecap:round; stroke-width:0.25;"/>
<line x1="362.700000" y1="70.000000" x2="372.700000" y2="70.000000"  style="stroke:black; stroke-linecap:round; stroke-width:0.25;"/>
<line x1="362.700000" y1="170.000000" x2="372.700000" y2="170.000000"  style="stroke:black; stroke-linecap:round; stroke-width:0.25;"/>
<line x1="368.700000" y1="120.000000" x2="372.700000" y2="120.000000"  style="stroke:black; stroke-linecap:round; stroke-width:0.25;"/>
<line x1="372.700000" y1="70.000000" x2="457.700000" y2="120.000000"  style="stroke:black; stroke-linecap:round; stroke-width:0.25;"/>
<line x1="372.700000" y1="120.000000" x2="457.700000" y2="120.000000"  style="stroke:black; stroke-linecap:round; stroke-width:0.25;"/>
<line x1="372.700000" y1="170.000000" x2="457.700000" y2="120.000000"  style="stroke:black; stroke-linecap:round; stroke-width:0.25;"/>
<line x1="457.700000" y1="120.000000" x2="465.700000" y2="120.000000"  style="stroke:black; stroke-linecap:round; stroke-width:0.25;"/>
<line x1="465.700000" y1="120.000000" x2="465.700000" y2="216.000000"  style="stroke:black; stroke-linecap:round; stroke-width:0.25;"/>
<line x1="465.700000" y1="216.000000" x2="465.700000" y2="216.000000"  style="stroke:black; stroke-linecap:round; stroke-width:0.25;"/>
<line x1="465.700000" y1="216.000000" x2="473.700000" y2="216.000000"  style="stroke:black; stroke-linecap:round; stroke-width:0.25;"/>
<line x1="473.700000" y1="112.000000" x2="473.700000" y2="112.000000"  style="stroke:black; stroke-linecap:round; stroke-width:0.25;"/>
<line x1="473.700000" y1="112.000000" x2="473.700000" y2="208.000000"  style="stroke:black; stroke-linecap:round; stroke-width:0.25;"/>
<line x1="473.700000" y1="208.000000" x2="473.700000" y2="208.000000"  style="stroke:black; stroke-linecap:round; stroke-width:0.25;"/>
<line x1="473.700000" y1="208.000000" x2="604.700000" y2="208.000000"  style="stroke:black; stroke-linecap:round; stroke-width:0.25;"/>
<line x1="473.700000" y1="216.000000" x2="604.700000" y2="216.000000"  style="stroke:black; stroke-linecap:round; stroke-width:0.25;"/>
<line x1="477.700000" y1="112.000000" x2="473.700000" y2="112.000000"  style="stroke:black; stroke-linecap:round; stroke-width:0.25;"/>
<line x1="481.700000" y1="112.000000" x2="477.700000" y2="112.000000"  style="stroke:black; stroke-linecap:round; stroke-width:0.25;"/>
<line x1="529.700000" y1="66.000000" x2="481.700000" y2="112.000000"  style="stroke:black; stroke-linecap:round; stroke-width:0.25;"/>
<line x1="529.700000" y1="158.000000" x2="481.700000" y2="112.000000"  style="stroke:black; stroke-linecap:round; stroke-width:0.25;"/>
<line x1="533.700000" y1="66.000000" x2="529.700000" y2="66.000000"  style="stroke:black; stroke-linecap:round; stroke-width:0.25;"/>
<line x1="533.700000" y1="158.000000" x2="529.700000" y2="158.000000"  style="stroke:black; stroke-linecap:round; stroke-width:0.25;"/>
<line x1="561.700000" y1="62.000000" x2="557.700000" y2="62.000000"  style="stroke:black; stroke-linecap:round; stroke-width:0.25;"/>
<line x1="561.700000" y1="70.000000" x2="557.700000" y2="70.000000"  style="stroke:black; stroke-linecap:round; stroke-width:0.25;"/>
<line x1="561.700000" y1="70.000000" x2="561.700000" y2="70.000000"  style="stroke:black; stroke-linecap:round; stroke-width:0.25;"/>
<line x1="561.700000" y1="108.000000" x2="561.700000" y2="70.000000"  style="stroke:black; stroke-linecap:round; stroke-width:0.25;"/>
<line x1="561.700000" y1="154.000000" x2="557.700000" y2="154.000000"  style="stroke:black; stroke-linecap:round; stroke-width:0.25;"/>
<line x1="561.700000" y1="162.000000" x2="557.700000" y2="162.000000"  style="stroke:black; stroke-linecap:round; stroke-width:0.25;"/>
<line x1="561.700000" y1="162.000000" x2="561.700000" y2="162.000000"  style="stroke:black; stroke-linecap:round; stroke-width:0.25;"/>
<line x1="561.700000" y1="200.000000" x2="561.700000" y2="162.000000"  style="stroke:black; stroke-linecap:round; stroke-width:0.25;"/>
<line x1="569.700000" y1="62.000000" x2="561.700000" y2="62.000000"  style="stroke:black; stroke-linecap:round; stroke-width:0.25;"/>
<line x1="569.700000" y1="108.000000" x2="561.700000" y2="108.000000"  style="stroke:black; stroke-linecap:round; stroke-width:0.25;"/>
<line x1="569.700000" y1="154.000000" x2="561.700000" y2="154.000000"  style="stroke:black; stroke-linecap:round; stroke-width:0.25;"/>
<line x1="569.700000" y1="200.000000" x2="561.700000" y2="200.000000"  style="stroke:black; stroke-linecap:round; stroke-width:0.25;"/>
<line x1="573.700000" y1="62.000000" x2="569.700000" y2="62.000000"  style="stroke:black; stroke-linecap:round; stroke-width:0.25;"/>
<line x1="573.700000" y1="154.000000" x2="569.700000" y2="154.000000"  style="stroke:black; stroke-linecap:round; stroke-width:0.25;"/>
<line x1="601.700000" y1="58.000000" x2="597.700000" y2="58.000000"  style="stroke:black; stroke-linecap:round; stroke-width:0.25;"/>
<line x1="601.700000" y1="66.000000" x2="597.700000" y2="66.000000"  style="stroke:black; stroke-linecap:round; stroke-width:0.25;"/>
<line x1="601.700000" y1="66.000000" x2="601.700000" y2="66.000000"  style="stroke:black; stroke-linecap:round; stroke-width:0.25;"/>
<line x1="601.700000" y1="78.000000" x2="601.700000" y2="66.000000"  style="stroke:black; stroke-linecap:round; stroke-width:0.25;"/>
<line x1="601.700000" y1="150.000000" x2="597.700000" y2="150.000000"  style="stroke:black; stroke-linecap:round; stroke-width:0.25;"/>
<line x1="601.700000" y1="158.000000" x2="597.700000" y2="158.000000"  style="stroke:black; stroke-linecap:round; stroke-width:0.25;"/>
<line x1="601.700000" y1="158.000000" x2="601.700000" y2="158.000000"  style="stroke:black; stroke-linecap:round; stroke-width:0.25;"/>
<line x1="601.700000" y1="170.000000" x2="601.700000" y2="158.000000"  style="stroke:black; stroke-linecap:round; stroke-width:0.25;"/>
<line x1="604.700000" y1="208.000000" x2="608.700000" y2="208.000000"  style="stroke:black; stroke-linecap:round; stroke-width:0.25;"/>
<line x1="604.700000" y1="216.000000" x2="608.700000" y2="216.000000"  style="stroke:black; stroke-linecap:round; stroke-width:0.25;"/>
<line x1="608.700000" y1="208.000000" x2="612.700000" y2="208.000000"  style="stroke:black; stroke-linecap:round; stroke-width:0.25;"/>
<line x1="608.700000" y1="216.000000" x2="612.700000" y2="216.000000"  style="stroke:black; stroke-linecap:round; stroke-width:0.25;"/>
<line x1="609.700000" y1="36.000000" x2="609.700000" y2="36.000000"  style="stroke:black; stroke-linecap:round; stroke-width:0.25;"/>
<line x1="609.700000" y1="36.000000" x2="609.700000" y2="58.000000"  style="stroke:black; stroke-linecap:round; stroke-width:0.25;"/>
<line x1="609.700000" y1="58.000000" x2="601.700000" y2="58.000000"  style="stroke:black; stroke-linecap:round; stroke-width:0.25;"/>
<line x1="609.700000" y1="78.000000" x2="601.700000" y2="78.000000"  style="stroke:black; stroke-linecap:round; stroke-width:0.25;"/>
<line x1="609.700000" y1="128.000000" x2="609.700000" y2="128.000000"  style="stroke:black; stroke-linecap:round; stroke-width:0.25;"/>
<line x1="609.700000" y1="128.000000" x2="609.700000" y2="150.000000"  style="stroke:black; stroke-linecap:round; stroke-width:0.25;"/>
<line x1="609.700000" y1="150.000000" x2="601.700000" y2="150.000000"  style="stroke:black; stroke-linecap:round; stroke-width:0.25;"/>
<line x1="609.700000" y1="170.000000" x2="601.700000" y2="170.000000"  style="stroke:black; stroke-linecap:round; stroke-width:0.25;"/>
<line x1="612.700000" y1="208.000000" x2="618.700000" y2="212.000000"  style="stroke:black; stroke-linecap:round; stroke-width:0.25;"/>
<line x1="612.700000" y1="216.000000" x2="618.700000" y2="212.000000"  style="stroke:black; stroke-linecap:round; stroke-width:0.25;"/>
<line x1="615.700000" y1="108.000000" x2="569.700000" y2="108.000000"  style="stroke:black; stroke-linecap:round; stroke-width:0.25;"/>
<line x1="615.700000" y1="200.000000" x2="569.700000" y2="200.000000"  style="stroke:black; stroke-linecap:round; stroke-width:0.25;"/>
<line x1="618.700000" y1="212.000000" x2="622.700000" y2="212.000000"  style="stroke:black; stroke-linecap:round; stroke-width:0.25;"/>
<line x1="619.700000" y1="36.000000" x2="609.700000" y2="36.000000"  style="stroke:black; stroke-linecap:round; stroke-width:0.25;"/>
<line x1="619.700000" y1="78.000000" x2="609.700000" y2="78.000000"  style="stroke:black; stroke-linecap:round; stroke-width:0.25;"/>
<line x1="619.700000" y1="128.000000" x2="609.700000" y2="128.000000"  style="stroke:black; stroke-linecap:round; stroke-width:0.25;"/>
<line x1="619.700000" y1="170.000000" x2="609.700000" y2="170.000000"  style="stroke:black; stroke-linecap:round; stroke-width:0.25;"/>
<line x1="622.700000" y1="212.000000" x2="626.700000" y2="212.000000"  style="stroke:black; stroke-linecap:round; stroke-width:0.25;"/>
<line x1="623.700000" y1="36.000000" x2="619.700000" y2="36.000000"  style="stroke:black; stroke-linecap:round; stroke-width:0.25;"/>
<line x1="623.700000" y1="78.000000" x2="619.700000" y2="78.000000"  style="stroke:black; stroke-linecap:round; stroke-width:0.25;"/>
<line x1="623.700000" y1="128.000000" x2="619.700000" y2="128.000000"  style="stroke:black; stroke-linecap:round; stroke-width:0.25;"/>
<line x1="623.700000" y1="170.000000" x2="619.700000" y2="170.000000"  style="stroke:black; stroke-linecap:round; stroke-width:0.25;"/>
<line x1="626.700000" y1="212.000000" x2="757.700000" y2="212.000000"  style="stroke:black; stroke-linecap:round; stroke-width:0.25;"/>
<line x1="661.700000" y1="108.000000" x2="615.700000" y2="108.000000"  style="stroke:black; stroke-linecap:round; stroke-width:0.25;"/>
<line x1="661.700000" y1="200.000000" x2="615.700000" y2="200.000000"  style="stroke:black; stroke-linecap:round; stroke-width:0.25;"/>
<line x1="669.700000" y1="108.000000" x2="661.700000" y2="108.000000"  style="stroke:black; stroke-linecap:round; stroke-width:0.25;"/>
<line x1="669.700000" y1="128.000000" x2="669.700000" y2="128.000000"  style="stroke:black; stroke-linecap:round; stroke-width:0.25;"/>
<line x1="669.700000" y1="128.000000" x2="669.700000" y2="200.000000"  style="stroke:black; stroke-linecap:round; stroke-width:0.25;"/>
<line x1="669.700000" y1="200.000000" x2="661.700000" y2="200.000000"  style="stroke:black; stroke-linecap:round; stroke-width:0.25;"/>
<line x1="673.700000" y1="108.000000" x2="669.700000" y2="108.000000"  style="stroke:black; stroke-linecap:round; stroke-width:0.25;"/>
<line x1="685.700000" y1="128.000000" x2="669.700000" y2="128.000000"  style="stroke:black; stroke-linecap:round; stroke-width:0.25;"/>
<line x1="701.700000" y1="108.000000" x2="697.700000" y2="108.000000"  style="stroke:black; stroke-linecap:round; stroke-width:0.25;"/>
<line x1="701.700000" y1="128.000000" x2="685.700000" y2="128.000000"  style="stroke:black; stroke-linecap:round; stroke-width:0.25;"/>
<line x1="749.700000" y1="112.000000" x2="701.700000" y2="108.000000"  style="stroke:black; stroke-linecap:round; stroke-width:0.25;"/>
<line x1="749.700000" y1="112.000000" x2="701.700000" y2="128.000000"  style="stroke:black; stroke-linecap:round; stroke-width:0.25;"/>
<line x1="753.700000" y1="112.000000" x2="749.700000" y2="112.000000"  style="stroke:black; stroke-linecap:round; stroke-width:0.25;"/>
<line x1="757.700000" y1="112.000000" x2="753.700000" y2="112.000000"  style="stroke:black; stroke-linecap:round; stroke-width:0.25;"/>
<line x1="757.700000" y1="112.000000" x2="757.700000" y2="112.000000"  style="stroke:black; stroke-linecap:round; stroke-width:0.25;"/>
<line x1="757.700000" y1="208.000000" x2="757.700000" y2="112.000000"  style="stroke:black; stroke-linecap:round; stroke-width:0.25;"/>
<line x1="757.700000" y1="212.000000" x2="759.700000" y2="212.000000"  style="stroke:black; stroke-linecap:round; stroke-width:0.25;"/>
<line x1="759.700000" y1="212.000000" x2="765.700000" y2="212.000000"  style="stroke:black; stroke-linecap:round; stroke-width:0.25;"/>
<line x1="765.700000" y1="120.000000" x2="773.700000" y2="120.000000"  style="stroke:black; stroke-linecap:round; stroke-width:0.25;"/>
<line x1="765.700000" y1="212.000000" x2="765.700000" y2="120.000000"  style="stroke:black; stroke-linecap:round; stroke-width:0.25;"/>
<line x1="765.700000" y1="212.000000" x2="765.700000" y2="212.000000"  style="stroke:black; stroke-linecap:round; stroke-width:0.25;"/>
<line x1="773.700000" y1="120.000000" x2="777.700000" y2="120.000000"  style="stroke:black; stroke-linecap:round; stroke-width:0.25;"/>
<line x1="777.700000" y1="120.000000" x2="781.700000" y2="120.000000"  style="stroke:black; stroke-linecap:round; stroke-width:0.25;"/>
<line x1="781.700000" y1="120.000000" x2="791.700000" y2="120.000000"  style="stroke:black; stroke-linecap:round; stroke-width:0.25;"/>
</svg>
