<?xml version="1.0"?>
<svg xmlns="http://www.w3.org/2000/svg" xmlns:xlink="http://www.w3.org/1999/xlink" viewBox="0 0 382.800000 552.000000" width="191.400000mm" height="276.000000mm" version="1.1">
<a xlink:href="Network-0x6000531c79f0.svg">
<rect x="0.000000" y="0.000000" width="381.800000" height="551.000000" rx="0" ry="0" style="stroke:#000000;fill:#FFFFFF;"/>
</a>
<text x="10.000000" y="7.000000" font-family="Verdana" font-size="7"></text>
<rect x="118.000000" y="54.000000" width="154.800000" height="24.000000" rx="0" ry="0" style="stroke:#000000;fill:#FFFFFF;"/>
<text x="195.400000" y="68.000000" font-family="Verdana" font-size="7" text-anchor="middle" fill="#000000">vslider(0, 0.0f, 0.0f, 19.0f, 1.0f)</text>
<circle cx="120.000000" cy="56.000000" r="1"/>
<line x1="109.000000" y1="45.000000" x2="109.000000" y2="87.000000"  style="stroke: black; stroke-linecap:round; stroke-width:0.25; stroke-dasharray:3,3;"/>
<line x1="109.000000" y1="87.000000" x2="281.800000" y2="87.000000"  style="stroke: black; stroke-linecap:round; stroke-width:0.25; stroke-dasharray:3,3;"/>
<line x1="281.800000" y1="87.000000" x2="281.800000" y2="45.000000"  style="stroke: black; stroke-linecap:round; stroke-width:0.25; stroke-dasharray:3,3;"/>
<line x1="109.000000" y1="45.000000" x2="114.000000" y2="45.000000"  style="stroke: black; stroke-linecap:round; stroke-width:0.25; stroke-dasharray:3,3;"/>
<line x1="191.400000" y1="45.000000" x2="281.800000" y2="45.000000"  style="stroke: black; stroke-linecap:round; stroke-width:0.25; stroke-dasharray:3,3;"/>
<text x="114.000000" y="47.000000" font-family="Verdana" font-size="7">hgroup(Filters Preset)</text>
<line x1="99.000000" y1="35.000000" x2="99.000000" y2="97.000000"  style="stroke: black; stroke-linecap:round; stroke-width:0.25; stroke-dasharray:3,3;"/>
<line x1="99.000000" y1="97.000000" x2="291.800000" y2="97.000000"  style="stroke: black; stroke-linecap:round; stroke-width:0.25; stroke-dasharray:3,3;"/>
<line x1="291.800000" y1="97.000000" x2="291.800000" y2="35.000000"  style="stroke: black; stroke-linecap:round; stroke-width:0.25; stroke-dasharray:3,3;"/>
<line x1="99.000000" y1="35.000000" x2="104.000000" y2="35.000000"  style="stroke: black; stroke-linecap:round; stroke-width:0.25; stroke-dasharray:3,3;"/>
<line x1="181.400000" y1="35.000000" x2="291.800000" y2="35.000000"  style="stroke: black; stroke-linecap:round; stroke-width:0.25; stroke-dasharray:3,3;"/>
<text x="104.000000" y="37.000000" font-family="Verdana" font-size="7">vgroup(Global Control)</text>
<line x1="89.000000" y1="25.000000" x2="89.000000" y2="107.000000"  style="stroke: black; stroke-linecap:round; stroke-width:0.25; stroke-dasharray:3,3;"/>
<line x1="89.000000" y1="107.000000" x2="301.800000" y2="107.000000"  style="stroke: black; stroke-linecap:round; stroke-width:0.25; stroke-dasharray:3,3;"/>
<line x1="301.800000" y1="107.000000" x2="301.800000" y2="25.000000"  style="stroke: black; stroke-linecap:round; stroke-width:0.25; stroke-dasharray:3,3;"/>
<line x1="89.000000" y1="25.000000" x2="94.000000" y2="25.000000"  style="stroke: black; stroke-linecap:round; stroke-width:0.25; stroke-dasharray:3,3;"/>
<line x1="142.375000" y1="25.000000" x2="301.800000" y2="25.000000"  style="stroke: black; stroke-linecap:round; stroke-width:0.25; stroke-dasharray:3,3;"/>
<text x="94.000000" y="27.000000" font-family="Verdana" font-size="7">vgroup(Mixer)</text>
<rect x="176.050000" y="126.000000" width="38.700000" height="24.000000" rx="0" ry="0" style="stroke:#000000;fill:#FFFFFF;"/>
<text x="195.400000" y="140.000000" font-family="Verdana" font-size="7" text-anchor="middle" fill="#000000">[25] sm</text>
<circle cx="178.050000" cy="128.000000" r="1"/>
<line x1="167.050000" y1="117.000000" x2="167.050000" y2="159.000000"  style="stroke: black; stroke-linecap:round; stroke-width:0.25; stroke-dasharray:3,3;"/>
<line x1="167.050000" y1="159.000000" x2="223.750000" y2="159.000000"  style="stroke: black; stroke-linecap:round; stroke-width:0.25; stroke-dasharray:3,3;"/>
<line x1="223.750000" y1="159.000000" x2="223.750000" y2="117.000000"  style="stroke: black; stroke-linecap:round; stroke-width:0.25; stroke-dasharray:3,3;"/>
<line x1="167.050000" y1="117.000000" x2="172.050000" y2="117.000000"  style="stroke: black; stroke-linecap:round; stroke-width:0.25; stroke-dasharray:3,3;"/>
<line x1="223.650000" y1="117.000000" x2="223.750000" y2="117.000000"  style="stroke: black; stroke-linecap:round; stroke-width:0.25; stroke-dasharray:3,3;"/>
<text x="172.050000" y="119.000000" font-family="Verdana" font-size="7">vgroup(Smooth)</text>
<a xlink:href="controlMap-0x60000b144870.svg">
<rect x="130.900000" y="198.000000" width="129.000000" height="24.000000" rx="0" ry="0" style="stroke:#000000;fill:#FFFFFF;"/>
</a>
<a xlink:href="controlMap-0x60000b144870.svg">
<text x="195.400000" y="212.000000" font-family="Verdana" font-size="7" text-anchor="middle" fill="#000000">controlMap(0)... : *) : +)~_)</text>
</a>
<circle cx="132.900000" cy="200.000000" r="1"/>
<line x1="127.900000" y1="209.000000" x2="130.900000" y2="210.000000"  transform="rotate(0.000000,130.900000,210.000000)" style="stroke: black; stroke-width:0.25;"/>
<line x1="127.900000" y1="211.000000" x2="130.900000" y2="210.000000"  transform="rotate(0.000000,130.900000,210.000000)" style="stroke: black; stroke-width:0.25;"/>
<line x1="121.900000" y1="189.000000" x2="121.900000" y2="231.000000"  style="stroke: black; stroke-linecap:round; stroke-width:0.25; stroke-dasharray:3,3;"/>
<line x1="121.900000" y1="231.000000" x2="268.900000" y2="231.000000"  style="stroke: black; stroke-linecap:round; stroke-width:0.25; stroke-dasharray:3,3;"/>
<line x1="268.900000" y1="231.000000" x2="268.900000" y2="189.000000"  style="stroke: black; stroke-linecap:round; stroke-width:0.25; stroke-dasharray:3,3;"/>
<line x1="121.900000" y1="189.000000" x2="126.900000" y2="189.000000"  style="stroke: black; stroke-linecap:round; stroke-width:0.25; stroke-dasharray:3,3;"/>
<line x1="165.600000" y1="189.000000" x2="268.900000" y2="189.000000"  style="stroke: black; stroke-linecap:round; stroke-width:0.25; stroke-dasharray:3,3;"/>
<text x="126.900000" y="191.000000" font-family="Verdana" font-size="7">vgroup(BW)</text>
<a xlink:href="controlMapExp-0x60000b141b90.svg">
<rect x="130.900000" y="250.000000" width="129.000000" height="24.000000" rx="0" ry="0" style="stroke:#000000;fill:#FFFFFF;"/>
</a>
<a xlink:href="controlMapExp-0x60000b141b90.svg">
<text x="195.400000" y="264.000000" font-family="Verdana" font-size="7" text-anchor="middle" fill="#000000">controlMapExp... : *) : +)~_)</text>
</a>
<circle cx="132.900000" cy="252.000000" r="1"/>
<line x1="127.900000" y1="261.000000" x2="130.900000" y2="262.000000"  transform="rotate(0.000000,130.900000,262.000000)" style="stroke: black; stroke-width:0.25;"/>
<line x1="127.900000" y1="263.000000" x2="130.900000" y2="262.000000"  transform="rotate(0.000000,130.900000,262.000000)" style="stroke: black; stroke-width:0.25;"/>
<line x1="121.900000" y1="241.000000" x2="121.900000" y2="283.000000"  style="stroke: black; stroke-linecap:round; stroke-width:0.25; stroke-dasharray:3,3;"/>
<line x1="121.900000" y1="283.000000" x2="268.900000" y2="283.000000"  style="stroke: black; stroke-linecap:round; stroke-width:0.25; stroke-dasharray:3,3;"/>
<line x1="268.900000" y1="283.000000" x2="268.900000" y2="241.000000"  style="stroke: black; stroke-linecap:round; stroke-width:0.25; stroke-dasharray:3,3;"/>
<line x1="121.900000" y1="241.000000" x2="126.900000" y2="241.000000"  style="stroke: black; stroke-linecap:round; stroke-width:0.25; stroke-dasharray:3,3;"/>
<line x1="168.825000" y1="241.000000" x2="268.900000" y2="241.000000"  style="stroke: black; stroke-linecap:round; stroke-width:0.25; stroke-dasharray:3,3;"/>
<text x="126.900000" y="243.000000" font-family="Verdana" font-size="7">vgroup(BPF)</text>
<a xlink:href="controlMap-0x60000b17a400.svg">
<rect x="130.900000" y="302.000000" width="129.000000" height="24.000000" rx="0" ry="0" style="stroke:#000000;fill:#FFFFFF;"/>
</a>
<a xlink:href="controlMap-0x60000b17a400.svg">
<text x="195.400000" y="316.000000" font-family="Verdana" font-size="7" text-anchor="middle" fill="#000000">controlMap(0)... : *) : +)~_)</text>
</a>
<circle cx="132.900000" cy="304.000000" r="1"/>
<line x1="127.900000" y1="313.000000" x2="130.900000" y2="314.000000"  transform="rotate(0.000000,130.900000,314.000000)" style="stroke: black; stroke-width:0.25;"/>
<line x1="127.900000" y1="315.000000" x2="130.900000" y2="314.000000"  transform="rotate(0.000000,130.900000,314.000000)" style="stroke: black; stroke-width:0.25;"/>
<line x1="121.900000" y1="293.000000" x2="121.900000" y2="335.000000"  style="stroke: black; stroke-linecap:round; stroke-width:0.25; stroke-dasharray:3,3;"/>
<line x1="121.900000" y1="335.000000" x2="268.900000" y2="335.000000"  style="stroke: black; stroke-linecap:round; stroke-width:0.25; stroke-dasharray:3,3;"/>
<line x1="268.900000" y1="335.000000" x2="268.900000" y2="293.000000"  style="stroke: black; stroke-linecap:round; stroke-width:0.25; stroke-dasharray:3,3;"/>
<line x1="121.900000" y1="293.000000" x2="126.900000" y2="293.000000"  style="stroke: black; stroke-linecap:round; stroke-width:0.25; stroke-dasharray:3,3;"/>
<line x1="172.050000" y1="293.000000" x2="268.900000" y2="293.000000"  style="stroke: black; stroke-linecap:round; stroke-width:0.25; stroke-dasharray:3,3;"/>
<text x="126.900000" y="295.000000" font-family="Verdana" font-size="7">vgroup(Gain)</text>
<a xlink:href="controlMap-0x60000b172c70.svg">
<rect x="130.900000" y="354.000000" width="129.000000" height="24.000000" rx="0" ry="0" style="stroke:#000000;fill:#FFFFFF;"/>
</a>
<a xlink:href="controlMap-0x60000b172c70.svg">
<text x="195.400000" y="368.000000" font-family="Verdana" font-size="7" text-anchor="middle" fill="#000000">controlMap(0)... : *) : +)~_)</text>
</a>
<circle cx="132.900000" cy="356.000000" r="1"/>
<line x1="127.900000" y1="365.000000" x2="130.900000" y2="366.000000"  transform="rotate(0.000000,130.900000,366.000000)" style="stroke: black; stroke-width:0.25;"/>
<line x1="127.900000" y1="367.000000" x2="130.900000" y2="366.000000"  transform="rotate(0.000000,130.900000,366.000000)" style="stroke: black; stroke-width:0.25;"/>
<line x1="121.900000" y1="345.000000" x2="121.900000" y2="387.000000"  style="stroke: black; stroke-linecap:round; stroke-width:0.25; stroke-dasharray:3,3;"/>
<line x1="121.900000" y1="387.000000" x2="268.900000" y2="387.000000"  style="stroke: black; stroke-linecap:round; stroke-width:0.25; stroke-dasharray:3,3;"/>
<line x1="268.900000" y1="387.000000" x2="268.900000" y2="345.000000"  style="stroke: black; stroke-linecap:round; stroke-width:0.25; stroke-dasharray:3,3;"/>
<line x1="121.900000" y1="345.000000" x2="126.900000" y2="345.000000"  style="stroke: black; stroke-linecap:round; stroke-width:0.25; stroke-dasharray:3,3;"/>
<line x1="181.725000" y1="345.000000" x2="268.900000" y2="345.000000"  style="stroke: black; stroke-linecap:round; stroke-width:0.25; stroke-dasharray:3,3;"/>
<text x="126.900000" y="347.000000" font-family="Verdana" font-size="7">vgroup(Damping)</text>
<a xlink:href="controlMap-0x60000b16b450.svg">
<rect x="130.900000" y="406.000000" width="129.000000" height="24.000000" rx="0" ry="0" style="stroke:#000000;fill:#FFFFFF;"/>
</a>
<a xlink:href="controlMap-0x60000b16b450.svg">
<text x="195.400000" y="420.000000" font-family="Verdana" font-size="7" text-anchor="middle" fill="#000000">controlMap(0)... : *) : +)~_)</text>
</a>
<circle cx="132.900000" cy="408.000000" r="1"/>
<line x1="127.900000" y1="417.000000" x2="130.900000" y2="418.000000"  transform="rotate(0.000000,130.900000,418.000000)" style="stroke: black; stroke-width:0.25;"/>
<line x1="127.900000" y1="419.000000" x2="130.900000" y2="418.000000"  transform="rotate(0.000000,130.900000,418.000000)" style="stroke: black; stroke-width:0.25;"/>
<line x1="121.900000" y1="397.000000" x2="121.900000" y2="439.000000"  style="stroke: black; stroke-linecap:round; stroke-width:0.25; stroke-dasharray:3,3;"/>
<line x1="121.900000" y1="439.000000" x2="268.900000" y2="439.000000"  style="stroke: black; stroke-linecap:round; stroke-width:0.25; stroke-dasharray:3,3;"/>
<line x1="268.900000" y1="439.000000" x2="268.900000" y2="397.000000"  style="stroke: black; stroke-linecap:round; stroke-width:0.25; stroke-dasharray:3,3;"/>
<line x1="121.900000" y1="397.000000" x2="126.900000" y2="397.000000"  style="stroke: black; stroke-linecap:round; stroke-width:0.25; stroke-dasharray:3,3;"/>
<line x1="168.825000" y1="397.000000" x2="268.900000" y2="397.000000"  style="stroke: black; stroke-linecap:round; stroke-width:0.25; stroke-dasharray:3,3;"/>
<text x="126.900000" y="399.000000" font-family="Verdana" font-size="7">vgroup(Mod)</text>
<a xlink:href="controlMap-0x60000b163ba0.svg">
<rect x="130.900000" y="458.000000" width="129.000000" height="24.000000" rx="0" ry="0" style="stroke:#000000;fill:#FFFFFF;"/>
</a>
<a xlink:href="controlMap-0x60000b163ba0.svg">
<text x="195.400000" y="472.000000" font-family="Verdana" font-size="7" text-anchor="middle" fill="#000000">controlMap(0)... : *) : +)~_)</text>
</a>
<circle cx="132.900000" cy="460.000000" r="1"/>
<line x1="127.900000" y1="469.000000" x2="130.900000" y2="470.000000"  transform="rotate(0.000000,130.900000,470.000000)" style="stroke: black; stroke-width:0.25;"/>
<line x1="127.900000" y1="471.000000" x2="130.900000" y2="470.000000"  transform="rotate(0.000000,130.900000,470.000000)" style="stroke: black; stroke-width:0.25;"/>
<line x1="121.900000" y1="449.000000" x2="121.900000" y2="491.000000"  style="stroke: black; stroke-linecap:round; stroke-width:0.25; stroke-dasharray:3,3;"/>
<line x1="121.900000" y1="491.000000" x2="268.900000" y2="491.000000"  style="stroke: black; stroke-linecap:round; stroke-width:0.25; stroke-dasharray:3,3;"/>
<line x1="268.900000" y1="491.000000" x2="268.900000" y2="449.000000"  style="stroke: black; stroke-linecap:round; stroke-width:0.25; stroke-dasharray:3,3;"/>
<line x1="121.900000" y1="449.000000" x2="126.900000" y2="449.000000"  style="stroke: black; stroke-linecap:round; stroke-width:0.25; stroke-dasharray:3,3;"/>
<line x1="172.050000" y1="449.000000" x2="268.900000" y2="449.000000"  style="stroke: black; stroke-linecap:round; stroke-width:0.25; stroke-dasharray:3,3;"/>
<text x="126.900000" y="451.000000" font-family="Verdana" font-size="7">vgroup(Rate)</text>
<line x1="111.900000" y1="179.000000" x2="111.900000" y2="501.000000"  style="stroke: black; stroke-linecap:round; stroke-width:0.25; stroke-dasharray:3,3;"/>
<line x1="111.900000" y1="501.000000" x2="278.900000" y2="501.000000"  style="stroke: black; stroke-linecap:round; stroke-width:0.25; stroke-dasharray:3,3;"/>
<line x1="278.900000" y1="501.000000" x2="278.900000" y2="179.000000"  style="stroke: black; stroke-linecap:round; stroke-width:0.25; stroke-dasharray:3,3;"/>
<line x1="111.900000" y1="179.000000" x2="116.900000" y2="179.000000"  style="stroke: black; stroke-linecap:round; stroke-width:0.25; stroke-dasharray:3,3;"/>
<line x1="197.525000" y1="179.000000" x2="278.900000" y2="179.000000"  style="stroke: black; stroke-linecap:round; stroke-width:0.25; stroke-dasharray:3,3;"/>
<text x="116.900000" y="181.000000" font-family="Verdana" font-size="7">hgroup(Control Signals)</text>
<line x1="101.900000" y1="169.000000" x2="101.900000" y2="511.000000"  style="stroke: black; stroke-linecap:round; stroke-width:0.25; stroke-dasharray:3,3;"/>
<line x1="101.900000" y1="511.000000" x2="288.900000" y2="511.000000"  style="stroke: black; stroke-linecap:round; stroke-width:0.25; stroke-dasharray:3,3;"/>
<line x1="288.900000" y1="511.000000" x2="288.900000" y2="169.000000"  style="stroke: black; stroke-linecap:round; stroke-width:0.25; stroke-dasharray:3,3;"/>
<line x1="101.900000" y1="169.000000" x2="106.900000" y2="169.000000"  style="stroke: black; stroke-linecap:round; stroke-width:0.25; stroke-dasharray:3,3;"/>
<line x1="158.500000" y1="169.000000" x2="288.900000" y2="169.000000"  style="stroke: black; stroke-linecap:round; stroke-width:0.25; stroke-dasharray:3,3;"/>
<text x="106.900000" y="171.000000" font-family="Verdana" font-size="7">hgroup(Status)</text>
<line x1="15.000000" y1="15.000000" x2="15.000000" y2="537.000000"  style="stroke: black; stroke-linecap:round; stroke-width:0.25; stroke-dasharray:3,3;"/>
<line x1="15.000000" y1="537.000000" x2="367.800000" y2="537.000000"  style="stroke: black; stroke-linecap:round; stroke-width:0.25; stroke-dasharray:3,3;"/>
<line x1="367.800000" y1="537.000000" x2="367.800000" y2="15.000000"  style="stroke: black; stroke-linecap:round; stroke-width:0.25; stroke-dasharray:3,3;"/>
<line x1="15.000000" y1="15.000000" x2="20.000000" y2="15.000000"  style="stroke: black; stroke-linecap:round; stroke-width:0.25; stroke-dasharray:3,3;"/>
<line x1="136.100000" y1="15.000000" x2="367.800000" y2="15.000000"  style="stroke: black; stroke-linecap:round; stroke-width:0.25; stroke-dasharray:3,3;"/>
<text x="20.000000" y="17.000000" font-family="Verdana" font-size="7">controls(9)(0...28)(x29)(x30)(x31)</text>
<line x1="369.800000" y1="239.000000" x2="372.800000" y2="240.000000"  transform="rotate(0.000000,372.800000,240.000000)" style="stroke: black; stroke-width:0.25;"/>
<line x1="369.800000" y1="241.000000" x2="372.800000" y2="240.000000"  transform="rotate(0.000000,372.800000,240.000000)" style="stroke: black; stroke-width:0.25;"/>
<line x1="369.800000" y1="247.000000" x2="372.800000" y2="248.000000"  transform="rotate(0.000000,372.800000,248.000000)" style="stroke: black; stroke-width:0.25;"/>
<line x1="369.800000" y1="249.000000" x2="372.800000" y2="248.000000"  transform="rotate(0.000000,372.800000,248.000000)" style="stroke: black; stroke-width:0.25;"/>
<line x1="369.800000" y1="255.000000" x2="372.800000" y2="256.000000"  transform="rotate(0.000000,372.800000,256.000000)" style="stroke: black; stroke-width:0.25;"/>
<line x1="369.800000" y1="257.000000" x2="372.800000" y2="256.000000"  transform="rotate(0.000000,372.800000,256.000000)" style="stroke: black; stroke-width:0.25;"/>
<line x1="369.800000" y1="263.000000" x2="372.800000" y2="264.000000"  transform="rotate(0.000000,372.800000,264.000000)" style="stroke: black; stroke-width:0.25;"/>
<line x1="369.800000" y1="265.000000" x2="372.800000" y2="264.000000"  transform="rotate(0.000000,372.800000,264.000000)" style="stroke: black; stroke-width:0.25;"/>
<line x1="369.800000" y1="271.000000" x2="372.800000" y2="272.000000"  transform="rotate(0.000000,372.800000,272.000000)" style="stroke: black; stroke-width:0.25;"/>
<line x1="369.800000" y1="273.000000" x2="372.800000" y2="272.000000"  transform="rotate(0.000000,372.800000,272.000000)" style="stroke: black; stroke-width:0.25;"/>
<line x1="369.800000" y1="279.000000" x2="372.800000" y2="280.000000"  transform="rotate(0.000000,372.800000,280.000000)" style="stroke: black; stroke-width:0.25;"/>
<line x1="369.800000" y1="281.000000" x2="372.800000" y2="280.000000"  transform="rotate(0.000000,372.800000,280.000000)" style="stroke: black; stroke-width:0.25;"/>
<line x1="369.800000" y1="287.000000" x2="372.800000" y2="288.000000"  transform="rotate(0.000000,372.800000,288.000000)" style="stroke: black; stroke-width:0.25;"/>
<line x1="369.800000" y1="289.000000" x2="372.800000" y2="288.000000"  transform="rotate(0.000000,372.800000,288.000000)" style="stroke: black; stroke-width:0.25;"/>
<line x1="369.800000" y1="295.000000" x2="372.800000" y2="296.000000"  transform="rotate(0.000000,372.800000,296.000000)" style="stroke: black; stroke-width:0.25;"/>
<line x1="369.800000" y1="297.000000" x2="372.800000" y2="296.000000"  transform="rotate(0.000000,372.800000,296.000000)" style="stroke: black; stroke-width:0.25;"/>
<line x1="369.800000" y1="303.000000" x2="372.800000" y2="304.000000"  transform="rotate(0.000000,372.800000,304.000000)" style="stroke: black; stroke-width:0.25;"/>
<line x1="369.800000" y1="305.000000" x2="372.800000" y2="304.000000"  transform="rotate(0.000000,372.800000,304.000000)" style="stroke: black; stroke-width:0.25;"/>
<line x1="369.800000" y1="311.000000" x2="372.800000" y2="312.000000"  transform="rotate(0.000000,372.800000,312.000000)" style="stroke: black; stroke-width:0.25;"/>
<line x1="369.800000" y1="313.000000" x2="372.800000" y2="312.000000"  transform="rotate(0.000000,372.800000,312.000000)" style="stroke: black; stroke-width:0.25;"/>
<line x1="10.000000" y1="248.000000" x2="20.000000" y2="248.000000"  style="stroke:black; stroke-linecap:round; stroke-width:0.25;"/>
<line x1="10.000000" y1="256.000000" x2="20.000000" y2="256.000000"  style="stroke:black; stroke-linecap:round; stroke-width:0.25;"/>
<line x1="10.000000" y1="264.000000" x2="20.000000" y2="264.000000"  style="stroke:black; stroke-linecap:round; stroke-width:0.25;"/>
<line x1="10.000000" y1="272.000000" x2="20.000000" y2="272.000000"  style="stroke:black; stroke-linecap:round; stroke-width:0.25;"/>
<line x1="10.000000" y1="280.000000" x2="20.000000" y2="280.000000"  style="stroke:black; stroke-linecap:round; stroke-width:0.25;"/>
<line x1="10.000000" y1="288.000000" x2="20.000000" y2="288.000000"  style="stroke:black; stroke-linecap:round; stroke-width:0.25;"/>
<line x1="10.000000" y1="296.000000" x2="20.000000" y2="296.000000"  style="stroke:black; stroke-linecap:round; stroke-width:0.25;"/>
<line x1="10.000000" y1="304.000000" x2="20.000000" y2="304.000000"  style="stroke:black; stroke-linecap:round; stroke-width:0.25;"/>
<line x1="20.000000" y1="248.000000" x2="24.000000" y2="248.000000"  style="stroke:black; stroke-linecap:round; stroke-width:0.25;"/>
<line x1="20.000000" y1="256.000000" x2="24.000000" y2="256.000000"  style="stroke:black; stroke-linecap:round; stroke-width:0.25;"/>
<line x1="20.000000" y1="264.000000" x2="24.000000" y2="264.000000"  style="stroke:black; stroke-linecap:round; stroke-width:0.25;"/>
<line x1="20.000000" y1="272.000000" x2="24.000000" y2="272.000000"  style="stroke:black; stroke-linecap:round; stroke-width:0.25;"/>
<line x1="20.000000" y1="280.000000" x2="24.000000" y2="280.000000"  style="stroke:black; stroke-linecap:round; stroke-width:0.25;"/>
<line x1="20.000000" y1="288.000000" x2="24.000000" y2="288.000000"  style="stroke:black; stroke-linecap:round; stroke-width:0.25;"/>
<line x1="20.000000" y1="296.000000" x2="24.000000" y2="296.000000"  style="stroke:black; stroke-linecap:round; stroke-width:0.25;"/>
<line x1="20.000000" y1="304.000000" x2="24.000000" y2="304.000000"  style="stroke:black; stroke-linecap:round; stroke-width:0.25;"/>
<line x1="24.000000" y1="248.000000" x2="28.000000" y2="248.000000"  style="stroke:black; stroke-linecap:round; stroke-width:0.25;"/>
<line x1="24.000000" y1="256.000000" x2="28.000000" y2="256.000000"  style="stroke:black; stroke-linecap:round; stroke-width:0.25;"/>
<line x1="24.000000" y1="264.000000" x2="28.000000" y2="264.000000"  style="stroke:black; stroke-linecap:round; stroke-width:0.25;"/>
<line x1="24.000000" y1="272.000000" x2="28.000000" y2="272.000000"  style="stroke:black; stroke-linecap:round; stroke-width:0.25;"/>
<line x1="24.000000" y1="280.000000" x2="28.000000" y2="280.000000"  style="stroke:black; stroke-linecap:round; stroke-width:0.25;"/>
<line x1="24.000000" y1="288.000000" x2="28.000000" y2="288.000000"  style="stroke:black; stroke-linecap:round; stroke-width:0.25;"/>
<line x1="24.000000" y1="296.000000" x2="28.000000" y2="296.000000"  style="stroke:black; stroke-linecap:round; stroke-width:0.25;"/>
<line x1="24.000000" y1="304.000000" x2="28.000000" y2="304.000000"  style="stroke:black; stroke-linecap:round; stroke-width:0.25;"/>
<line x1="28.000000" y1="210.000000" x2="84.000000" y2="210.000000"  style="stroke:black; stroke-linecap:round; stroke-width:0.25;"/>
<line x1="28.000000" y1="248.000000" x2="28.000000" y2="210.000000"  style="stroke:black; stroke-linecap:round; stroke-width:0.25;"/>
<line x1="28.000000" y1="248.000000" x2="28.000000" y2="248.000000"  style="stroke:black; stroke-linecap:round; stroke-width:0.25;"/>
<line x1="28.000000" y1="256.000000" x2="84.000000" y2="256.000000"  style="stroke:black; stroke-linecap:round; stroke-width:0.25;"/>
<line x1="28.000000" y1="264.000000" x2="76.000000" y2="264.000000"  style="stroke:black; stroke-linecap:round; stroke-width:0.25;"/>
<line x1="28.000000" y1="272.000000" x2="68.000000" y2="272.000000"  style="stroke:black; stroke-linecap:round; stroke-width:0.25;"/>
<line x1="28.000000" y1="280.000000" x2="60.000000" y2="280.000000"  style="stroke:black; stroke-linecap:round; stroke-width:0.25;"/>
<line x1="28.000000" y1="288.000000" x2="52.000000" y2="288.000000"  style="stroke:black; stroke-linecap:round; stroke-width:0.25;"/>
<line x1="28.000000" y1="296.000000" x2="44.000000" y2="296.000000"  style="stroke:black; stroke-linecap:round; stroke-width:0.25;"/>
<line x1="28.000000" y1="304.000000" x2="36.000000" y2="304.000000"  style="stroke:black; stroke-linecap:round; stroke-width:0.25;"/>
<line x1="36.000000" y1="304.000000" x2="36.000000" y2="528.000000"  style="stroke:black; stroke-linecap:round; stroke-width:0.25;"/>
<line x1="36.000000" y1="528.000000" x2="84.000000" y2="528.000000"  style="stroke:black; stroke-linecap:round; stroke-width:0.25;"/>
<line x1="44.000000" y1="296.000000" x2="44.000000" y2="520.000000"  style="stroke:black; stroke-linecap:round; stroke-width:0.25;"/>
<line x1="44.000000" y1="520.000000" x2="84.000000" y2="520.000000"  style="stroke:black; stroke-linecap:round; stroke-width:0.25;"/>
<line x1="52.000000" y1="288.000000" x2="52.000000" y2="470.000000"  style="stroke:black; stroke-linecap:round; stroke-width:0.25;"/>
<line x1="52.000000" y1="470.000000" x2="84.000000" y2="470.000000"  style="stroke:black; stroke-linecap:round; stroke-width:0.25;"/>
<line x1="60.000000" y1="280.000000" x2="60.000000" y2="418.000000"  style="stroke:black; stroke-linecap:round; stroke-width:0.25;"/>
<line x1="60.000000" y1="418.000000" x2="84.000000" y2="418.000000"  style="stroke:black; stroke-linecap:round; stroke-width:0.25;"/>
<line x1="68.000000" y1="272.000000" x2="68.000000" y2="366.000000"  style="stroke:black; stroke-linecap:round; stroke-width:0.25;"/>
<line x1="68.000000" y1="366.000000" x2="84.000000" y2="366.000000"  style="stroke:black; stroke-linecap:round; stroke-width:0.25;"/>
<line x1="76.000000" y1="264.000000" x2="76.000000" y2="314.000000"  style="stroke:black; stroke-linecap:round; stroke-width:0.25;"/>
<line x1="76.000000" y1="314.000000" x2="84.000000" y2="314.000000"  style="stroke:black; stroke-linecap:round; stroke-width:0.25;"/>
<line x1="84.000000" y1="520.000000" x2="96.900000" y2="520.000000"  style="stroke:black; stroke-linecap:round; stroke-width:0.25;"/>
<line x1="84.000000" y1="528.000000" x2="96.900000" y2="528.000000"  style="stroke:black; stroke-linecap:round; stroke-width:0.25;"/>
<line x1="84.000000" y1="210.000000" x2="96.900000" y2="210.000000"  style="stroke:black; stroke-linecap:round; stroke-width:0.25;"/>
<line x1="84.000000" y1="256.000000" x2="84.000000" y2="262.000000"  style="stroke:black; stroke-linecap:round; stroke-width:0.25;"/>
<line x1="84.000000" y1="262.000000" x2="84.000000" y2="262.000000"  style="stroke:black; stroke-linecap:round; stroke-width:0.25;"/>
<line x1="84.000000" y1="262.000000" x2="96.900000" y2="262.000000"  style="stroke:black; stroke-linecap:round; stroke-width:0.25;"/>
<line x1="84.000000" y1="314.000000" x2="96.900000" y2="314.000000"  style="stroke:black; stroke-linecap:round; stroke-width:0.25;"/>
<line x1="84.000000" y1="366.000000" x2="96.900000" y2="366.000000"  style="stroke:black; stroke-linecap:round; stroke-width:0.25;"/>
<line x1="84.000000" y1="418.000000" x2="96.900000" y2="418.000000"  style="stroke:black; stroke-linecap:round; stroke-width:0.25;"/>
<line x1="84.000000" y1="470.000000" x2="96.900000" y2="470.000000"  style="stroke:black; stroke-linecap:round; stroke-width:0.25;"/>
<line x1="96.900000" y1="520.000000" x2="195.400000" y2="520.000000"  style="stroke:black; stroke-linecap:round; stroke-width:0.25;"/>
<line x1="96.900000" y1="528.000000" x2="195.400000" y2="528.000000"  style="stroke:black; stroke-linecap:round; stroke-width:0.25;"/>
<line x1="96.900000" y1="210.000000" x2="106.900000" y2="210.000000"  style="stroke:black; stroke-linecap:round; stroke-width:0.25;"/>
<line x1="96.900000" y1="262.000000" x2="106.900000" y2="262.000000"  style="stroke:black; stroke-linecap:round; stroke-width:0.25;"/>
<line x1="96.900000" y1="314.000000" x2="106.900000" y2="314.000000"  style="stroke:black; stroke-linecap:round; stroke-width:0.25;"/>
<line x1="96.900000" y1="366.000000" x2="106.900000" y2="366.000000"  style="stroke:black; stroke-linecap:round; stroke-width:0.25;"/>
<line x1="96.900000" y1="418.000000" x2="106.900000" y2="418.000000"  style="stroke:black; stroke-linecap:round; stroke-width:0.25;"/>
<line x1="96.900000" y1="470.000000" x2="106.900000" y2="470.000000"  style="stroke:black; stroke-linecap:round; stroke-width:0.25;"/>
<line x1="106.900000" y1="210.000000" x2="116.900000" y2="210.000000"  style="stroke:black; stroke-linecap:round; stroke-width:0.25;"/>
<line x1="106.900000" y1="262.000000" x2="116.900000" y2="262.000000"  style="stroke:black; stroke-linecap:round; stroke-width:0.25;"/>
<line x1="106.900000" y1="314.000000" x2="116.900000" y2="314.000000"  style="stroke:black; stroke-linecap:round; stroke-width:0.25;"/>
<line x1="106.900000" y1="366.000000" x2="116.900000" y2="366.000000"  style="stroke:black; stroke-linecap:round; stroke-width:0.25;"/>
<line x1="106.900000" y1="418.000000" x2="116.900000" y2="418.000000"  style="stroke:black; stroke-linecap:round; stroke-width:0.25;"/>
<line x1="106.900000" y1="470.000000" x2="116.900000" y2="470.000000"  style="stroke:black; stroke-linecap:round; stroke-width:0.25;"/>
<line x1="116.900000" y1="210.000000" x2="126.900000" y2="210.000000"  style="stroke:black; stroke-linecap:round; stroke-width:0.25;"/>
<line x1="116.900000" y1="262.000000" x2="126.900000" y2="262.000000"  style="stroke:black; stroke-linecap:round; stroke-width:0.25;"/>
<line x1="116.900000" y1="314.000000" x2="126.900000" y2="314.000000"  style="stroke:black; stroke-linecap:round; stroke-width:0.25;"/>
<line x1="116.900000" y1="366.000000" x2="126.900000" y2="366.000000"  style="stroke:black; stroke-linecap:round; stroke-width:0.25;"/>
<line x1="116.900000" y1="418.000000" x2="126.900000" y2="418.000000"  style="stroke:black; stroke-linecap:round; stroke-width:0.25;"/>
<line x1="116.900000" y1="470.000000" x2="126.900000" y2="470.000000"  style="stroke:black; stroke-linecap:round; stroke-width:0.25;"/>
<line x1="126.900000" y1="210.000000" x2="130.900000" y2="210.000000"  style="stroke:black; stroke-linecap:round; stroke-width:0.25;"/>
<line x1="126.900000" y1="262.000000" x2="130.900000" y2="262.000000"  style="stroke:black; stroke-linecap:round; stroke-width:0.25;"/>
<line x1="126.900000" y1="314.000000" x2="130.900000" y2="314.000000"  style="stroke:black; stroke-linecap:round; stroke-width:0.25;"/>
<line x1="126.900000" y1="366.000000" x2="130.900000" y2="366.000000"  style="stroke:black; stroke-linecap:round; stroke-width:0.25;"/>
<line x1="126.900000" y1="418.000000" x2="130.900000" y2="418.000000"  style="stroke:black; stroke-linecap:round; stroke-width:0.25;"/>
<line x1="126.900000" y1="470.000000" x2="130.900000" y2="470.000000"  style="stroke:black; stroke-linecap:round; stroke-width:0.25;"/>
<line x1="195.400000" y1="520.000000" x2="293.900000" y2="520.000000"  style="stroke:black; stroke-linecap:round; stroke-width:0.25;"/>
<line x1="195.400000" y1="528.000000" x2="293.900000" y2="528.000000"  style="stroke:black; stroke-linecap:round; stroke-width:0.25;"/>
<line x1="214.750000" y1="138.000000" x2="218.750000" y2="138.000000"  style="stroke:black; stroke-linecap:round; stroke-width:0.25;"/>
<line x1="218.750000" y1="138.000000" x2="228.750000" y2="138.000000"  style="stroke:black; stroke-linecap:round; stroke-width:0.25;"/>
<line x1="228.750000" y1="138.000000" x2="293.900000" y2="138.000000"  style="stroke:black; stroke-linecap:round; stroke-width:0.25;"/>
<line x1="259.900000" y1="210.000000" x2="263.900000" y2="210.000000"  style="stroke:black; stroke-linecap:round; stroke-width:0.25;"/>
<line x1="259.900000" y1="262.000000" x2="263.900000" y2="262.000000"  style="stroke:black; stroke-linecap:round; stroke-width:0.25;"/>
<line x1="259.900000" y1="314.000000" x2="263.900000" y2="314.000000"  style="stroke:black; stroke-linecap:round; stroke-width:0.25;"/>
<line x1="259.900000" y1="366.000000" x2="263.900000" y2="366.000000"  style="stroke:black; stroke-linecap:round; stroke-width:0.25;"/>
<line x1="259.900000" y1="418.000000" x2="263.900000" y2="418.000000"  style="stroke:black; stroke-linecap:round; stroke-width:0.25;"/>
<line x1="259.900000" y1="470.000000" x2="263.900000" y2="470.000000"  style="stroke:black; stroke-linecap:round; stroke-width:0.25;"/>
<line x1="263.900000" y1="210.000000" x2="273.900000" y2="210.000000"  style="stroke:black; stroke-linecap:round; stroke-width:0.25;"/>
<line x1="263.900000" y1="262.000000" x2="273.900000" y2="262.000000"  style="stroke:black; stroke-linecap:round; stroke-width:0.25;"/>
<line x1="263.900000" y1="314.000000" x2="273.900000" y2="314.000000"  style="stroke:black; stroke-linecap:round; stroke-width:0.25;"/>
<line x1="263.900000" y1="366.000000" x2="273.900000" y2="366.000000"  style="stroke:black; stroke-linecap:round; stroke-width:0.25;"/>
<line x1="263.900000" y1="418.000000" x2="273.900000" y2="418.000000"  style="stroke:black; stroke-linecap:round; stroke-width:0.25;"/>
<line x1="263.900000" y1="470.000000" x2="273.900000" y2="470.000000"  style="stroke:black; stroke-linecap:round; stroke-width:0.25;"/>
<line x1="272.800000" y1="66.000000" x2="276.800000" y2="66.000000"  style="stroke:black; stroke-linecap:round; stroke-width:0.25;"/>
<line x1="273.900000" y1="210.000000" x2="283.900000" y2="210.000000"  style="stroke:black; stroke-linecap:round; stroke-width:0.25;"/>
<line x1="273.900000" y1="262.000000" x2="283.900000" y2="262.000000"  style="stroke:black; stroke-linecap:round; stroke-width:0.25;"/>
<line x1="273.900000" y1="314.000000" x2="283.900000" y2="314.000000"  style="stroke:black; stroke-linecap:round; stroke-width:0.25;"/>
<line x1="273.900000" y1="366.000000" x2="283.900000" y2="366.000000"  style="stroke:black; stroke-linecap:round; stroke-width:0.25;"/>
<line x1="273.900000" y1="418.000000" x2="283.900000" y2="418.000000"  style="stroke:black; stroke-linecap:round; stroke-width:0.25;"/>
<line x1="273.900000" y1="470.000000" x2="283.900000" y2="470.000000"  style="stroke:black; stroke-linecap:round; stroke-width:0.25;"/>
<line x1="276.800000" y1="66.000000" x2="286.800000" y2="66.000000"  style="stroke:black; stroke-linecap:round; stroke-width:0.25;"/>
<line x1="283.900000" y1="210.000000" x2="293.900000" y2="210.000000"  style="stroke:black; stroke-linecap:round; stroke-width:0.25;"/>
<line x1="283.900000" y1="262.000000" x2="293.900000" y2="262.000000"  style="stroke:black; stroke-linecap:round; stroke-width:0.25;"/>
<line x1="283.900000" y1="314.000000" x2="293.900000" y2="314.000000"  style="stroke:black; stroke-linecap:round; stroke-width:0.25;"/>
<line x1="283.900000" y1="366.000000" x2="293.900000" y2="366.000000"  style="stroke:black; stroke-linecap:round; stroke-width:0.25;"/>
<line x1="283.900000" y1="418.000000" x2="293.900000" y2="418.000000"  style="stroke:black; stroke-linecap:round; stroke-width:0.25;"/>
<line x1="283.900000" y1="470.000000" x2="293.900000" y2="470.000000"  style="stroke:black; stroke-linecap:round; stroke-width:0.25;"/>
<line x1="286.800000" y1="66.000000" x2="296.800000" y2="66.000000"  style="stroke:black; stroke-linecap:round; stroke-width:0.25;"/>
<line x1="293.900000" y1="138.000000" x2="306.800000" y2="138.000000"  style="stroke:black; stroke-linecap:round; stroke-width:0.25;"/>
<line x1="293.900000" y1="210.000000" x2="306.800000" y2="210.000000"  style="stroke:black; stroke-linecap:round; stroke-width:0.25;"/>
<line x1="293.900000" y1="262.000000" x2="306.800000" y2="262.000000"  style="stroke:black; stroke-linecap:round; stroke-width:0.25;"/>
<line x1="293.900000" y1="314.000000" x2="306.800000" y2="314.000000"  style="stroke:black; stroke-linecap:round; stroke-width:0.25;"/>
<line x1="293.900000" y1="366.000000" x2="306.800000" y2="366.000000"  style="stroke:black; stroke-linecap:round; stroke-width:0.25;"/>
<line x1="293.900000" y1="418.000000" x2="306.800000" y2="418.000000"  style="stroke:black; stroke-linecap:round; stroke-width:0.25;"/>
<line x1="293.900000" y1="470.000000" x2="306.800000" y2="470.000000"  style="stroke:black; stroke-linecap:round; stroke-width:0.25;"/>
<line x1="293.900000" y1="520.000000" x2="306.800000" y2="520.000000"  style="stroke:black; stroke-linecap:round; stroke-width:0.25;"/>
<line x1="293.900000" y1="528.000000" x2="306.800000" y2="528.000000"  style="stroke:black; stroke-linecap:round; stroke-width:0.25;"/>
<line x1="296.800000" y1="66.000000" x2="306.800000" y2="66.000000"  style="stroke:black; stroke-linecap:round; stroke-width:0.25;"/>
<line x1="306.800000" y1="66.000000" x2="354.800000" y2="66.000000"  style="stroke:black; stroke-linecap:round; stroke-width:0.25;"/>
<line x1="306.800000" y1="138.000000" x2="346.800000" y2="138.000000"  style="stroke:black; stroke-linecap:round; stroke-width:0.25;"/>
<line x1="306.800000" y1="210.000000" x2="338.800000" y2="210.000000"  style="stroke:black; stroke-linecap:round; stroke-width:0.25;"/>
<line x1="306.800000" y1="262.000000" x2="330.800000" y2="262.000000"  style="stroke:black; stroke-linecap:round; stroke-width:0.25;"/>
<line x1="306.800000" y1="272.000000" x2="354.800000" y2="272.000000"  style="stroke:black; stroke-linecap:round; stroke-width:0.25;"/>
<line x1="306.800000" y1="314.000000" x2="306.800000" y2="272.000000"  style="stroke:black; stroke-linecap:round; stroke-width:0.25;"/>
<line x1="306.800000" y1="314.000000" x2="306.800000" y2="314.000000"  style="stroke:black; stroke-linecap:round; stroke-width:0.25;"/>
<line x1="306.800000" y1="366.000000" x2="314.800000" y2="366.000000"  style="stroke:black; stroke-linecap:round; stroke-width:0.25;"/>
<line x1="306.800000" y1="418.000000" x2="322.800000" y2="418.000000"  style="stroke:black; stroke-linecap:round; stroke-width:0.25;"/>
<line x1="306.800000" y1="470.000000" x2="330.800000" y2="470.000000"  style="stroke:black; stroke-linecap:round; stroke-width:0.25;"/>
<line x1="306.800000" y1="520.000000" x2="338.800000" y2="520.000000"  style="stroke:black; stroke-linecap:round; stroke-width:0.25;"/>
<line x1="306.800000" y1="528.000000" x2="346.800000" y2="528.000000"  style="stroke:black; stroke-linecap:round; stroke-width:0.25;"/>
<line x1="314.800000" y1="280.000000" x2="354.800000" y2="280.000000"  style="stroke:black; stroke-linecap:round; stroke-width:0.25;"/>
<line x1="314.800000" y1="366.000000" x2="314.800000" y2="280.000000"  style="stroke:black; stroke-linecap:round; stroke-width:0.25;"/>
<line x1="322.800000" y1="288.000000" x2="354.800000" y2="288.000000"  style="stroke:black; stroke-linecap:round; stroke-width:0.25;"/>
<line x1="322.800000" y1="418.000000" x2="322.800000" y2="288.000000"  style="stroke:black; stroke-linecap:round; stroke-width:0.25;"/>
<line x1="330.800000" y1="262.000000" x2="330.800000" y2="264.000000"  style="stroke:black; stroke-linecap:round; stroke-width:0.25;"/>
<line x1="330.800000" y1="264.000000" x2="354.800000" y2="264.000000"  style="stroke:black; stroke-linecap:round; stroke-width:0.25;"/>
<line x1="330.800000" y1="296.000000" x2="354.800000" y2="296.000000"  style="stroke:black; stroke-linecap:round; stroke-width:0.25;"/>
<line x1="330.800000" y1="470.000000" x2="330.800000" y2="296.000000"  style="stroke:black; stroke-linecap:round; stroke-width:0.25;"/>
<line x1="338.800000" y1="210.000000" x2="338.800000" y2="256.000000"  style="stroke:black; stroke-linecap:round; stroke-width:0.25;"/>
<line x1="338.800000" y1="256.000000" x2="354.800000" y2="256.000000"  style="stroke:black; stroke-linecap:round; stroke-width:0.25;"/>
<line x1="338.800000" y1="304.000000" x2="354.800000" y2="304.000000"  style="stroke:black; stroke-linecap:round; stroke-width:0.25;"/>
<line x1="338.800000" y1="520.000000" x2="338.800000" y2="304.000000"  style="stroke:black; stroke-linecap:round; stroke-width:0.25;"/>
<line x1="346.800000" y1="138.000000" x2="346.800000" y2="248.000000"  style="stroke:black; stroke-linecap:round; stroke-width:0.25;"/>
<line x1="346.800000" y1="248.000000" x2="354.800000" y2="248.000000"  style="stroke:black; stroke-linecap:round; stroke-width:0.25;"/>
<line x1="346.800000" y1="312.000000" x2="354.800000" y2="312.000000"  style="stroke:black; stroke-linecap:round; stroke-width:0.25;"/>
<line x1="346.800000" y1="528.000000" x2="346.800000" y2="312.000000"  style="stroke:black; stroke-linecap:round; stroke-width:0.25;"/>
<line x1="354.800000" y1="66.000000" x2="354.800000" y2="240.000000"  style="stroke:black; stroke-linecap:round; stroke-width:0.25;"/>
<line x1="354.800000" y1="240.000000" x2="354.800000" y2="240.000000"  style="stroke:black; stroke-linecap:round; stroke-width:0.25;"/>
<line x1="354.800000" y1="240.000000" x2="358.800000" y2="240.000000"  style="stroke:black; stroke-linecap:round; stroke-width:0.25;"/>
<line x1="354.800000" y1="248.000000" x2="358.800000" y2="248.000000"  style="stroke:black; stroke-linecap:round; stroke-width:0.25;"/>
<line x1="354.800000" y1="256.000000" x2="358.800000" y2="256.000000"  style="stroke:black; stroke-linecap:round; stroke-width:0.25;"/>
<line x1="354.800000" y1="264.000000" x2="358.800000" y2="264.000000"  style="stroke:black; stroke-linecap:round; stroke-width:0.25;"/>
<line x1="354.800000" y1="272.000000" x2="358.800000" y2="272.000000"  style="stroke:black; stroke-linecap:round; stroke-width:0.25;"/>
<line x1="354.800000" y1="280.000000" x2="358.800000" y2="280.000000"  style="stroke:black; stroke-linecap:round; stroke-width:0.25;"/>
<line x1="354.800000" y1="288.000000" x2="358.800000" y2="288.000000"  style="stroke:black; stroke-linecap:round; stroke-width:0.25;"/>
<line x1="354.800000" y1="296.000000" x2="358.800000" y2="296.000000"  style="stroke:black; stroke-linecap:round; stroke-width:0.25;"/>
<line x1="354.800000" y1="304.000000" x2="358.800000" y2="304.000000"  style="stroke:black; stroke-linecap:round; stroke-width:0.25;"/>
<line x1="354.800000" y1="312.000000" x2="358.800000" y2="312.000000"  style="stroke:black; stroke-linecap:round; stroke-width:0.25;"/>
<line x1="358.800000" y1="240.000000" x2="362.800000" y2="240.000000"  style="stroke:black; stroke-linecap:round; stroke-width:0.25;"/>
<line x1="358.800000" y1="248.000000" x2="362.800000" y2="248.000000"  style="stroke:black; stroke-linecap:round; stroke-width:0.25;"/>
<line x1="358.800000" y1="256.000000" x2="362.800000" y2="256.000000"  style="stroke:black; stroke-linecap:round; stroke-width:0.25;"/>
<line x1="358.800000" y1="264.000000" x2="362.800000" y2="264.000000"  style="stroke:black; stroke-linecap:round; stroke-width:0.25;"/>
<line x1="358.800000" y1="272.000000" x2="362.800000" y2="272.000000"  style="stroke:black; stroke-linecap:round; stroke-width:0.25;"/>
<line x1="358.800000" y1="280.000000" x2="362.800000" y2="280.000000"  style="stroke:black; stroke-linecap:round; stroke-width:0.25;"/>
<line x1="358.800000" y1="288.000000" x2="362.800000" y2="288.000000"  style="stroke:black; stroke-linecap:round; stroke-width:0.25;"/>
<line x1="358.800000" y1="296.000000" x2="362.800000" y2="296.000000"  style="stroke:black; stroke-linecap:round; stroke-width:0.25;"/>
<line x1="358.800000" y1="304.000000" x2="362.800000" y2="304.000000"  style="stroke:black; stroke-linecap:round; stroke-width:0.25;"/>
<line x1="358.800000" y1="312.000000" x2="362.800000" y2="312.000000"  style="stroke:black; stroke-linecap:round; stroke-width:0.25;"/>
<line x1="362.800000" y1="240.000000" x2="372.800000" y2="240.000000"  style="stroke:black; stroke-linecap:round; stroke-width:0.25;"/>
<line x1="362.800000" y1="248.000000" x2="372.800000" y2="248.000000"  style="stroke:black; stroke-linecap:round; stroke-width:0.25;"/>
<line x1="362.800000" y1="256.000000" x2="372.800000" y2="256.000000"  style="stroke:black; stroke-linecap:round; stroke-width:0.25;"/>
<line x1="362.800000" y1="264.000000" x2="372.800000" y2="264.000000"  style="stroke:black; stroke-linecap:round; stroke-width:0.25;"/>
<line x1="362.800000" y1="272.000000" x2="372.800000" y2="272.000000"  style="stroke:black; stroke-linecap:round; stroke-width:0.25;"/>
<line x1="362.800000" y1="280.000000" x2="372.800000" y2="280.000000"  style="stroke:black; stroke-linecap:round; stroke-width:0.25;"/>
<line x1="362.800000" y1="288.000000" x2="372.800000" y2="288.000000"  style="stroke:black; stroke-linecap:round; stroke-width:0.25;"/>
<line x1="362.800000" y1="296.000000" x2="372.800000" y2="296.000000"  style="stroke:black; stroke-linecap:round; stroke-width:0.25;"/>
<line x1="362.800000" y1="304.000000" x2="372.800000" y2="304.000000"  style="stroke:black; stroke-linecap:round; stroke-width:0.25;"/>
<line x1="362.800000" y1="312.000000" x2="372.800000" y2="312.000000"  style="stroke:black; stroke-linecap:round; stroke-width:0.25;"/>
</svg>
