<?xml version="1.0"?>
<svg xmlns="http://www.w3.org/2000/svg" xmlns:xlink="http://www.w3.org/1999/xlink" viewBox="0 0 516.800000 280.000000" width="258.400000mm" height="140.000000mm" version="1.1">
<a xlink:href="Network-0x6000531c79f0.svg">
<rect x="0.000000" y="0.000000" width="515.800000" height="279.000000" rx="0" ry="0" style="stroke:#000000;fill:#FFFFFF;"/>
</a>
<text x="10.000000" y="7.000000" font-family="Verdana" font-size="7"></text>
<a xlink:href="noise-0x60000b13c000.svg">
<rect x="44.450000" y="92.000000" width="77.400000" height="48.000000" rx="0" ry="0" style="stroke:#000000;fill:#FFFFFF;"/>
</a>
<a xlink:href="noise-0x60000b13c000.svg">
<text x="83.150000" y="118.000000" font-family="Verdana" font-size="7" text-anchor="middle" fill="#000000">noise(6)(15021995)</text>
</a>
<circle cx="46.450000" cy="94.000000" r="1"/>
<a xlink:href="randomtrigger-0x60000f196b50.svg">
<rect x="153.850000" y="24.000000" width="64.500000" height="24.000000" rx="0" ry="0" style="stroke:#000000;fill:#FFFFFF;"/>
</a>
<a xlink:href="randomtrigger-0x60000f196b50.svg">
<text x="186.100000" y="38.000000" font-family="Verdana" font-size="7" text-anchor="middle" fill="#000000">randomtrigger</text>
</a>
<circle cx="155.850000" cy="26.000000" r="1"/>
<line x1="150.850000" y1="35.000000" x2="153.850000" y2="36.000000"  transform="rotate(0.000000,153.850000,36.000000)" style="stroke: black; stroke-width:0.25;"/>
<line x1="150.850000" y1="37.000000" x2="153.850000" y2="36.000000"  transform="rotate(0.000000,153.850000,36.000000)" style="stroke: black; stroke-width:0.25;"/>
<a xlink:href="randomtrigger-0x60000f196b50.svg">
<rect x="153.850000" y="56.000000" width="64.500000" height="24.000000" rx="0" ry="0" style="stroke:#000000;fill:#FFFFFF;"/>
</a>
<a xlink:href="randomtrigger-0x60000f196b50.svg">
<text x="186.100000" y="70.000000" font-family="Verdana" font-size="7" text-anchor="middle" fill="#000000">randomtrigger</text>
</a>
<circle cx="155.850000" cy="58.000000" r="1"/>
<line x1="150.850000" y1="67.000000" x2="153.850000" y2="68.000000"  transform="rotate(0.000000,153.850000,68.000000)" style="stroke: black; stroke-width:0.25;"/>
<line x1="150.850000" y1="69.000000" x2="153.850000" y2="68.000000"  transform="rotate(0.000000,153.850000,68.000000)" style="stroke: black; stroke-width:0.25;"/>
<a xlink:href="randomtrigger-0x60000f196b50.svg">
<rect x="153.850000" y="88.000000" width="64.500000" height="24.000000" rx="0" ry="0" style="stroke:#000000;fill:#FFFFFF;"/>
</a>
<a xlink:href="randomtrigger-0x60000f196b50.svg">
<text x="186.100000" y="102.000000" font-family="Verdana" font-size="7" text-anchor="middle" fill="#000000">randomtrigger</text>
</a>
<circle cx="155.850000" cy="90.000000" r="1"/>
<line x1="150.850000" y1="99.000000" x2="153.850000" y2="100.000000"  transform="rotate(0.000000,153.850000,100.000000)" style="stroke: black; stroke-width:0.25;"/>
<line x1="150.850000" y1="101.000000" x2="153.850000" y2="100.000000"  transform="rotate(0.000000,153.850000,100.000000)" style="stroke: black; stroke-width:0.25;"/>
<a xlink:href="randomtrigger-0x60000f196b50.svg">
<rect x="153.850000" y="120.000000" width="64.500000" height="24.000000" rx="0" ry="0" style="stroke:#000000;fill:#FFFFFF;"/>
</a>
<a xlink:href="randomtrigger-0x60000f196b50.svg">
<text x="186.100000" y="134.000000" font-family="Verdana" font-size="7" text-anchor="middle" fill="#000000">randomtrigger</text>
</a>
<circle cx="155.850000" cy="122.000000" r="1"/>
<line x1="150.850000" y1="131.000000" x2="153.850000" y2="132.000000"  transform="rotate(0.000000,153.850000,132.000000)" style="stroke: black; stroke-width:0.25;"/>
<line x1="150.850000" y1="133.000000" x2="153.850000" y2="132.000000"  transform="rotate(0.000000,153.850000,132.000000)" style="stroke: black; stroke-width:0.25;"/>
<a xlink:href="randomtrigger-0x60000f196b50.svg">
<rect x="153.850000" y="152.000000" width="64.500000" height="24.000000" rx="0" ry="0" style="stroke:#000000;fill:#FFFFFF;"/>
</a>
<a xlink:href="randomtrigger-0x60000f196b50.svg">
<text x="186.100000" y="166.000000" font-family="Verdana" font-size="7" text-anchor="middle" fill="#000000">randomtrigger</text>
</a>
<circle cx="155.850000" cy="154.000000" r="1"/>
<line x1="150.850000" y1="163.000000" x2="153.850000" y2="164.000000"  transform="rotate(0.000000,153.850000,164.000000)" style="stroke: black; stroke-width:0.25;"/>
<line x1="150.850000" y1="165.000000" x2="153.850000" y2="164.000000"  transform="rotate(0.000000,153.850000,164.000000)" style="stroke: black; stroke-width:0.25;"/>
<a xlink:href="randomtrigger-0x60000f196b50.svg">
<rect x="153.850000" y="184.000000" width="64.500000" height="24.000000" rx="0" ry="0" style="stroke:#000000;fill:#FFFFFF;"/>
</a>
<a xlink:href="randomtrigger-0x60000f196b50.svg">
<text x="186.100000" y="198.000000" font-family="Verdana" font-size="7" text-anchor="middle" fill="#000000">randomtrigger</text>
</a>
<circle cx="155.850000" cy="186.000000" r="1"/>
<line x1="150.850000" y1="195.000000" x2="153.850000" y2="196.000000"  transform="rotate(0.000000,153.850000,196.000000)" style="stroke: black; stroke-width:0.25;"/>
<line x1="150.850000" y1="197.000000" x2="153.850000" y2="196.000000"  transform="rotate(0.000000,153.850000,196.000000)" style="stroke: black; stroke-width:0.25;"/>
<a xlink:href="LookaheadNormali-0x60000f1972a0.svg">
<rect x="40.000000" y="224.000000" width="154.800000" height="24.000000" rx="0" ry="0" style="stroke:#000000;fill:#FFFFFF;"/>
</a>
<a xlink:href="LookaheadNormali-0x60000f1972a0.svg">
<text x="117.400000" y="238.000000" font-family="Verdana" font-size="7" text-anchor="middle" fill="#000000">LookaheadNormalizer(1.0f)(0.1f)(10)</text>
</a>
<circle cx="42.000000" cy="226.000000" r="1"/>
<line x1="37.000000" y1="235.000000" x2="40.000000" y2="236.000000"  transform="rotate(0.000000,40.000000,236.000000)" style="stroke: black; stroke-width:0.25;"/>
<line x1="37.000000" y1="237.000000" x2="40.000000" y2="236.000000"  transform="rotate(0.000000,40.000000,236.000000)" style="stroke: black; stroke-width:0.25;"/>
<a xlink:href="sah-0x60000f19afd0.svg">
<rect x="436.800000" y="48.000000" width="24.000000" height="24.000000" rx="0" ry="0" style="stroke:#000000;fill:#FFFFFF;"/>
</a>
<a xlink:href="sah-0x60000f19afd0.svg">
<text x="448.800000" y="62.000000" font-family="Verdana" font-size="7" text-anchor="middle" fill="#000000">sah</text>
</a>
<circle cx="438.800000" cy="50.000000" r="1"/>
<line x1="433.800000" y1="55.000000" x2="436.800000" y2="56.000000"  transform="rotate(0.000000,436.800000,56.000000)" style="stroke: black; stroke-width:0.25;"/>
<line x1="433.800000" y1="57.000000" x2="436.800000" y2="56.000000"  transform="rotate(0.000000,436.800000,56.000000)" style="stroke: black; stroke-width:0.25;"/>
<line x1="433.800000" y1="63.000000" x2="436.800000" y2="64.000000"  transform="rotate(0.000000,436.800000,64.000000)" style="stroke: black; stroke-width:0.25;"/>
<line x1="433.800000" y1="65.000000" x2="436.800000" y2="64.000000"  transform="rotate(0.000000,436.800000,64.000000)" style="stroke: black; stroke-width:0.25;"/>
<a xlink:href="sah-0x60000f19afd0.svg">
<rect x="436.800000" y="80.000000" width="24.000000" height="24.000000" rx="0" ry="0" style="stroke:#000000;fill:#FFFFFF;"/>
</a>
<a xlink:href="sah-0x60000f19afd0.svg">
<text x="448.800000" y="94.000000" font-family="Verdana" font-size="7" text-anchor="middle" fill="#000000">sah</text>
</a>
<circle cx="438.800000" cy="82.000000" r="1"/>
<line x1="433.800000" y1="87.000000" x2="436.800000" y2="88.000000"  transform="rotate(0.000000,436.800000,88.000000)" style="stroke: black; stroke-width:0.25;"/>
<line x1="433.800000" y1="89.000000" x2="436.800000" y2="88.000000"  transform="rotate(0.000000,436.800000,88.000000)" style="stroke: black; stroke-width:0.25;"/>
<line x1="433.800000" y1="95.000000" x2="436.800000" y2="96.000000"  transform="rotate(0.000000,436.800000,96.000000)" style="stroke: black; stroke-width:0.25;"/>
<line x1="433.800000" y1="97.000000" x2="436.800000" y2="96.000000"  transform="rotate(0.000000,436.800000,96.000000)" style="stroke: black; stroke-width:0.25;"/>
<a xlink:href="sah-0x60000f19afd0.svg">
<rect x="436.800000" y="112.000000" width="24.000000" height="24.000000" rx="0" ry="0" style="stroke:#000000;fill:#FFFFFF;"/>
</a>
<a xlink:href="sah-0x60000f19afd0.svg">
<text x="448.800000" y="126.000000" font-family="Verdana" font-size="7" text-anchor="middle" fill="#000000">sah</text>
</a>
<circle cx="438.800000" cy="114.000000" r="1"/>
<line x1="433.800000" y1="119.000000" x2="436.800000" y2="120.000000"  transform="rotate(0.000000,436.800000,120.000000)" style="stroke: black; stroke-width:0.25;"/>
<line x1="433.800000" y1="121.000000" x2="436.800000" y2="120.000000"  transform="rotate(0.000000,436.800000,120.000000)" style="stroke: black; stroke-width:0.25;"/>
<line x1="433.800000" y1="127.000000" x2="436.800000" y2="128.000000"  transform="rotate(0.000000,436.800000,128.000000)" style="stroke: black; stroke-width:0.25;"/>
<line x1="433.800000" y1="129.000000" x2="436.800000" y2="128.000000"  transform="rotate(0.000000,436.800000,128.000000)" style="stroke: black; stroke-width:0.25;"/>
<a xlink:href="sah-0x60000f19afd0.svg">
<rect x="436.800000" y="144.000000" width="24.000000" height="24.000000" rx="0" ry="0" style="stroke:#000000;fill:#FFFFFF;"/>
</a>
<a xlink:href="sah-0x60000f19afd0.svg">
<text x="448.800000" y="158.000000" font-family="Verdana" font-size="7" text-anchor="middle" fill="#000000">sah</text>
</a>
<circle cx="438.800000" cy="146.000000" r="1"/>
<line x1="433.800000" y1="151.000000" x2="436.800000" y2="152.000000"  transform="rotate(0.000000,436.800000,152.000000)" style="stroke: black; stroke-width:0.25;"/>
<line x1="433.800000" y1="153.000000" x2="436.800000" y2="152.000000"  transform="rotate(0.000000,436.800000,152.000000)" style="stroke: black; stroke-width:0.25;"/>
<line x1="433.800000" y1="159.000000" x2="436.800000" y2="160.000000"  transform="rotate(0.000000,436.800000,160.000000)" style="stroke: black; stroke-width:0.25;"/>
<line x1="433.800000" y1="161.000000" x2="436.800000" y2="160.000000"  transform="rotate(0.000000,436.800000,160.000000)" style="stroke: black; stroke-width:0.25;"/>
<a xlink:href="sah-0x60000f19afd0.svg">
<rect x="436.800000" y="176.000000" width="24.000000" height="24.000000" rx="0" ry="0" style="stroke:#000000;fill:#FFFFFF;"/>
</a>
<a xlink:href="sah-0x60000f19afd0.svg">
<text x="448.800000" y="190.000000" font-family="Verdana" font-size="7" text-anchor="middle" fill="#000000">sah</text>
</a>
<circle cx="438.800000" cy="178.000000" r="1"/>
<line x1="433.800000" y1="183.000000" x2="436.800000" y2="184.000000"  transform="rotate(0.000000,436.800000,184.000000)" style="stroke: black; stroke-width:0.25;"/>
<line x1="433.800000" y1="185.000000" x2="436.800000" y2="184.000000"  transform="rotate(0.000000,436.800000,184.000000)" style="stroke: black; stroke-width:0.25;"/>
<line x1="433.800000" y1="191.000000" x2="436.800000" y2="192.000000"  transform="rotate(0.000000,436.800000,192.000000)" style="stroke: black; stroke-width:0.25;"/>
<line x1="433.800000" y1="193.000000" x2="436.800000" y2="192.000000"  transform="rotate(0.000000,436.800000,192.000000)" style="stroke: black; stroke-width:0.25;"/>
<a xlink:href="sah-0x60000f19afd0.svg">
<rect x="436.800000" y="208.000000" width="24.000000" height="24.000000" rx="0" ry="0" style="stroke:#000000;fill:#FFFFFF;"/>
</a>
<a xlink:href="sah-0x60000f19afd0.svg">
<text x="448.800000" y="222.000000" font-family="Verdana" font-size="7" text-anchor="middle" fill="#000000">sah</text>
</a>
<circle cx="438.800000" cy="210.000000" r="1"/>
<line x1="433.800000" y1="215.000000" x2="436.800000" y2="216.000000"  transform="rotate(0.000000,436.800000,216.000000)" style="stroke: black; stroke-width:0.25;"/>
<line x1="433.800000" y1="217.000000" x2="436.800000" y2="216.000000"  transform="rotate(0.000000,436.800000,216.000000)" style="stroke: black; stroke-width:0.25;"/>
<line x1="433.800000" y1="223.000000" x2="436.800000" y2="224.000000"  transform="rotate(0.000000,436.800000,224.000000)" style="stroke: black; stroke-width:0.25;"/>
<line x1="433.800000" y1="225.000000" x2="436.800000" y2="224.000000"  transform="rotate(0.000000,436.800000,224.000000)" style="stroke: black; stroke-width:0.25;"/>
<line x1="15.000000" y1="15.000000" x2="15.000000" y2="265.000000"  style="stroke: black; stroke-linecap:round; stroke-width:0.25; stroke-dasharray:3,3;"/>
<line x1="15.000000" y1="265.000000" x2="501.800000" y2="265.000000"  style="stroke: black; stroke-linecap:round; stroke-width:0.25; stroke-dasharray:3,3;"/>
<line x1="501.800000" y1="265.000000" x2="501.800000" y2="15.000000"  style="stroke: black; stroke-linecap:round; stroke-width:0.25; stroke-dasharray:3,3;"/>
<line x1="15.000000" y1="15.000000" x2="20.000000" y2="15.000000"  style="stroke: black; stroke-linecap:round; stroke-width:0.25; stroke-dasharray:3,3;"/>
<line x1="155.450000" y1="15.000000" x2="501.800000" y2="15.000000"  style="stroke: black; stroke-linecap:round; stroke-width:0.25; stroke-dasharray:3,3;"/>
<text x="20.000000" y="17.000000" font-family="Verdana" font-size="7">ControlSignalPath(6)(15021995)(x21)(x22)</text>
<line x1="503.800000" y1="119.000000" x2="506.800000" y2="120.000000"  transform="rotate(0.000000,506.800000,120.000000)" style="stroke: black; stroke-width:0.25;"/>
<line x1="503.800000" y1="121.000000" x2="506.800000" y2="120.000000"  transform="rotate(0.000000,506.800000,120.000000)" style="stroke: black; stroke-width:0.25;"/>
<line x1="503.800000" y1="127.000000" x2="506.800000" y2="128.000000"  transform="rotate(0.000000,506.800000,128.000000)" style="stroke: black; stroke-width:0.25;"/>
<line x1="503.800000" y1="129.000000" x2="506.800000" y2="128.000000"  transform="rotate(0.000000,506.800000,128.000000)" style="stroke: black; stroke-width:0.25;"/>
<line x1="503.800000" y1="135.000000" x2="506.800000" y2="136.000000"  transform="rotate(0.000000,506.800000,136.000000)" style="stroke: black; stroke-width:0.25;"/>
<line x1="503.800000" y1="137.000000" x2="506.800000" y2="136.000000"  transform="rotate(0.000000,506.800000,136.000000)" style="stroke: black; stroke-width:0.25;"/>
<line x1="503.800000" y1="143.000000" x2="506.800000" y2="144.000000"  transform="rotate(0.000000,506.800000,144.000000)" style="stroke: black; stroke-width:0.25;"/>
<line x1="503.800000" y1="145.000000" x2="506.800000" y2="144.000000"  transform="rotate(0.000000,506.800000,144.000000)" style="stroke: black; stroke-width:0.25;"/>
<line x1="503.800000" y1="151.000000" x2="506.800000" y2="152.000000"  transform="rotate(0.000000,506.800000,152.000000)" style="stroke: black; stroke-width:0.25;"/>
<line x1="503.800000" y1="153.000000" x2="506.800000" y2="152.000000"  transform="rotate(0.000000,506.800000,152.000000)" style="stroke: black; stroke-width:0.25;"/>
<line x1="503.800000" y1="159.000000" x2="506.800000" y2="160.000000"  transform="rotate(0.000000,506.800000,160.000000)" style="stroke: black; stroke-width:0.25;"/>
<line x1="503.800000" y1="161.000000" x2="506.800000" y2="160.000000"  transform="rotate(0.000000,506.800000,160.000000)" style="stroke: black; stroke-width:0.25;"/>
<line x1="10.000000" y1="140.000000" x2="20.000000" y2="140.000000"  style="stroke:black; stroke-linecap:round; stroke-width:0.25;"/>
<line x1="20.000000" y1="140.000000" x2="24.000000" y2="140.000000"  style="stroke:black; stroke-linecap:round; stroke-width:0.25;"/>
<line x1="24.000000" y1="140.000000" x2="28.000000" y2="140.000000"  style="stroke:black; stroke-linecap:round; stroke-width:0.25;"/>
<line x1="28.000000" y1="140.000000" x2="36.000000" y2="140.000000"  style="stroke:black; stroke-linecap:round; stroke-width:0.25;"/>
<line x1="36.000000" y1="140.000000" x2="36.000000" y2="236.000000"  style="stroke:black; stroke-linecap:round; stroke-width:0.25;"/>
<line x1="36.000000" y1="236.000000" x2="36.000000" y2="236.000000"  style="stroke:black; stroke-linecap:round; stroke-width:0.25;"/>
<line x1="36.000000" y1="236.000000" x2="40.000000" y2="236.000000"  style="stroke:black; stroke-linecap:round; stroke-width:0.25;"/>
<line x1="121.850000" y1="96.000000" x2="125.850000" y2="96.000000"  style="stroke:black; stroke-linecap:round; stroke-width:0.25;"/>
<line x1="121.850000" y1="104.000000" x2="125.850000" y2="104.000000"  style="stroke:black; stroke-linecap:round; stroke-width:0.25;"/>
<line x1="121.850000" y1="112.000000" x2="125.850000" y2="112.000000"  style="stroke:black; stroke-linecap:round; stroke-width:0.25;"/>
<line x1="121.850000" y1="120.000000" x2="125.850000" y2="120.000000"  style="stroke:black; stroke-linecap:round; stroke-width:0.25;"/>
<line x1="121.850000" y1="128.000000" x2="125.850000" y2="128.000000"  style="stroke:black; stroke-linecap:round; stroke-width:0.25;"/>
<line x1="121.850000" y1="136.000000" x2="125.850000" y2="136.000000"  style="stroke:black; stroke-linecap:round; stroke-width:0.25;"/>
<line x1="125.850000" y1="36.000000" x2="149.850000" y2="36.000000"  style="stroke:black; stroke-linecap:round; stroke-width:0.25;"/>
<line x1="125.850000" y1="96.000000" x2="125.850000" y2="36.000000"  style="stroke:black; stroke-linecap:round; stroke-width:0.25;"/>
<line x1="125.850000" y1="96.000000" x2="125.850000" y2="96.000000"  style="stroke:black; stroke-linecap:round; stroke-width:0.25;"/>
<line x1="125.850000" y1="104.000000" x2="133.850000" y2="104.000000"  style="stroke:black; stroke-linecap:round; stroke-width:0.25;"/>
<line x1="125.850000" y1="112.000000" x2="141.850000" y2="112.000000"  style="stroke:black; stroke-linecap:round; stroke-width:0.25;"/>
<line x1="125.850000" y1="120.000000" x2="149.850000" y2="120.000000"  style="stroke:black; stroke-linecap:round; stroke-width:0.25;"/>
<line x1="125.850000" y1="128.000000" x2="141.850000" y2="128.000000"  style="stroke:black; stroke-linecap:round; stroke-width:0.25;"/>
<line x1="125.850000" y1="136.000000" x2="133.850000" y2="136.000000"  style="stroke:black; stroke-linecap:round; stroke-width:0.25;"/>
<line x1="133.850000" y1="68.000000" x2="149.850000" y2="68.000000"  style="stroke:black; stroke-linecap:round; stroke-width:0.25;"/>
<line x1="133.850000" y1="104.000000" x2="133.850000" y2="68.000000"  style="stroke:black; stroke-linecap:round; stroke-width:0.25;"/>
<line x1="133.850000" y1="136.000000" x2="133.850000" y2="196.000000"  style="stroke:black; stroke-linecap:round; stroke-width:0.25;"/>
<line x1="133.850000" y1="196.000000" x2="149.850000" y2="196.000000"  style="stroke:black; stroke-linecap:round; stroke-width:0.25;"/>
<line x1="141.850000" y1="100.000000" x2="149.850000" y2="100.000000"  style="stroke:black; stroke-linecap:round; stroke-width:0.25;"/>
<line x1="141.850000" y1="112.000000" x2="141.850000" y2="100.000000"  style="stroke:black; stroke-linecap:round; stroke-width:0.25;"/>
<line x1="141.850000" y1="128.000000" x2="141.850000" y2="164.000000"  style="stroke:black; stroke-linecap:round; stroke-width:0.25;"/>
<line x1="141.850000" y1="164.000000" x2="149.850000" y2="164.000000"  style="stroke:black; stroke-linecap:round; stroke-width:0.25;"/>
<line x1="149.850000" y1="36.000000" x2="153.850000" y2="36.000000"  style="stroke:black; stroke-linecap:round; stroke-width:0.25;"/>
<line x1="149.850000" y1="68.000000" x2="153.850000" y2="68.000000"  style="stroke:black; stroke-linecap:round; stroke-width:0.25;"/>
<line x1="149.850000" y1="100.000000" x2="153.850000" y2="100.000000"  style="stroke:black; stroke-linecap:round; stroke-width:0.25;"/>
<line x1="149.850000" y1="120.000000" x2="149.850000" y2="132.000000"  style="stroke:black; stroke-linecap:round; stroke-width:0.25;"/>
<line x1="149.850000" y1="132.000000" x2="149.850000" y2="132.000000"  style="stroke:black; stroke-linecap:round; stroke-width:0.25;"/>
<line x1="149.850000" y1="132.000000" x2="153.850000" y2="132.000000"  style="stroke:black; stroke-linecap:round; stroke-width:0.25;"/>
<line x1="149.850000" y1="164.000000" x2="153.850000" y2="164.000000"  style="stroke:black; stroke-linecap:round; stroke-width:0.25;"/>
<line x1="149.850000" y1="196.000000" x2="153.850000" y2="196.000000"  style="stroke:black; stroke-linecap:round; stroke-width:0.25;"/>
<line x1="194.800000" y1="236.000000" x2="198.800000" y2="236.000000"  style="stroke:black; stroke-linecap:round; stroke-width:0.25;"/>
<line x1="198.800000" y1="236.000000" x2="218.800000" y2="216.000000"  style="stroke:black; stroke-linecap:round; stroke-width:0.25;"/>
<line x1="198.800000" y1="236.000000" x2="218.800000" y2="224.000000"  style="stroke:black; stroke-linecap:round; stroke-width:0.25;"/>
<line x1="198.800000" y1="236.000000" x2="218.800000" y2="232.000000"  style="stroke:black; stroke-linecap:round; stroke-width:0.25;"/>
<line x1="198.800000" y1="236.000000" x2="218.800000" y2="240.000000"  style="stroke:black; stroke-linecap:round; stroke-width:0.25;"/>
<line x1="198.800000" y1="236.000000" x2="218.800000" y2="248.000000"  style="stroke:black; stroke-linecap:round; stroke-width:0.25;"/>
<line x1="198.800000" y1="236.000000" x2="218.800000" y2="256.000000"  style="stroke:black; stroke-linecap:round; stroke-width:0.25;"/>
<line x1="218.350000" y1="36.000000" x2="222.350000" y2="36.000000"  style="stroke:black; stroke-linecap:round; stroke-width:0.25;"/>
<line x1="218.350000" y1="68.000000" x2="222.350000" y2="68.000000"  style="stroke:black; stroke-linecap:round; stroke-width:0.25;"/>
<line x1="218.350000" y1="100.000000" x2="222.350000" y2="100.000000"  style="stroke:black; stroke-linecap:round; stroke-width:0.25;"/>
<line x1="218.350000" y1="132.000000" x2="222.350000" y2="132.000000"  style="stroke:black; stroke-linecap:round; stroke-width:0.25;"/>
<line x1="218.350000" y1="164.000000" x2="222.350000" y2="164.000000"  style="stroke:black; stroke-linecap:round; stroke-width:0.25;"/>
<line x1="218.350000" y1="196.000000" x2="222.350000" y2="196.000000"  style="stroke:black; stroke-linecap:round; stroke-width:0.25;"/>
<line x1="218.800000" y1="216.000000" x2="222.800000" y2="216.000000"  style="stroke:black; stroke-linecap:round; stroke-width:0.25;"/>
<line x1="218.800000" y1="224.000000" x2="222.800000" y2="224.000000"  style="stroke:black; stroke-linecap:round; stroke-width:0.25;"/>
<line x1="218.800000" y1="232.000000" x2="222.800000" y2="232.000000"  style="stroke:black; stroke-linecap:round; stroke-width:0.25;"/>
<line x1="218.800000" y1="240.000000" x2="222.800000" y2="240.000000"  style="stroke:black; stroke-linecap:round; stroke-width:0.25;"/>
<line x1="218.800000" y1="248.000000" x2="222.800000" y2="248.000000"  style="stroke:black; stroke-linecap:round; stroke-width:0.25;"/>
<line x1="218.800000" y1="256.000000" x2="222.800000" y2="256.000000"  style="stroke:black; stroke-linecap:round; stroke-width:0.25;"/>
<line x1="222.350000" y1="36.000000" x2="226.800000" y2="36.000000"  style="stroke:black; stroke-linecap:round; stroke-width:0.25;"/>
<line x1="222.350000" y1="68.000000" x2="226.800000" y2="68.000000"  style="stroke:black; stroke-linecap:round; stroke-width:0.25;"/>
<line x1="222.350000" y1="100.000000" x2="226.800000" y2="100.000000"  style="stroke:black; stroke-linecap:round; stroke-width:0.25;"/>
<line x1="222.350000" y1="132.000000" x2="226.800000" y2="132.000000"  style="stroke:black; stroke-linecap:round; stroke-width:0.25;"/>
<line x1="222.350000" y1="164.000000" x2="226.800000" y2="164.000000"  style="stroke:black; stroke-linecap:round; stroke-width:0.25;"/>
<line x1="222.350000" y1="196.000000" x2="226.800000" y2="196.000000"  style="stroke:black; stroke-linecap:round; stroke-width:0.25;"/>
<line x1="222.800000" y1="216.000000" x2="226.800000" y2="216.000000"  style="stroke:black; stroke-linecap:round; stroke-width:0.25;"/>
<line x1="222.800000" y1="224.000000" x2="226.800000" y2="224.000000"  style="stroke:black; stroke-linecap:round; stroke-width:0.25;"/>
<line x1="222.800000" y1="232.000000" x2="226.800000" y2="232.000000"  style="stroke:black; stroke-linecap:round; stroke-width:0.25;"/>
<line x1="222.800000" y1="240.000000" x2="226.800000" y2="240.000000"  style="stroke:black; stroke-linecap:round; stroke-width:0.25;"/>
<line x1="222.800000" y1="248.000000" x2="226.800000" y2="248.000000"  style="stroke:black; stroke-linecap:round; stroke-width:0.25;"/>
<line x1="222.800000" y1="256.000000" x2="226.800000" y2="256.000000"  style="stroke:black; stroke-linecap:round; stroke-width:0.25;"/>
<line x1="226.800000" y1="216.000000" x2="250.800000" y2="216.000000"  style="stroke:black; stroke-linecap:round; stroke-width:0.25;"/>
<line x1="226.800000" y1="224.000000" x2="258.800000" y2="224.000000"  style="stroke:black; stroke-linecap:round; stroke-width:0.25;"/>
<line x1="226.800000" y1="232.000000" x2="266.800000" y2="232.000000"  style="stroke:black; stroke-linecap:round; stroke-width:0.25;"/>
<line x1="226.800000" y1="240.000000" x2="274.800000" y2="240.000000"  style="stroke:black; stroke-linecap:round; stroke-width:0.25;"/>
<line x1="226.800000" y1="248.000000" x2="282.800000" y2="248.000000"  style="stroke:black; stroke-linecap:round; stroke-width:0.25;"/>
<line x1="226.800000" y1="256.000000" x2="290.800000" y2="256.000000"  style="stroke:black; stroke-linecap:round; stroke-width:0.25;"/>
<line x1="226.800000" y1="36.000000" x2="298.800000" y2="36.000000"  style="stroke:black; stroke-linecap:round; stroke-width:0.25;"/>
<line x1="226.800000" y1="68.000000" x2="290.800000" y2="68.000000"  style="stroke:black; stroke-linecap:round; stroke-width:0.25;"/>
<line x1="226.800000" y1="100.000000" x2="282.800000" y2="100.000000"  style="stroke:black; stroke-linecap:round; stroke-width:0.25;"/>
<line x1="226.800000" y1="120.000000" x2="298.800000" y2="120.000000"  style="stroke:black; stroke-linecap:round; stroke-width:0.25;"/>
<line x1="226.800000" y1="132.000000" x2="226.800000" y2="120.000000"  style="stroke:black; stroke-linecap:round; stroke-width:0.25;"/>
<line x1="226.800000" y1="132.000000" x2="226.800000" y2="132.000000"  style="stroke:black; stroke-linecap:round; stroke-width:0.25;"/>
<line x1="226.800000" y1="164.000000" x2="234.800000" y2="164.000000"  style="stroke:black; stroke-linecap:round; stroke-width:0.25;"/>
<line x1="226.800000" y1="196.000000" x2="242.800000" y2="196.000000"  style="stroke:black; stroke-linecap:round; stroke-width:0.25;"/>
<line x1="234.800000" y1="128.000000" x2="298.800000" y2="128.000000"  style="stroke:black; stroke-linecap:round; stroke-width:0.25;"/>
<line x1="234.800000" y1="164.000000" x2="234.800000" y2="128.000000"  style="stroke:black; stroke-linecap:round; stroke-width:0.25;"/>
<line x1="242.800000" y1="136.000000" x2="298.800000" y2="136.000000"  style="stroke:black; stroke-linecap:round; stroke-width:0.25;"/>
<line x1="242.800000" y1="196.000000" x2="242.800000" y2="136.000000"  style="stroke:black; stroke-linecap:round; stroke-width:0.25;"/>
<line x1="250.800000" y1="144.000000" x2="298.800000" y2="144.000000"  style="stroke:black; stroke-linecap:round; stroke-width:0.25;"/>
<line x1="250.800000" y1="216.000000" x2="250.800000" y2="144.000000"  style="stroke:black; stroke-linecap:round; stroke-width:0.25;"/>
<line x1="258.800000" y1="152.000000" x2="298.800000" y2="152.000000"  style="stroke:black; stroke-linecap:round; stroke-width:0.25;"/>
<line x1="258.800000" y1="224.000000" x2="258.800000" y2="152.000000"  style="stroke:black; stroke-linecap:round; stroke-width:0.25;"/>
<line x1="266.800000" y1="160.000000" x2="298.800000" y2="160.000000"  style="stroke:black; stroke-linecap:round; stroke-width:0.25;"/>
<line x1="266.800000" y1="232.000000" x2="266.800000" y2="160.000000"  style="stroke:black; stroke-linecap:round; stroke-width:0.25;"/>
<line x1="274.800000" y1="168.000000" x2="298.800000" y2="168.000000"  style="stroke:black; stroke-linecap:round; stroke-width:0.25;"/>
<line x1="274.800000" y1="240.000000" x2="274.800000" y2="168.000000"  style="stroke:black; stroke-linecap:round; stroke-width:0.25;"/>
<line x1="282.800000" y1="176.000000" x2="298.800000" y2="176.000000"  style="stroke:black; stroke-linecap:round; stroke-width:0.25;"/>
<line x1="282.800000" y1="248.000000" x2="282.800000" y2="176.000000"  style="stroke:black; stroke-linecap:round; stroke-width:0.25;"/>
<line x1="282.800000" y1="100.000000" x2="282.800000" y2="112.000000"  style="stroke:black; stroke-linecap:round; stroke-width:0.25;"/>
<line x1="282.800000" y1="112.000000" x2="298.800000" y2="112.000000"  style="stroke:black; stroke-linecap:round; stroke-width:0.25;"/>
<line x1="290.800000" y1="184.000000" x2="298.800000" y2="184.000000"  style="stroke:black; stroke-linecap:round; stroke-width:0.25;"/>
<line x1="290.800000" y1="256.000000" x2="290.800000" y2="184.000000"  style="stroke:black; stroke-linecap:round; stroke-width:0.25;"/>
<line x1="290.800000" y1="68.000000" x2="290.800000" y2="104.000000"  style="stroke:black; stroke-linecap:round; stroke-width:0.25;"/>
<line x1="290.800000" y1="104.000000" x2="298.800000" y2="104.000000"  style="stroke:black; stroke-linecap:round; stroke-width:0.25;"/>
<line x1="298.800000" y1="96.000000" x2="302.800000" y2="96.000000"  style="stroke:black; stroke-linecap:round; stroke-width:0.25;"/>
<line x1="298.800000" y1="104.000000" x2="302.800000" y2="104.000000"  style="stroke:black; stroke-linecap:round; stroke-width:0.25;"/>
<line x1="298.800000" y1="112.000000" x2="302.800000" y2="112.000000"  style="stroke:black; stroke-linecap:round; stroke-width:0.25;"/>
<line x1="298.800000" y1="120.000000" x2="302.800000" y2="120.000000"  style="stroke:black; stroke-linecap:round; stroke-width:0.25;"/>
<line x1="298.800000" y1="128.000000" x2="302.800000" y2="128.000000"  style="stroke:black; stroke-linecap:round; stroke-width:0.25;"/>
<line x1="298.800000" y1="136.000000" x2="302.800000" y2="136.000000"  style="stroke:black; stroke-linecap:round; stroke-width:0.25;"/>
<line x1="298.800000" y1="144.000000" x2="302.800000" y2="144.000000"  style="stroke:black; stroke-linecap:round; stroke-width:0.25;"/>
<line x1="298.800000" y1="152.000000" x2="302.800000" y2="152.000000"  style="stroke:black; stroke-linecap:round; stroke-width:0.25;"/>
<line x1="298.800000" y1="160.000000" x2="302.800000" y2="160.000000"  style="stroke:black; stroke-linecap:round; stroke-width:0.25;"/>
<line x1="298.800000" y1="168.000000" x2="302.800000" y2="168.000000"  style="stroke:black; stroke-linecap:round; stroke-width:0.25;"/>
<line x1="298.800000" y1="176.000000" x2="302.800000" y2="176.000000"  style="stroke:black; stroke-linecap:round; stroke-width:0.25;"/>
<line x1="298.800000" y1="184.000000" x2="302.800000" y2="184.000000"  style="stroke:black; stroke-linecap:round; stroke-width:0.25;"/>
<line x1="298.800000" y1="36.000000" x2="298.800000" y2="96.000000"  style="stroke:black; stroke-linecap:round; stroke-width:0.25;"/>
<line x1="298.800000" y1="96.000000" x2="298.800000" y2="96.000000"  style="stroke:black; stroke-linecap:round; stroke-width:0.25;"/>
<line x1="302.800000" y1="96.000000" x2="380.800000" y2="96.000000"  style="stroke:black; stroke-linecap:round; stroke-width:0.25;"/>
<line x1="302.800000" y1="104.000000" x2="380.800000" y2="112.000000"  style="stroke:black; stroke-linecap:round; stroke-width:0.25;"/>
<line x1="302.800000" y1="112.000000" x2="380.800000" y2="128.000000"  style="stroke:black; stroke-linecap:round; stroke-width:0.25;"/>
<line x1="302.800000" y1="120.000000" x2="380.800000" y2="144.000000"  style="stroke:black; stroke-linecap:round; stroke-width:0.25;"/>
<line x1="302.800000" y1="128.000000" x2="380.800000" y2="160.000000"  style="stroke:black; stroke-linecap:round; stroke-width:0.25;"/>
<line x1="302.800000" y1="136.000000" x2="380.800000" y2="176.000000"  style="stroke:black; stroke-linecap:round; stroke-width:0.25;"/>
<line x1="302.800000" y1="144.000000" x2="380.800000" y2="104.000000"  style="stroke:black; stroke-linecap:round; stroke-width:0.25;"/>
<line x1="302.800000" y1="152.000000" x2="380.800000" y2="120.000000"  style="stroke:black; stroke-linecap:round; stroke-width:0.25;"/>
<line x1="302.800000" y1="160.000000" x2="380.800000" y2="136.000000"  style="stroke:black; stroke-linecap:round; stroke-width:0.25;"/>
<line x1="302.800000" y1="168.000000" x2="380.800000" y2="152.000000"  style="stroke:black; stroke-linecap:round; stroke-width:0.25;"/>
<line x1="302.800000" y1="176.000000" x2="380.800000" y2="168.000000"  style="stroke:black; stroke-linecap:round; stroke-width:0.25;"/>
<line x1="302.800000" y1="184.000000" x2="380.800000" y2="184.000000"  style="stroke:black; stroke-linecap:round; stroke-width:0.25;"/>
<line x1="380.800000" y1="96.000000" x2="384.800000" y2="96.000000"  style="stroke:black; stroke-linecap:round; stroke-width:0.25;"/>
<line x1="380.800000" y1="104.000000" x2="384.800000" y2="104.000000"  style="stroke:black; stroke-linecap:round; stroke-width:0.25;"/>
<line x1="380.800000" y1="112.000000" x2="384.800000" y2="112.000000"  style="stroke:black; stroke-linecap:round; stroke-width:0.25;"/>
<line x1="380.800000" y1="120.000000" x2="384.800000" y2="120.000000"  style="stroke:black; stroke-linecap:round; stroke-width:0.25;"/>
<line x1="380.800000" y1="128.000000" x2="384.800000" y2="128.000000"  style="stroke:black; stroke-linecap:round; stroke-width:0.25;"/>
<line x1="380.800000" y1="136.000000" x2="384.800000" y2="136.000000"  style="stroke:black; stroke-linecap:round; stroke-width:0.25;"/>
<line x1="380.800000" y1="144.000000" x2="384.800000" y2="144.000000"  style="stroke:black; stroke-linecap:round; stroke-width:0.25;"/>
<line x1="380.800000" y1="152.000000" x2="384.800000" y2="152.000000"  style="stroke:black; stroke-linecap:round; stroke-width:0.25;"/>
<line x1="380.800000" y1="160.000000" x2="384.800000" y2="160.000000"  style="stroke:black; stroke-linecap:round; stroke-width:0.25;"/>
<line x1="380.800000" y1="168.000000" x2="384.800000" y2="168.000000"  style="stroke:black; stroke-linecap:round; stroke-width:0.25;"/>
<line x1="380.800000" y1="176.000000" x2="384.800000" y2="176.000000"  style="stroke:black; stroke-linecap:round; stroke-width:0.25;"/>
<line x1="380.800000" y1="184.000000" x2="384.800000" y2="184.000000"  style="stroke:black; stroke-linecap:round; stroke-width:0.25;"/>
<line x1="384.800000" y1="56.000000" x2="432.800000" y2="56.000000"  style="stroke:black; stroke-linecap:round; stroke-width:0.25;"/>
<line x1="384.800000" y1="96.000000" x2="384.800000" y2="56.000000"  style="stroke:black; stroke-linecap:round; stroke-width:0.25;"/>
<line x1="384.800000" y1="96.000000" x2="384.800000" y2="96.000000"  style="stroke:black; stroke-linecap:round; stroke-width:0.25;"/>
<line x1="384.800000" y1="104.000000" x2="392.800000" y2="104.000000"  style="stroke:black; stroke-linecap:round; stroke-width:0.25;"/>
<line x1="384.800000" y1="112.000000" x2="400.800000" y2="112.000000"  style="stroke:black; stroke-linecap:round; stroke-width:0.25;"/>
<line x1="384.800000" y1="120.000000" x2="408.800000" y2="120.000000"  style="stroke:black; stroke-linecap:round; stroke-width:0.25;"/>
<line x1="384.800000" y1="128.000000" x2="416.800000" y2="128.000000"  style="stroke:black; stroke-linecap:round; stroke-width:0.25;"/>
<line x1="384.800000" y1="136.000000" x2="424.800000" y2="136.000000"  style="stroke:black; stroke-linecap:round; stroke-width:0.25;"/>
<line x1="384.800000" y1="144.000000" x2="432.800000" y2="144.000000"  style="stroke:black; stroke-linecap:round; stroke-width:0.25;"/>
<line x1="384.800000" y1="152.000000" x2="424.800000" y2="152.000000"  style="stroke:black; stroke-linecap:round; stroke-width:0.25;"/>
<line x1="384.800000" y1="160.000000" x2="416.800000" y2="160.000000"  style="stroke:black; stroke-linecap:round; stroke-width:0.25;"/>
<line x1="384.800000" y1="168.000000" x2="408.800000" y2="168.000000"  style="stroke:black; stroke-linecap:round; stroke-width:0.25;"/>
<line x1="384.800000" y1="176.000000" x2="400.800000" y2="176.000000"  style="stroke:black; stroke-linecap:round; stroke-width:0.25;"/>
<line x1="384.800000" y1="184.000000" x2="392.800000" y2="184.000000"  style="stroke:black; stroke-linecap:round; stroke-width:0.25;"/>
<line x1="392.800000" y1="64.000000" x2="432.800000" y2="64.000000"  style="stroke:black; stroke-linecap:round; stroke-width:0.25;"/>
<line x1="392.800000" y1="104.000000" x2="392.800000" y2="64.000000"  style="stroke:black; stroke-linecap:round; stroke-width:0.25;"/>
<line x1="392.800000" y1="184.000000" x2="392.800000" y2="224.000000"  style="stroke:black; stroke-linecap:round; stroke-width:0.25;"/>
<line x1="392.800000" y1="224.000000" x2="432.800000" y2="224.000000"  style="stroke:black; stroke-linecap:round; stroke-width:0.25;"/>
<line x1="400.800000" y1="88.000000" x2="432.800000" y2="88.000000"  style="stroke:black; stroke-linecap:round; stroke-width:0.25;"/>
<line x1="400.800000" y1="112.000000" x2="400.800000" y2="88.000000"  style="stroke:black; stroke-linecap:round; stroke-width:0.25;"/>
<line x1="400.800000" y1="176.000000" x2="400.800000" y2="216.000000"  style="stroke:black; stroke-linecap:round; stroke-width:0.25;"/>
<line x1="400.800000" y1="216.000000" x2="432.800000" y2="216.000000"  style="stroke:black; stroke-linecap:round; stroke-width:0.25;"/>
<line x1="408.800000" y1="96.000000" x2="432.800000" y2="96.000000"  style="stroke:black; stroke-linecap:round; stroke-width:0.25;"/>
<line x1="408.800000" y1="120.000000" x2="408.800000" y2="96.000000"  style="stroke:black; stroke-linecap:round; stroke-width:0.25;"/>
<line x1="408.800000" y1="168.000000" x2="408.800000" y2="192.000000"  style="stroke:black; stroke-linecap:round; stroke-width:0.25;"/>
<line x1="408.800000" y1="192.000000" x2="432.800000" y2="192.000000"  style="stroke:black; stroke-linecap:round; stroke-width:0.25;"/>
<line x1="416.800000" y1="120.000000" x2="432.800000" y2="120.000000"  style="stroke:black; stroke-linecap:round; stroke-width:0.25;"/>
<line x1="416.800000" y1="128.000000" x2="416.800000" y2="120.000000"  style="stroke:black; stroke-linecap:round; stroke-width:0.25;"/>
<line x1="416.800000" y1="160.000000" x2="416.800000" y2="184.000000"  style="stroke:black; stroke-linecap:round; stroke-width:0.25;"/>
<line x1="416.800000" y1="184.000000" x2="432.800000" y2="184.000000"  style="stroke:black; stroke-linecap:round; stroke-width:0.25;"/>
<line x1="424.800000" y1="128.000000" x2="432.800000" y2="128.000000"  style="stroke:black; stroke-linecap:round; stroke-width:0.25;"/>
<line x1="424.800000" y1="136.000000" x2="424.800000" y2="128.000000"  style="stroke:black; stroke-linecap:round; stroke-width:0.25;"/>
<line x1="424.800000" y1="152.000000" x2="424.800000" y2="160.000000"  style="stroke:black; stroke-linecap:round; stroke-width:0.25;"/>
<line x1="424.800000" y1="160.000000" x2="432.800000" y2="160.000000"  style="stroke:black; stroke-linecap:round; stroke-width:0.25;"/>
<line x1="432.800000" y1="56.000000" x2="436.800000" y2="56.000000"  style="stroke:black; stroke-linecap:round; stroke-width:0.25;"/>
<line x1="432.800000" y1="64.000000" x2="436.800000" y2="64.000000"  style="stroke:black; stroke-linecap:round; stroke-width:0.25;"/>
<line x1="432.800000" y1="88.000000" x2="436.800000" y2="88.000000"  style="stroke:black; stroke-linecap:round; stroke-width:0.25;"/>
<line x1="432.800000" y1="96.000000" x2="436.800000" y2="96.000000"  style="stroke:black; stroke-linecap:round; stroke-width:0.25;"/>
<line x1="432.800000" y1="120.000000" x2="436.800000" y2="120.000000"  style="stroke:black; stroke-linecap:round; stroke-width:0.25;"/>
<line x1="432.800000" y1="128.000000" x2="436.800000" y2="128.000000"  style="stroke:black; stroke-linecap:round; stroke-width:0.25;"/>
<line x1="432.800000" y1="144.000000" x2="432.800000" y2="152.000000"  style="stroke:black; stroke-linecap:round; stroke-width:0.25;"/>
<line x1="432.800000" y1="152.000000" x2="432.800000" y2="152.000000"  style="stroke:black; stroke-linecap:round; stroke-width:0.25;"/>
<line x1="432.800000" y1="152.000000" x2="436.800000" y2="152.000000"  style="stroke:black; stroke-linecap:round; stroke-width:0.25;"/>
<line x1="432.800000" y1="160.000000" x2="436.800000" y2="160.000000"  style="stroke:black; stroke-linecap:round; stroke-width:0.25;"/>
<line x1="432.800000" y1="184.000000" x2="436.800000" y2="184.000000"  style="stroke:black; stroke-linecap:round; stroke-width:0.25;"/>
<line x1="432.800000" y1="192.000000" x2="436.800000" y2="192.000000"  style="stroke:black; stroke-linecap:round; stroke-width:0.25;"/>
<line x1="432.800000" y1="216.000000" x2="436.800000" y2="216.000000"  style="stroke:black; stroke-linecap:round; stroke-width:0.25;"/>
<line x1="432.800000" y1="224.000000" x2="436.800000" y2="224.000000"  style="stroke:black; stroke-linecap:round; stroke-width:0.25;"/>
<line x1="460.800000" y1="60.000000" x2="464.800000" y2="60.000000"  style="stroke:black; stroke-linecap:round; stroke-width:0.25;"/>
<line x1="460.800000" y1="92.000000" x2="464.800000" y2="92.000000"  style="stroke:black; stroke-linecap:round; stroke-width:0.25;"/>
<line x1="460.800000" y1="124.000000" x2="464.800000" y2="124.000000"  style="stroke:black; stroke-linecap:round; stroke-width:0.25;"/>
<line x1="460.800000" y1="156.000000" x2="464.800000" y2="156.000000"  style="stroke:black; stroke-linecap:round; stroke-width:0.25;"/>
<line x1="460.800000" y1="188.000000" x2="464.800000" y2="188.000000"  style="stroke:black; stroke-linecap:round; stroke-width:0.25;"/>
<line x1="460.800000" y1="220.000000" x2="464.800000" y2="220.000000"  style="stroke:black; stroke-linecap:round; stroke-width:0.25;"/>
<line x1="464.800000" y1="60.000000" x2="488.800000" y2="60.000000"  style="stroke:black; stroke-linecap:round; stroke-width:0.25;"/>
<line x1="464.800000" y1="92.000000" x2="480.800000" y2="92.000000"  style="stroke:black; stroke-linecap:round; stroke-width:0.25;"/>
<line x1="464.800000" y1="124.000000" x2="472.800000" y2="124.000000"  style="stroke:black; stroke-linecap:round; stroke-width:0.25;"/>
<line x1="464.800000" y1="144.000000" x2="488.800000" y2="144.000000"  style="stroke:black; stroke-linecap:round; stroke-width:0.25;"/>
<line x1="464.800000" y1="156.000000" x2="464.800000" y2="144.000000"  style="stroke:black; stroke-linecap:round; stroke-width:0.25;"/>
<line x1="464.800000" y1="156.000000" x2="464.800000" y2="156.000000"  style="stroke:black; stroke-linecap:round; stroke-width:0.25;"/>
<line x1="464.800000" y1="188.000000" x2="472.800000" y2="188.000000"  style="stroke:black; stroke-linecap:round; stroke-width:0.25;"/>
<line x1="464.800000" y1="220.000000" x2="480.800000" y2="220.000000"  style="stroke:black; stroke-linecap:round; stroke-width:0.25;"/>
<line x1="472.800000" y1="124.000000" x2="472.800000" y2="136.000000"  style="stroke:black; stroke-linecap:round; stroke-width:0.25;"/>
<line x1="472.800000" y1="136.000000" x2="488.800000" y2="136.000000"  style="stroke:black; stroke-linecap:round; stroke-width:0.25;"/>
<line x1="472.800000" y1="152.000000" x2="488.800000" y2="152.000000"  style="stroke:black; stroke-linecap:round; stroke-width:0.25;"/>
<line x1="472.800000" y1="188.000000" x2="472.800000" y2="152.000000"  style="stroke:black; stroke-linecap:round; stroke-width:0.25;"/>
<line x1="480.800000" y1="92.000000" x2="480.800000" y2="128.000000"  style="stroke:black; stroke-linecap:round; stroke-width:0.25;"/>
<line x1="480.800000" y1="128.000000" x2="488.800000" y2="128.000000"  style="stroke:black; stroke-linecap:round; stroke-width:0.25;"/>
<line x1="480.800000" y1="160.000000" x2="488.800000" y2="160.000000"  style="stroke:black; stroke-linecap:round; stroke-width:0.25;"/>
<line x1="480.800000" y1="220.000000" x2="480.800000" y2="160.000000"  style="stroke:black; stroke-linecap:round; stroke-width:0.25;"/>
<line x1="488.800000" y1="60.000000" x2="488.800000" y2="120.000000"  style="stroke:black; stroke-linecap:round; stroke-width:0.25;"/>
<line x1="488.800000" y1="120.000000" x2="488.800000" y2="120.000000"  style="stroke:black; stroke-linecap:round; stroke-width:0.25;"/>
<line x1="488.800000" y1="120.000000" x2="492.800000" y2="120.000000"  style="stroke:black; stroke-linecap:round; stroke-width:0.25;"/>
<line x1="488.800000" y1="128.000000" x2="492.800000" y2="128.000000"  style="stroke:black; stroke-linecap:round; stroke-width:0.25;"/>
<line x1="488.800000" y1="136.000000" x2="492.800000" y2="136.000000"  style="stroke:black; stroke-linecap:round; stroke-width:0.25;"/>
<line x1="488.800000" y1="144.000000" x2="492.800000" y2="144.000000"  style="stroke:black; stroke-linecap:round; stroke-width:0.25;"/>
<line x1="488.800000" y1="152.000000" x2="492.800000" y2="152.000000"  style="stroke:black; stroke-linecap:round; stroke-width:0.25;"/>
<line x1="488.800000" y1="160.000000" x2="492.800000" y2="160.000000"  style="stroke:black; stroke-linecap:round; stroke-width:0.25;"/>
<line x1="492.800000" y1="120.000000" x2="496.800000" y2="120.000000"  style="stroke:black; stroke-linecap:round; stroke-width:0.25;"/>
<line x1="492.800000" y1="128.000000" x2="496.800000" y2="128.000000"  style="stroke:black; stroke-linecap:round; stroke-width:0.25;"/>
<line x1="492.800000" y1="136.000000" x2="496.800000" y2="136.000000"  style="stroke:black; stroke-linecap:round; stroke-width:0.25;"/>
<line x1="492.800000" y1="144.000000" x2="496.800000" y2="144.000000"  style="stroke:black; stroke-linecap:round; stroke-width:0.25;"/>
<line x1="492.800000" y1="152.000000" x2="496.800000" y2="152.000000"  style="stroke:black; stroke-linecap:round; stroke-width:0.25;"/>
<line x1="492.800000" y1="160.000000" x2="496.800000" y2="160.000000"  style="stroke:black; stroke-linecap:round; stroke-width:0.25;"/>
<line x1="496.800000" y1="120.000000" x2="506.800000" y2="120.000000"  style="stroke:black; stroke-linecap:round; stroke-width:0.25;"/>
<line x1="496.800000" y1="128.000000" x2="506.800000" y2="128.000000"  style="stroke:black; stroke-linecap:round; stroke-width:0.25;"/>
<line x1="496.800000" y1="136.000000" x2="506.800000" y2="136.000000"  style="stroke:black; stroke-linecap:round; stroke-width:0.25;"/>
<line x1="496.800000" y1="144.000000" x2="506.800000" y2="144.000000"  style="stroke:black; stroke-linecap:round; stroke-width:0.25;"/>
<line x1="496.800000" y1="152.000000" x2="506.800000" y2="152.000000"  style="stroke:black; stroke-linecap:round; stroke-width:0.25;"/>
<line x1="496.800000" y1="160.000000" x2="506.800000" y2="160.000000"  style="stroke:black; stroke-linecap:round; stroke-width:0.25;"/>
</svg>
