<?xml version="1.0"?>
<svg xmlns="http://www.w3.org/2000/svg" xmlns:xlink="http://www.w3.org/1999/xlink" viewBox="0 0 192.000000 360.000000" width="96.000000mm" height="180.000000mm" version="1.1">
<a xlink:href="Network-0x6000531c79f0.svg">
<rect x="0.000000" y="0.000000" width="191.000000" height="359.000000" rx="0" ry="0" style="stroke:#000000;fill:#FFFFFF;"/>
</a>
<text x="10.000000" y="7.000000" font-family="Verdana" font-size="7"></text>
<rect x="64.000000" y="32.000000" width="24.000000" height="24.000000" rx="0" ry="0" style="stroke:#000000;fill:#FFFFFF;"/>
<text x="76.000000" y="46.000000" font-family="Verdana" font-size="7" text-anchor="middle" fill="#000000">999</text>
<circle cx="66.000000" cy="34.000000" r="1"/>
<rect x="104.000000" y="28.000000" width="24.000000" height="24.000000" rx="0" ry="0" style="stroke:#000000;fill:#FFFFFF;"/>
<text x="116.000000" y="42.000000" font-family="Verdana" font-size="7" text-anchor="middle" fill="#000000">@</text>
<circle cx="106.000000" cy="30.000000" r="1"/>
<line x1="101.000000" y1="35.000000" x2="104.000000" y2="36.000000"  transform="rotate(0.000000,104.000000,36.000000)" style="stroke: black; stroke-width:0.25;"/>
<line x1="101.000000" y1="37.000000" x2="104.000000" y2="36.000000"  transform="rotate(0.000000,104.000000,36.000000)" style="stroke: black; stroke-width:0.25;"/>
<line x1="101.000000" y1="43.000000" x2="104.000000" y2="44.000000"  transform="rotate(0.000000,104.000000,44.000000)" style="stroke: black; stroke-width:0.25;"/>
<line x1="101.000000" y1="45.000000" x2="104.000000" y2="44.000000"  transform="rotate(0.000000,104.000000,44.000000)" style="stroke: black; stroke-width:0.25;"/>
<rect x="64.000000" y="72.000000" width="24.000000" height="24.000000" rx="0" ry="0" style="stroke:#000000;fill:#FFFFFF;"/>
<text x="76.000000" y="86.000000" font-family="Verdana" font-size="7" text-anchor="middle" fill="#000000">999</text>
<circle cx="66.000000" cy="74.000000" r="1"/>
<rect x="104.000000" y="68.000000" width="24.000000" height="24.000000" rx="0" ry="0" style="stroke:#000000;fill:#FFFFFF;"/>
<text x="116.000000" y="82.000000" font-family="Verdana" font-size="7" text-anchor="middle" fill="#000000">@</text>
<circle cx="106.000000" cy="70.000000" r="1"/>
<line x1="101.000000" y1="75.000000" x2="104.000000" y2="76.000000"  transform="rotate(0.000000,104.000000,76.000000)" style="stroke: black; stroke-width:0.25;"/>
<line x1="101.000000" y1="77.000000" x2="104.000000" y2="76.000000"  transform="rotate(0.000000,104.000000,76.000000)" style="stroke: black; stroke-width:0.25;"/>
<line x1="101.000000" y1="83.000000" x2="104.000000" y2="84.000000"  transform="rotate(0.000000,104.000000,84.000000)" style="stroke: black; stroke-width:0.25;"/>
<line x1="101.000000" y1="85.000000" x2="104.000000" y2="84.000000"  transform="rotate(0.000000,104.000000,84.000000)" style="stroke: black; stroke-width:0.25;"/>
<rect x="64.000000" y="112.000000" width="24.000000" height="24.000000" rx="0" ry="0" style="stroke:#000000;fill:#FFFFFF;"/>
<text x="76.000000" y="126.000000" font-family="Verdana" font-size="7" text-anchor="middle" fill="#000000">999</text>
<circle cx="66.000000" cy="114.000000" r="1"/>
<rect x="104.000000" y="108.000000" width="24.000000" height="24.000000" rx="0" ry="0" style="stroke:#000000;fill:#FFFFFF;"/>
<text x="116.000000" y="122.000000" font-family="Verdana" font-size="7" text-anchor="middle" fill="#000000">@</text>
<circle cx="106.000000" cy="110.000000" r="1"/>
<line x1="101.000000" y1="115.000000" x2="104.000000" y2="116.000000"  transform="rotate(0.000000,104.000000,116.000000)" style="stroke: black; stroke-width:0.25;"/>
<line x1="101.000000" y1="117.000000" x2="104.000000" y2="116.000000"  transform="rotate(0.000000,104.000000,116.000000)" style="stroke: black; stroke-width:0.25;"/>
<line x1="101.000000" y1="123.000000" x2="104.000000" y2="124.000000"  transform="rotate(0.000000,104.000000,124.000000)" style="stroke: black; stroke-width:0.25;"/>
<line x1="101.000000" y1="125.000000" x2="104.000000" y2="124.000000"  transform="rotate(0.000000,104.000000,124.000000)" style="stroke: black; stroke-width:0.25;"/>
<rect x="64.000000" y="152.000000" width="24.000000" height="24.000000" rx="0" ry="0" style="stroke:#000000;fill:#FFFFFF;"/>
<text x="76.000000" y="166.000000" font-family="Verdana" font-size="7" text-anchor="middle" fill="#000000">999</text>
<circle cx="66.000000" cy="154.000000" r="1"/>
<rect x="104.000000" y="148.000000" width="24.000000" height="24.000000" rx="0" ry="0" style="stroke:#000000;fill:#FFFFFF;"/>
<text x="116.000000" y="162.000000" font-family="Verdana" font-size="7" text-anchor="middle" fill="#000000">@</text>
<circle cx="106.000000" cy="150.000000" r="1"/>
<line x1="101.000000" y1="155.000000" x2="104.000000" y2="156.000000"  transform="rotate(0.000000,104.000000,156.000000)" style="stroke: black; stroke-width:0.25;"/>
<line x1="101.000000" y1="157.000000" x2="104.000000" y2="156.000000"  transform="rotate(0.000000,104.000000,156.000000)" style="stroke: black; stroke-width:0.25;"/>
<line x1="101.000000" y1="163.000000" x2="104.000000" y2="164.000000"  transform="rotate(0.000000,104.000000,164.000000)" style="stroke: black; stroke-width:0.25;"/>
<line x1="101.000000" y1="165.000000" x2="104.000000" y2="164.000000"  transform="rotate(0.000000,104.000000,164.000000)" style="stroke: black; stroke-width:0.25;"/>
<rect x="64.000000" y="192.000000" width="24.000000" height="24.000000" rx="0" ry="0" style="stroke:#000000;fill:#FFFFFF;"/>
<text x="76.000000" y="206.000000" font-family="Verdana" font-size="7" text-anchor="middle" fill="#000000">999</text>
<circle cx="66.000000" cy="194.000000" r="1"/>
<rect x="104.000000" y="188.000000" width="24.000000" height="24.000000" rx="0" ry="0" style="stroke:#000000;fill:#FFFFFF;"/>
<text x="116.000000" y="202.000000" font-family="Verdana" font-size="7" text-anchor="middle" fill="#000000">@</text>
<circle cx="106.000000" cy="190.000000" r="1"/>
<line x1="101.000000" y1="195.000000" x2="104.000000" y2="196.000000"  transform="rotate(0.000000,104.000000,196.000000)" style="stroke: black; stroke-width:0.25;"/>
<line x1="101.000000" y1="197.000000" x2="104.000000" y2="196.000000"  transform="rotate(0.000000,104.000000,196.000000)" style="stroke: black; stroke-width:0.25;"/>
<line x1="101.000000" y1="203.000000" x2="104.000000" y2="204.000000"  transform="rotate(0.000000,104.000000,204.000000)" style="stroke: black; stroke-width:0.25;"/>
<line x1="101.000000" y1="205.000000" x2="104.000000" y2="204.000000"  transform="rotate(0.000000,104.000000,204.000000)" style="stroke: black; stroke-width:0.25;"/>
<rect x="64.000000" y="232.000000" width="24.000000" height="24.000000" rx="0" ry="0" style="stroke:#000000;fill:#FFFFFF;"/>
<text x="76.000000" y="246.000000" font-family="Verdana" font-size="7" text-anchor="middle" fill="#000000">999</text>
<circle cx="66.000000" cy="234.000000" r="1"/>
<rect x="104.000000" y="228.000000" width="24.000000" height="24.000000" rx="0" ry="0" style="stroke:#000000;fill:#FFFFFF;"/>
<text x="116.000000" y="242.000000" font-family="Verdana" font-size="7" text-anchor="middle" fill="#000000">@</text>
<circle cx="106.000000" cy="230.000000" r="1"/>
<line x1="101.000000" y1="235.000000" x2="104.000000" y2="236.000000"  transform="rotate(0.000000,104.000000,236.000000)" style="stroke: black; stroke-width:0.25;"/>
<line x1="101.000000" y1="237.000000" x2="104.000000" y2="236.000000"  transform="rotate(0.000000,104.000000,236.000000)" style="stroke: black; stroke-width:0.25;"/>
<line x1="101.000000" y1="243.000000" x2="104.000000" y2="244.000000"  transform="rotate(0.000000,104.000000,244.000000)" style="stroke: black; stroke-width:0.25;"/>
<line x1="101.000000" y1="245.000000" x2="104.000000" y2="244.000000"  transform="rotate(0.000000,104.000000,244.000000)" style="stroke: black; stroke-width:0.25;"/>
<rect x="64.000000" y="272.000000" width="24.000000" height="24.000000" rx="0" ry="0" style="stroke:#000000;fill:#FFFFFF;"/>
<text x="76.000000" y="286.000000" font-family="Verdana" font-size="7" text-anchor="middle" fill="#000000">999</text>
<circle cx="66.000000" cy="274.000000" r="1"/>
<rect x="104.000000" y="268.000000" width="24.000000" height="24.000000" rx="0" ry="0" style="stroke:#000000;fill:#FFFFFF;"/>
<text x="116.000000" y="282.000000" font-family="Verdana" font-size="7" text-anchor="middle" fill="#000000">@</text>
<circle cx="106.000000" cy="270.000000" r="1"/>
<line x1="101.000000" y1="275.000000" x2="104.000000" y2="276.000000"  transform="rotate(0.000000,104.000000,276.000000)" style="stroke: black; stroke-width:0.25;"/>
<line x1="101.000000" y1="277.000000" x2="104.000000" y2="276.000000"  transform="rotate(0.000000,104.000000,276.000000)" style="stroke: black; stroke-width:0.25;"/>
<line x1="101.000000" y1="283.000000" x2="104.000000" y2="284.000000"  transform="rotate(0.000000,104.000000,284.000000)" style="stroke: black; stroke-width:0.25;"/>
<line x1="101.000000" y1="285.000000" x2="104.000000" y2="284.000000"  transform="rotate(0.000000,104.000000,284.000000)" style="stroke: black; stroke-width:0.25;"/>
<rect x="64.000000" y="312.000000" width="24.000000" height="24.000000" rx="0" ry="0" style="stroke:#000000;fill:#FFFFFF;"/>
<text x="76.000000" y="326.000000" font-family="Verdana" font-size="7" text-anchor="middle" fill="#000000">999</text>
<circle cx="66.000000" cy="314.000000" r="1"/>
<rect x="104.000000" y="308.000000" width="24.000000" height="24.000000" rx="0" ry="0" style="stroke:#000000;fill:#FFFFFF;"/>
<text x="116.000000" y="322.000000" font-family="Verdana" font-size="7" text-anchor="middle" fill="#000000">@</text>
<circle cx="106.000000" cy="310.000000" r="1"/>
<line x1="101.000000" y1="315.000000" x2="104.000000" y2="316.000000"  transform="rotate(0.000000,104.000000,316.000000)" style="stroke: black; stroke-width:0.25;"/>
<line x1="101.000000" y1="317.000000" x2="104.000000" y2="316.000000"  transform="rotate(0.000000,104.000000,316.000000)" style="stroke: black; stroke-width:0.25;"/>
<line x1="101.000000" y1="323.000000" x2="104.000000" y2="324.000000"  transform="rotate(0.000000,104.000000,324.000000)" style="stroke: black; stroke-width:0.25;"/>
<line x1="101.000000" y1="325.000000" x2="104.000000" y2="324.000000"  transform="rotate(0.000000,104.000000,324.000000)" style="stroke: black; stroke-width:0.25;"/>
<line x1="15.000000" y1="15.000000" x2="15.000000" y2="345.000000"  style="stroke: black; stroke-linecap:round; stroke-width:0.25; stroke-dasharray:3,3;"/>
<line x1="15.000000" y1="345.000000" x2="177.000000" y2="345.000000"  style="stroke: black; stroke-linecap:round; stroke-width:0.25; stroke-dasharray:3,3;"/>
<line x1="177.000000" y1="345.000000" x2="177.000000" y2="15.000000"  style="stroke: black; stroke-linecap:round; stroke-width:0.25; stroke-dasharray:3,3;"/>
<line x1="15.000000" y1="15.000000" x2="20.000000" y2="15.000000"  style="stroke: black; stroke-linecap:round; stroke-width:0.25; stroke-dasharray:3,3;"/>
<line x1="45.800000" y1="15.000000" x2="177.000000" y2="15.000000"  style="stroke: black; stroke-linecap:round; stroke-width:0.25; stroke-dasharray:3,3;"/>
<text x="20.000000" y="17.000000" font-family="Verdana" font-size="7">Del(8)</text>
<line x1="179.000000" y1="151.000000" x2="182.000000" y2="152.000000"  transform="rotate(0.000000,182.000000,152.000000)" style="stroke: black; stroke-width:0.25;"/>
<line x1="179.000000" y1="153.000000" x2="182.000000" y2="152.000000"  transform="rotate(0.000000,182.000000,152.000000)" style="stroke: black; stroke-width:0.25;"/>
<line x1="179.000000" y1="159.000000" x2="182.000000" y2="160.000000"  transform="rotate(0.000000,182.000000,160.000000)" style="stroke: black; stroke-width:0.25;"/>
<line x1="179.000000" y1="161.000000" x2="182.000000" y2="160.000000"  transform="rotate(0.000000,182.000000,160.000000)" style="stroke: black; stroke-width:0.25;"/>
<line x1="179.000000" y1="167.000000" x2="182.000000" y2="168.000000"  transform="rotate(0.000000,182.000000,168.000000)" style="stroke: black; stroke-width:0.25;"/>
<line x1="179.000000" y1="169.000000" x2="182.000000" y2="168.000000"  transform="rotate(0.000000,182.000000,168.000000)" style="stroke: black; stroke-width:0.25;"/>
<line x1="179.000000" y1="175.000000" x2="182.000000" y2="176.000000"  transform="rotate(0.000000,182.000000,176.000000)" style="stroke: black; stroke-width:0.25;"/>
<line x1="179.000000" y1="177.000000" x2="182.000000" y2="176.000000"  transform="rotate(0.000000,182.000000,176.000000)" style="stroke: black; stroke-width:0.25;"/>
<line x1="179.000000" y1="183.000000" x2="182.000000" y2="184.000000"  transform="rotate(0.000000,182.000000,184.000000)" style="stroke: black; stroke-width:0.25;"/>
<line x1="179.000000" y1="185.000000" x2="182.000000" y2="184.000000"  transform="rotate(0.000000,182.000000,184.000000)" style="stroke: black; stroke-width:0.25;"/>
<line x1="179.000000" y1="191.000000" x2="182.000000" y2="192.000000"  transform="rotate(0.000000,182.000000,192.000000)" style="stroke: black; stroke-width:0.25;"/>
<line x1="179.000000" y1="193.000000" x2="182.000000" y2="192.000000"  transform="rotate(0.000000,182.000000,192.000000)" style="stroke: black; stroke-width:0.25;"/>
<line x1="179.000000" y1="199.000000" x2="182.000000" y2="200.000000"  transform="rotate(0.000000,182.000000,200.000000)" style="stroke: black; stroke-width:0.25;"/>
<line x1="179.000000" y1="201.000000" x2="182.000000" y2="200.000000"  transform="rotate(0.000000,182.000000,200.000000)" style="stroke: black; stroke-width:0.25;"/>
<line x1="179.000000" y1="207.000000" x2="182.000000" y2="208.000000"  transform="rotate(0.000000,182.000000,208.000000)" style="stroke: black; stroke-width:0.25;"/>
<line x1="179.000000" y1="209.000000" x2="182.000000" y2="208.000000"  transform="rotate(0.000000,182.000000,208.000000)" style="stroke: black; stroke-width:0.25;"/>
<line x1="10.000000" y1="152.000000" x2="20.000000" y2="152.000000"  style="stroke:black; stroke-linecap:round; stroke-width:0.25;"/>
<line x1="10.000000" y1="160.000000" x2="20.000000" y2="160.000000"  style="stroke:black; stroke-linecap:round; stroke-width:0.25;"/>
<line x1="10.000000" y1="168.000000" x2="20.000000" y2="168.000000"  style="stroke:black; stroke-linecap:round; stroke-width:0.25;"/>
<line x1="10.000000" y1="176.000000" x2="20.000000" y2="176.000000"  style="stroke:black; stroke-linecap:round; stroke-width:0.25;"/>
<line x1="10.000000" y1="184.000000" x2="20.000000" y2="184.000000"  style="stroke:black; stroke-linecap:round; stroke-width:0.25;"/>
<line x1="10.000000" y1="192.000000" x2="20.000000" y2="192.000000"  style="stroke:black; stroke-linecap:round; stroke-width:0.25;"/>
<line x1="10.000000" y1="200.000000" x2="20.000000" y2="200.000000"  style="stroke:black; stroke-linecap:round; stroke-width:0.25;"/>
<line x1="10.000000" y1="208.000000" x2="20.000000" y2="208.000000"  style="stroke:black; stroke-linecap:round; stroke-width:0.25;"/>
<line x1="20.000000" y1="152.000000" x2="24.000000" y2="152.000000"  style="stroke:black; stroke-linecap:round; stroke-width:0.25;"/>
<line x1="20.000000" y1="160.000000" x2="24.000000" y2="160.000000"  style="stroke:black; stroke-linecap:round; stroke-width:0.25;"/>
<line x1="20.000000" y1="168.000000" x2="24.000000" y2="168.000000"  style="stroke:black; stroke-linecap:round; stroke-width:0.25;"/>
<line x1="20.000000" y1="176.000000" x2="24.000000" y2="176.000000"  style="stroke:black; stroke-linecap:round; stroke-width:0.25;"/>
<line x1="20.000000" y1="184.000000" x2="24.000000" y2="184.000000"  style="stroke:black; stroke-linecap:round; stroke-width:0.25;"/>
<line x1="20.000000" y1="192.000000" x2="24.000000" y2="192.000000"  style="stroke:black; stroke-linecap:round; stroke-width:0.25;"/>
<line x1="20.000000" y1="200.000000" x2="24.000000" y2="200.000000"  style="stroke:black; stroke-linecap:round; stroke-width:0.25;"/>
<line x1="20.000000" y1="208.000000" x2="24.000000" y2="208.000000"  style="stroke:black; stroke-linecap:round; stroke-width:0.25;"/>
<line x1="24.000000" y1="152.000000" x2="28.000000" y2="152.000000"  style="stroke:black; stroke-linecap:round; stroke-width:0.25;"/>
<line x1="24.000000" y1="160.000000" x2="28.000000" y2="160.000000"  style="stroke:black; stroke-linecap:round; stroke-width:0.25;"/>
<line x1="24.000000" y1="168.000000" x2="28.000000" y2="168.000000"  style="stroke:black; stroke-linecap:round; stroke-width:0.25;"/>
<line x1="24.000000" y1="176.000000" x2="28.000000" y2="176.000000"  style="stroke:black; stroke-linecap:round; stroke-width:0.25;"/>
<line x1="24.000000" y1="184.000000" x2="28.000000" y2="184.000000"  style="stroke:black; stroke-linecap:round; stroke-width:0.25;"/>
<line x1="24.000000" y1="192.000000" x2="28.000000" y2="192.000000"  style="stroke:black; stroke-linecap:round; stroke-width:0.25;"/>
<line x1="24.000000" y1="200.000000" x2="28.000000" y2="200.000000"  style="stroke:black; stroke-linecap:round; stroke-width:0.25;"/>
<line x1="24.000000" y1="208.000000" x2="28.000000" y2="208.000000"  style="stroke:black; stroke-linecap:round; stroke-width:0.25;"/>
<line x1="28.000000" y1="24.000000" x2="60.000000" y2="24.000000"  style="stroke:black; stroke-linecap:round; stroke-width:0.25;"/>
<line x1="28.000000" y1="152.000000" x2="28.000000" y2="24.000000"  style="stroke:black; stroke-linecap:round; stroke-width:0.25;"/>
<line x1="28.000000" y1="152.000000" x2="28.000000" y2="152.000000"  style="stroke:black; stroke-linecap:round; stroke-width:0.25;"/>
<line x1="28.000000" y1="160.000000" x2="36.000000" y2="160.000000"  style="stroke:black; stroke-linecap:round; stroke-width:0.25;"/>
<line x1="28.000000" y1="168.000000" x2="44.000000" y2="168.000000"  style="stroke:black; stroke-linecap:round; stroke-width:0.25;"/>
<line x1="28.000000" y1="176.000000" x2="52.000000" y2="176.000000"  style="stroke:black; stroke-linecap:round; stroke-width:0.25;"/>
<line x1="28.000000" y1="184.000000" x2="60.000000" y2="184.000000"  style="stroke:black; stroke-linecap:round; stroke-width:0.25;"/>
<line x1="28.000000" y1="192.000000" x2="60.000000" y2="192.000000"  style="stroke:black; stroke-linecap:round; stroke-width:0.25;"/>
<line x1="28.000000" y1="200.000000" x2="52.000000" y2="200.000000"  style="stroke:black; stroke-linecap:round; stroke-width:0.25;"/>
<line x1="28.000000" y1="208.000000" x2="44.000000" y2="208.000000"  style="stroke:black; stroke-linecap:round; stroke-width:0.25;"/>
<line x1="36.000000" y1="64.000000" x2="60.000000" y2="64.000000"  style="stroke:black; stroke-linecap:round; stroke-width:0.25;"/>
<line x1="36.000000" y1="160.000000" x2="36.000000" y2="64.000000"  style="stroke:black; stroke-linecap:round; stroke-width:0.25;"/>
<line x1="44.000000" y1="104.000000" x2="60.000000" y2="104.000000"  style="stroke:black; stroke-linecap:round; stroke-width:0.25;"/>
<line x1="44.000000" y1="168.000000" x2="44.000000" y2="104.000000"  style="stroke:black; stroke-linecap:round; stroke-width:0.25;"/>
<line x1="44.000000" y1="208.000000" x2="44.000000" y2="304.000000"  style="stroke:black; stroke-linecap:round; stroke-width:0.25;"/>
<line x1="44.000000" y1="304.000000" x2="60.000000" y2="304.000000"  style="stroke:black; stroke-linecap:round; stroke-width:0.25;"/>
<line x1="52.000000" y1="144.000000" x2="60.000000" y2="144.000000"  style="stroke:black; stroke-linecap:round; stroke-width:0.25;"/>
<line x1="52.000000" y1="176.000000" x2="52.000000" y2="144.000000"  style="stroke:black; stroke-linecap:round; stroke-width:0.25;"/>
<line x1="52.000000" y1="200.000000" x2="52.000000" y2="264.000000"  style="stroke:black; stroke-linecap:round; stroke-width:0.25;"/>
<line x1="52.000000" y1="264.000000" x2="60.000000" y2="264.000000"  style="stroke:black; stroke-linecap:round; stroke-width:0.25;"/>
<line x1="60.000000" y1="24.000000" x2="76.000000" y2="24.000000"  style="stroke:black; stroke-linecap:round; stroke-width:0.25;"/>
<line x1="60.000000" y1="64.000000" x2="76.000000" y2="64.000000"  style="stroke:black; stroke-linecap:round; stroke-width:0.25;"/>
<line x1="60.000000" y1="104.000000" x2="76.000000" y2="104.000000"  style="stroke:black; stroke-linecap:round; stroke-width:0.25;"/>
<line x1="60.000000" y1="144.000000" x2="76.000000" y2="144.000000"  style="stroke:black; stroke-linecap:round; stroke-width:0.25;"/>
<line x1="60.000000" y1="184.000000" x2="76.000000" y2="184.000000"  style="stroke:black; stroke-linecap:round; stroke-width:0.25;"/>
<line x1="60.000000" y1="192.000000" x2="60.000000" y2="224.000000"  style="stroke:black; stroke-linecap:round; stroke-width:0.25;"/>
<line x1="60.000000" y1="224.000000" x2="60.000000" y2="224.000000"  style="stroke:black; stroke-linecap:round; stroke-width:0.25;"/>
<line x1="60.000000" y1="224.000000" x2="76.000000" y2="224.000000"  style="stroke:black; stroke-linecap:round; stroke-width:0.25;"/>
<line x1="60.000000" y1="264.000000" x2="76.000000" y2="264.000000"  style="stroke:black; stroke-linecap:round; stroke-width:0.25;"/>
<line x1="60.000000" y1="304.000000" x2="76.000000" y2="304.000000"  style="stroke:black; stroke-linecap:round; stroke-width:0.25;"/>
<line x1="76.000000" y1="24.000000" x2="92.000000" y2="24.000000"  style="stroke:black; stroke-linecap:round; stroke-width:0.25;"/>
<line x1="76.000000" y1="64.000000" x2="92.000000" y2="64.000000"  style="stroke:black; stroke-linecap:round; stroke-width:0.25;"/>
<line x1="76.000000" y1="104.000000" x2="92.000000" y2="104.000000"  style="stroke:black; stroke-linecap:round; stroke-width:0.25;"/>
<line x1="76.000000" y1="144.000000" x2="92.000000" y2="144.000000"  style="stroke:black; stroke-linecap:round; stroke-width:0.25;"/>
<line x1="76.000000" y1="184.000000" x2="92.000000" y2="184.000000"  style="stroke:black; stroke-linecap:round; stroke-width:0.25;"/>
<line x1="76.000000" y1="224.000000" x2="92.000000" y2="224.000000"  style="stroke:black; stroke-linecap:round; stroke-width:0.25;"/>
<line x1="76.000000" y1="264.000000" x2="92.000000" y2="264.000000"  style="stroke:black; stroke-linecap:round; stroke-width:0.25;"/>
<line x1="76.000000" y1="304.000000" x2="92.000000" y2="304.000000"  style="stroke:black; stroke-linecap:round; stroke-width:0.25;"/>
<line x1="88.000000" y1="44.000000" x2="92.000000" y2="44.000000"  style="stroke:black; stroke-linecap:round; stroke-width:0.25;"/>
<line x1="88.000000" y1="84.000000" x2="92.000000" y2="84.000000"  style="stroke:black; stroke-linecap:round; stroke-width:0.25;"/>
<line x1="88.000000" y1="124.000000" x2="92.000000" y2="124.000000"  style="stroke:black; stroke-linecap:round; stroke-width:0.25;"/>
<line x1="88.000000" y1="164.000000" x2="92.000000" y2="164.000000"  style="stroke:black; stroke-linecap:round; stroke-width:0.25;"/>
<line x1="88.000000" y1="204.000000" x2="92.000000" y2="204.000000"  style="stroke:black; stroke-linecap:round; stroke-width:0.25;"/>
<line x1="88.000000" y1="244.000000" x2="92.000000" y2="244.000000"  style="stroke:black; stroke-linecap:round; stroke-width:0.25;"/>
<line x1="88.000000" y1="284.000000" x2="92.000000" y2="284.000000"  style="stroke:black; stroke-linecap:round; stroke-width:0.25;"/>
<line x1="88.000000" y1="324.000000" x2="92.000000" y2="324.000000"  style="stroke:black; stroke-linecap:round; stroke-width:0.25;"/>
<line x1="92.000000" y1="24.000000" x2="100.000000" y2="24.000000"  style="stroke:black; stroke-linecap:round; stroke-width:0.25;"/>
<line x1="92.000000" y1="44.000000" x2="100.000000" y2="44.000000"  style="stroke:black; stroke-linecap:round; stroke-width:0.25;"/>
<line x1="92.000000" y1="64.000000" x2="100.000000" y2="64.000000"  style="stroke:black; stroke-linecap:round; stroke-width:0.25;"/>
<line x1="92.000000" y1="84.000000" x2="100.000000" y2="84.000000"  style="stroke:black; stroke-linecap:round; stroke-width:0.25;"/>
<line x1="92.000000" y1="104.000000" x2="100.000000" y2="104.000000"  style="stroke:black; stroke-linecap:round; stroke-width:0.25;"/>
<line x1="92.000000" y1="124.000000" x2="100.000000" y2="124.000000"  style="stroke:black; stroke-linecap:round; stroke-width:0.25;"/>
<line x1="92.000000" y1="144.000000" x2="100.000000" y2="144.000000"  style="stroke:black; stroke-linecap:round; stroke-width:0.25;"/>
<line x1="92.000000" y1="164.000000" x2="100.000000" y2="164.000000"  style="stroke:black; stroke-linecap:round; stroke-width:0.25;"/>
<line x1="92.000000" y1="184.000000" x2="100.000000" y2="184.000000"  style="stroke:black; stroke-linecap:round; stroke-width:0.25;"/>
<line x1="92.000000" y1="204.000000" x2="100.000000" y2="204.000000"  style="stroke:black; stroke-linecap:round; stroke-width:0.25;"/>
<line x1="92.000000" y1="224.000000" x2="100.000000" y2="224.000000"  style="stroke:black; stroke-linecap:round; stroke-width:0.25;"/>
<line x1="92.000000" y1="244.000000" x2="100.000000" y2="244.000000"  style="stroke:black; stroke-linecap:round; stroke-width:0.25;"/>
<line x1="92.000000" y1="264.000000" x2="100.000000" y2="264.000000"  style="stroke:black; stroke-linecap:round; stroke-width:0.25;"/>
<line x1="92.000000" y1="284.000000" x2="100.000000" y2="284.000000"  style="stroke:black; stroke-linecap:round; stroke-width:0.25;"/>
<line x1="92.000000" y1="304.000000" x2="100.000000" y2="304.000000"  style="stroke:black; stroke-linecap:round; stroke-width:0.25;"/>
<line x1="92.000000" y1="324.000000" x2="100.000000" y2="324.000000"  style="stroke:black; stroke-linecap:round; stroke-width:0.25;"/>
<line x1="100.000000" y1="24.000000" x2="100.000000" y2="36.000000"  style="stroke:black; stroke-linecap:round; stroke-width:0.25;"/>
<line x1="100.000000" y1="36.000000" x2="100.000000" y2="36.000000"  style="stroke:black; stroke-linecap:round; stroke-width:0.25;"/>
<line x1="100.000000" y1="36.000000" x2="104.000000" y2="36.000000"  style="stroke:black; stroke-linecap:round; stroke-width:0.25;"/>
<line x1="100.000000" y1="44.000000" x2="104.000000" y2="44.000000"  style="stroke:black; stroke-linecap:round; stroke-width:0.25;"/>
<line x1="100.000000" y1="64.000000" x2="100.000000" y2="76.000000"  style="stroke:black; stroke-linecap:round; stroke-width:0.25;"/>
<line x1="100.000000" y1="76.000000" x2="100.000000" y2="76.000000"  style="stroke:black; stroke-linecap:round; stroke-width:0.25;"/>
<line x1="100.000000" y1="76.000000" x2="104.000000" y2="76.000000"  style="stroke:black; stroke-linecap:round; stroke-width:0.25;"/>
<line x1="100.000000" y1="84.000000" x2="104.000000" y2="84.000000"  style="stroke:black; stroke-linecap:round; stroke-width:0.25;"/>
<line x1="100.000000" y1="104.000000" x2="100.000000" y2="116.000000"  style="stroke:black; stroke-linecap:round; stroke-width:0.25;"/>
<line x1="100.000000" y1="116.000000" x2="100.000000" y2="116.000000"  style="stroke:black; stroke-linecap:round; stroke-width:0.25;"/>
<line x1="100.000000" y1="116.000000" x2="104.000000" y2="116.000000"  style="stroke:black; stroke-linecap:round; stroke-width:0.25;"/>
<line x1="100.000000" y1="124.000000" x2="104.000000" y2="124.000000"  style="stroke:black; stroke-linecap:round; stroke-width:0.25;"/>
<line x1="100.000000" y1="144.000000" x2="100.000000" y2="156.000000"  style="stroke:black; stroke-linecap:round; stroke-width:0.25;"/>
<line x1="100.000000" y1="156.000000" x2="100.000000" y2="156.000000"  style="stroke:black; stroke-linecap:round; stroke-width:0.25;"/>
<line x1="100.000000" y1="156.000000" x2="104.000000" y2="156.000000"  style="stroke:black; stroke-linecap:round; stroke-width:0.25;"/>
<line x1="100.000000" y1="164.000000" x2="104.000000" y2="164.000000"  style="stroke:black; stroke-linecap:round; stroke-width:0.25;"/>
<line x1="100.000000" y1="184.000000" x2="100.000000" y2="196.000000"  style="stroke:black; stroke-linecap:round; stroke-width:0.25;"/>
<line x1="100.000000" y1="196.000000" x2="100.000000" y2="196.000000"  style="stroke:black; stroke-linecap:round; stroke-width:0.25;"/>
<line x1="100.000000" y1="196.000000" x2="104.000000" y2="196.000000"  style="stroke:black; stroke-linecap:round; stroke-width:0.25;"/>
<line x1="100.000000" y1="204.000000" x2="104.000000" y2="204.000000"  style="stroke:black; stroke-linecap:round; stroke-width:0.25;"/>
<line x1="100.000000" y1="224.000000" x2="100.000000" y2="236.000000"  style="stroke:black; stroke-linecap:round; stroke-width:0.25;"/>
<line x1="100.000000" y1="236.000000" x2="100.000000" y2="236.000000"  style="stroke:black; stroke-linecap:round; stroke-width:0.25;"/>
<line x1="100.000000" y1="236.000000" x2="104.000000" y2="236.000000"  style="stroke:black; stroke-linecap:round; stroke-width:0.25;"/>
<line x1="100.000000" y1="244.000000" x2="104.000000" y2="244.000000"  style="stroke:black; stroke-linecap:round; stroke-width:0.25;"/>
<line x1="100.000000" y1="264.000000" x2="100.000000" y2="276.000000"  style="stroke:black; stroke-linecap:round; stroke-width:0.25;"/>
<line x1="100.000000" y1="276.000000" x2="100.000000" y2="276.000000"  style="stroke:black; stroke-linecap:round; stroke-width:0.25;"/>
<line x1="100.000000" y1="276.000000" x2="104.000000" y2="276.000000"  style="stroke:black; stroke-linecap:round; stroke-width:0.25;"/>
<line x1="100.000000" y1="284.000000" x2="104.000000" y2="284.000000"  style="stroke:black; stroke-linecap:round; stroke-width:0.25;"/>
<line x1="100.000000" y1="304.000000" x2="100.000000" y2="316.000000"  style="stroke:black; stroke-linecap:round; stroke-width:0.25;"/>
<line x1="100.000000" y1="316.000000" x2="100.000000" y2="316.000000"  style="stroke:black; stroke-linecap:round; stroke-width:0.25;"/>
<line x1="100.000000" y1="316.000000" x2="104.000000" y2="316.000000"  style="stroke:black; stroke-linecap:round; stroke-width:0.25;"/>
<line x1="100.000000" y1="324.000000" x2="104.000000" y2="324.000000"  style="stroke:black; stroke-linecap:round; stroke-width:0.25;"/>
<line x1="128.000000" y1="40.000000" x2="132.000000" y2="40.000000"  style="stroke:black; stroke-linecap:round; stroke-width:0.25;"/>
<line x1="128.000000" y1="80.000000" x2="132.000000" y2="80.000000"  style="stroke:black; stroke-linecap:round; stroke-width:0.25;"/>
<line x1="128.000000" y1="120.000000" x2="132.000000" y2="120.000000"  style="stroke:black; stroke-linecap:round; stroke-width:0.25;"/>
<line x1="128.000000" y1="160.000000" x2="132.000000" y2="160.000000"  style="stroke:black; stroke-linecap:round; stroke-width:0.25;"/>
<line x1="128.000000" y1="200.000000" x2="132.000000" y2="200.000000"  style="stroke:black; stroke-linecap:round; stroke-width:0.25;"/>
<line x1="128.000000" y1="240.000000" x2="132.000000" y2="240.000000"  style="stroke:black; stroke-linecap:round; stroke-width:0.25;"/>
<line x1="128.000000" y1="280.000000" x2="132.000000" y2="280.000000"  style="stroke:black; stroke-linecap:round; stroke-width:0.25;"/>
<line x1="128.000000" y1="320.000000" x2="132.000000" y2="320.000000"  style="stroke:black; stroke-linecap:round; stroke-width:0.25;"/>
<line x1="132.000000" y1="40.000000" x2="164.000000" y2="40.000000"  style="stroke:black; stroke-linecap:round; stroke-width:0.25;"/>
<line x1="132.000000" y1="80.000000" x2="156.000000" y2="80.000000"  style="stroke:black; stroke-linecap:round; stroke-width:0.25;"/>
<line x1="132.000000" y1="120.000000" x2="148.000000" y2="120.000000"  style="stroke:black; stroke-linecap:round; stroke-width:0.25;"/>
<line x1="132.000000" y1="160.000000" x2="140.000000" y2="160.000000"  style="stroke:black; stroke-linecap:round; stroke-width:0.25;"/>
<line x1="132.000000" y1="184.000000" x2="164.000000" y2="184.000000"  style="stroke:black; stroke-linecap:round; stroke-width:0.25;"/>
<line x1="132.000000" y1="200.000000" x2="132.000000" y2="184.000000"  style="stroke:black; stroke-linecap:round; stroke-width:0.25;"/>
<line x1="132.000000" y1="200.000000" x2="132.000000" y2="200.000000"  style="stroke:black; stroke-linecap:round; stroke-width:0.25;"/>
<line x1="132.000000" y1="240.000000" x2="140.000000" y2="240.000000"  style="stroke:black; stroke-linecap:round; stroke-width:0.25;"/>
<line x1="132.000000" y1="280.000000" x2="148.000000" y2="280.000000"  style="stroke:black; stroke-linecap:round; stroke-width:0.25;"/>
<line x1="132.000000" y1="320.000000" x2="156.000000" y2="320.000000"  style="stroke:black; stroke-linecap:round; stroke-width:0.25;"/>
<line x1="140.000000" y1="160.000000" x2="140.000000" y2="176.000000"  style="stroke:black; stroke-linecap:round; stroke-width:0.25;"/>
<line x1="140.000000" y1="176.000000" x2="164.000000" y2="176.000000"  style="stroke:black; stroke-linecap:round; stroke-width:0.25;"/>
<line x1="140.000000" y1="192.000000" x2="164.000000" y2="192.000000"  style="stroke:black; stroke-linecap:round; stroke-width:0.25;"/>
<line x1="140.000000" y1="240.000000" x2="140.000000" y2="192.000000"  style="stroke:black; stroke-linecap:round; stroke-width:0.25;"/>
<line x1="148.000000" y1="120.000000" x2="148.000000" y2="168.000000"  style="stroke:black; stroke-linecap:round; stroke-width:0.25;"/>
<line x1="148.000000" y1="168.000000" x2="164.000000" y2="168.000000"  style="stroke:black; stroke-linecap:round; stroke-width:0.25;"/>
<line x1="148.000000" y1="200.000000" x2="164.000000" y2="200.000000"  style="stroke:black; stroke-linecap:round; stroke-width:0.25;"/>
<line x1="148.000000" y1="280.000000" x2="148.000000" y2="200.000000"  style="stroke:black; stroke-linecap:round; stroke-width:0.25;"/>
<line x1="156.000000" y1="80.000000" x2="156.000000" y2="160.000000"  style="stroke:black; stroke-linecap:round; stroke-width:0.25;"/>
<line x1="156.000000" y1="160.000000" x2="164.000000" y2="160.000000"  style="stroke:black; stroke-linecap:round; stroke-width:0.25;"/>
<line x1="156.000000" y1="208.000000" x2="164.000000" y2="208.000000"  style="stroke:black; stroke-linecap:round; stroke-width:0.25;"/>
<line x1="156.000000" y1="320.000000" x2="156.000000" y2="208.000000"  style="stroke:black; stroke-linecap:round; stroke-width:0.25;"/>
<line x1="164.000000" y1="40.000000" x2="164.000000" y2="152.000000"  style="stroke:black; stroke-linecap:round; stroke-width:0.25;"/>
<line x1="164.000000" y1="152.000000" x2="164.000000" y2="152.000000"  style="stroke:black; stroke-linecap:round; stroke-width:0.25;"/>
<line x1="164.000000" y1="152.000000" x2="168.000000" y2="152.000000"  style="stroke:black; stroke-linecap:round; stroke-width:0.25;"/>
<line x1="164.000000" y1="160.000000" x2="168.000000" y2="160.000000"  style="stroke:black; stroke-linecap:round; stroke-width:0.25;"/>
<line x1="164.000000" y1="168.000000" x2="168.000000" y2="168.000000"  style="stroke:black; stroke-linecap:round; stroke-width:0.25;"/>
<line x1="164.000000" y1="176.000000" x2="168.000000" y2="176.000000"  style="stroke:black; stroke-linecap:round; stroke-width:0.25;"/>
<line x1="164.000000" y1="184.000000" x2="168.000000" y2="184.000000"  style="stroke:black; stroke-linecap:round; stroke-width:0.25;"/>
<line x1="164.000000" y1="192.000000" x2="168.000000" y2="192.000000"  style="stroke:black; stroke-linecap:round; stroke-width:0.25;"/>
<line x1="164.000000" y1="200.000000" x2="168.000000" y2="200.000000"  style="stroke:black; stroke-linecap:round; stroke-width:0.25;"/>
<line x1="164.000000" y1="208.000000" x2="168.000000" y2="208.000000"  style="stroke:black; stroke-linecap:round; stroke-width:0.25;"/>
<line x1="168.000000" y1="152.000000" x2="172.000000" y2="152.000000"  style="stroke:black; stroke-linecap:round; stroke-width:0.25;"/>
<line x1="168.000000" y1="160.000000" x2="172.000000" y2="160.000000"  style="stroke:black; stroke-linecap:round; stroke-width:0.25;"/>
<line x1="168.000000" y1="168.000000" x2="172.000000" y2="168.000000"  style="stroke:black; stroke-linecap:round; stroke-width:0.25;"/>
<line x1="168.000000" y1="176.000000" x2="172.000000" y2="176.000000"  style="stroke:black; stroke-linecap:round; stroke-width:0.25;"/>
<line x1="168.000000" y1="184.000000" x2="172.000000" y2="184.000000"  style="stroke:black; stroke-linecap:round; stroke-width:0.25;"/>
<line x1="168.000000" y1="192.000000" x2="172.000000" y2="192.000000"  style="stroke:black; stroke-linecap:round; stroke-width:0.25;"/>
<line x1="168.000000" y1="200.000000" x2="172.000000" y2="200.000000"  style="stroke:black; stroke-linecap:round; stroke-width:0.25;"/>
<line x1="168.000000" y1="208.000000" x2="172.000000" y2="208.000000"  style="stroke:black; stroke-linecap:round; stroke-width:0.25;"/>
<line x1="172.000000" y1="152.000000" x2="182.000000" y2="152.000000"  style="stroke:black; stroke-linecap:round; stroke-width:0.25;"/>
<line x1="172.000000" y1="160.000000" x2="182.000000" y2="160.000000"  style="stroke:black; stroke-linecap:round; stroke-width:0.25;"/>
<line x1="172.000000" y1="168.000000" x2="182.000000" y2="168.000000"  style="stroke:black; stroke-linecap:round; stroke-width:0.25;"/>
<line x1="172.000000" y1="176.000000" x2="182.000000" y2="176.000000"  style="stroke:black; stroke-linecap:round; stroke-width:0.25;"/>
<line x1="172.000000" y1="184.000000" x2="182.000000" y2="184.000000"  style="stroke:black; stroke-linecap:round; stroke-width:0.25;"/>
<line x1="172.000000" y1="192.000000" x2="182.000000" y2="192.000000"  style="stroke:black; stroke-linecap:round; stroke-width:0.25;"/>
<line x1="172.000000" y1="200.000000" x2="182.000000" y2="200.000000"  style="stroke:black; stroke-linecap:round; stroke-width:0.25;"/>
<line x1="172.000000" y1="208.000000" x2="182.000000" y2="208.000000"  style="stroke:black; stroke-linecap:round; stroke-width:0.25;"/>
</svg>
