<?xml version="1.0"?>
<svg xmlns="http://www.w3.org/2000/svg" xmlns:xlink="http://www.w3.org/1999/xlink" viewBox="0 0 228.100000 360.000000" width="114.050000mm" height="180.000000mm" version="1.1">
<a xlink:href="Network-0x6000531c79f0.svg">
<rect x="0.000000" y="0.000000" width="227.100000" height="359.000000" rx="0" ry="0" style="stroke:#000000;fill:#FFFFFF;"/>
</a>
<text x="10.000000" y="7.000000" font-family="Verdana" font-size="7"></text>
<rect x="78.450000" y="24.000000" width="51.600000" height="24.000000" rx="0" ry="0" style="stroke:#000000;fill:#FFFFFF;"/>
<text x="104.250000" y="38.000000" font-family="Verdana" font-size="7" text-anchor="middle" fill="#000000">[109] preset</text>
<circle cx="80.450000" cy="26.000000" r="1"/>
<line x1="75.450000" y1="35.000000" x2="78.450000" y2="36.000000"  transform="rotate(0.000000,78.450000,36.000000)" style="stroke: black; stroke-width:0.25;"/>
<line x1="75.450000" y1="37.000000" x2="78.450000" y2="36.000000"  transform="rotate(0.000000,78.450000,36.000000)" style="stroke: black; stroke-width:0.25;"/>
<rect x="78.450000" y="56.000000" width="51.600000" height="24.000000" rx="0" ry="0" style="stroke:#000000;fill:#FFFFFF;"/>
<text x="104.250000" y="70.000000" font-family="Verdana" font-size="7" text-anchor="middle" fill="#000000">[110] smooth</text>
<circle cx="80.450000" cy="58.000000" r="1"/>
<line x1="75.450000" y1="67.000000" x2="78.450000" y2="68.000000"  transform="rotate(0.000000,78.450000,68.000000)" style="stroke: black; stroke-width:0.25;"/>
<line x1="75.450000" y1="69.000000" x2="78.450000" y2="68.000000"  transform="rotate(0.000000,78.450000,68.000000)" style="stroke: black; stroke-width:0.25;"/>
<rect x="72.000000" y="88.000000" width="64.500000" height="24.000000" rx="0" ry="0" style="stroke:#000000;fill:#FFFFFF;"/>
<text x="104.250000" y="102.000000" font-family="Verdana" font-size="7" text-anchor="middle" fill="#000000">[111] bandwidth</text>
<circle cx="74.000000" cy="90.000000" r="1"/>
<line x1="69.000000" y1="99.000000" x2="72.000000" y2="100.000000"  transform="rotate(0.000000,72.000000,100.000000)" style="stroke: black; stroke-width:0.25;"/>
<line x1="69.000000" y1="101.000000" x2="72.000000" y2="100.000000"  transform="rotate(0.000000,72.000000,100.000000)" style="stroke: black; stroke-width:0.25;"/>
<rect x="72.000000" y="120.000000" width="64.500000" height="24.000000" rx="0" ry="0" style="stroke:#000000;fill:#FFFFFF;"/>
<text x="104.250000" y="134.000000" font-family="Verdana" font-size="7" text-anchor="middle" fill="#000000">[112] freqshift</text>
<circle cx="74.000000" cy="122.000000" r="1"/>
<line x1="69.000000" y1="131.000000" x2="72.000000" y2="132.000000"  transform="rotate(0.000000,72.000000,132.000000)" style="stroke: black; stroke-width:0.25;"/>
<line x1="69.000000" y1="133.000000" x2="72.000000" y2="132.000000"  transform="rotate(0.000000,72.000000,132.000000)" style="stroke: black; stroke-width:0.25;"/>
<rect x="78.450000" y="152.000000" width="51.600000" height="24.000000" rx="0" ry="0" style="stroke:#000000;fill:#FFFFFF;"/>
<text x="104.250000" y="166.000000" font-family="Verdana" font-size="7" text-anchor="middle" fill="#000000">[113] gain</text>
<circle cx="80.450000" cy="154.000000" r="1"/>
<line x1="75.450000" y1="163.000000" x2="78.450000" y2="164.000000"  transform="rotate(0.000000,78.450000,164.000000)" style="stroke: black; stroke-width:0.25;"/>
<line x1="75.450000" y1="165.000000" x2="78.450000" y2="164.000000"  transform="rotate(0.000000,78.450000,164.000000)" style="stroke: black; stroke-width:0.25;"/>
<rect x="72.000000" y="184.000000" width="64.500000" height="24.000000" rx="0" ry="0" style="stroke:#000000;fill:#FFFFFF;"/>
<text x="104.250000" y="198.000000" font-family="Verdana" font-size="7" text-anchor="middle" fill="#000000">[114] damping</text>
<circle cx="74.000000" cy="186.000000" r="1"/>
<line x1="69.000000" y1="195.000000" x2="72.000000" y2="196.000000"  transform="rotate(0.000000,72.000000,196.000000)" style="stroke: black; stroke-width:0.25;"/>
<line x1="69.000000" y1="197.000000" x2="72.000000" y2="196.000000"  transform="rotate(0.000000,72.000000,196.000000)" style="stroke: black; stroke-width:0.25;"/>
<rect x="84.900000" y="216.000000" width="38.700000" height="24.000000" rx="0" ry="0" style="stroke:#000000;fill:#FFFFFF;"/>
<text x="104.250000" y="230.000000" font-family="Verdana" font-size="7" text-anchor="middle" fill="#000000">[115] mod</text>
<circle cx="86.900000" cy="218.000000" r="1"/>
<line x1="81.900000" y1="227.000000" x2="84.900000" y2="228.000000"  transform="rotate(0.000000,84.900000,228.000000)" style="stroke: black; stroke-width:0.25;"/>
<line x1="81.900000" y1="229.000000" x2="84.900000" y2="228.000000"  transform="rotate(0.000000,84.900000,228.000000)" style="stroke: black; stroke-width:0.25;"/>
<rect x="78.450000" y="248.000000" width="51.600000" height="24.000000" rx="0" ry="0" style="stroke:#000000;fill:#FFFFFF;"/>
<text x="104.250000" y="262.000000" font-family="Verdana" font-size="7" text-anchor="middle" fill="#000000">[116] rate</text>
<circle cx="80.450000" cy="250.000000" r="1"/>
<line x1="75.450000" y1="259.000000" x2="78.450000" y2="260.000000"  transform="rotate(0.000000,78.450000,260.000000)" style="stroke: black; stroke-width:0.25;"/>
<line x1="75.450000" y1="261.000000" x2="78.450000" y2="260.000000"  transform="rotate(0.000000,78.450000,260.000000)" style="stroke: black; stroke-width:0.25;"/>
<rect x="78.450000" y="280.000000" width="51.600000" height="24.000000" rx="0" ry="0" style="stroke:#000000;fill:#FFFFFF;"/>
<text x="104.250000" y="294.000000" font-family="Verdana" font-size="7" text-anchor="middle" fill="#000000">[117] netSig</text>
<circle cx="80.450000" cy="282.000000" r="1"/>
<line x1="75.450000" y1="291.000000" x2="78.450000" y2="292.000000"  transform="rotate(0.000000,78.450000,292.000000)" style="stroke: black; stroke-width:0.25;"/>
<line x1="75.450000" y1="293.000000" x2="78.450000" y2="292.000000"  transform="rotate(0.000000,78.450000,292.000000)" style="stroke: black; stroke-width:0.25;"/>
<rect x="78.450000" y="312.000000" width="51.600000" height="24.000000" rx="0" ry="0" style="stroke:#000000;fill:#FFFFFF;"/>
<text x="104.250000" y="326.000000" font-family="Verdana" font-size="7" text-anchor="middle" fill="#000000">[118] micSig</text>
<circle cx="80.450000" cy="314.000000" r="1"/>
<line x1="75.450000" y1="323.000000" x2="78.450000" y2="324.000000"  transform="rotate(0.000000,78.450000,324.000000)" style="stroke: black; stroke-width:0.25;"/>
<line x1="75.450000" y1="325.000000" x2="78.450000" y2="324.000000"  transform="rotate(0.000000,78.450000,324.000000)" style="stroke: black; stroke-width:0.25;"/>
<a xlink:href="oscillator-0x600013351050.svg">
<rect x="144.500000" y="168.000000" width="51.600000" height="24.000000" rx="0" ry="0" style="stroke:#000000;fill:#FFFFFF;"/>
</a>
<a xlink:href="oscillator-0x600013351050.svg">
<text x="170.300000" y="182.000000" font-family="Verdana" font-size="7" text-anchor="middle" fill="#000000">oscillator</text>
</a>
<circle cx="146.500000" cy="170.000000" r="1"/>
<line x1="15.000000" y1="15.000000" x2="15.000000" y2="345.000000"  style="stroke: black; stroke-linecap:round; stroke-width:0.25; stroke-dasharray:3,3;"/>
<line x1="15.000000" y1="345.000000" x2="213.100000" y2="345.000000"  style="stroke: black; stroke-linecap:round; stroke-width:0.25; stroke-dasharray:3,3;"/>
<line x1="213.100000" y1="345.000000" x2="213.100000" y2="15.000000"  style="stroke: black; stroke-linecap:round; stroke-width:0.25; stroke-dasharray:3,3;"/>
<line x1="15.000000" y1="15.000000" x2="20.000000" y2="15.000000"  style="stroke: black; stroke-linecap:round; stroke-width:0.25; stroke-dasharray:3,3;"/>
<line x1="81.275000" y1="15.000000" x2="213.100000" y2="15.000000"  style="stroke: black; stroke-linecap:round; stroke-width:0.25; stroke-dasharray:3,3;"/>
<text x="20.000000" y="17.000000" font-family="Verdana" font-size="7">duffing(0)(24)(1)</text>
<line x1="215.100000" y1="179.000000" x2="218.100000" y2="180.000000"  transform="rotate(0.000000,218.100000,180.000000)" style="stroke: black; stroke-width:0.25;"/>
<line x1="215.100000" y1="181.000000" x2="218.100000" y2="180.000000"  transform="rotate(0.000000,218.100000,180.000000)" style="stroke: black; stroke-width:0.25;"/>
<line x1="10.000000" y1="144.000000" x2="20.000000" y2="144.000000"  style="stroke:black; stroke-linecap:round; stroke-width:0.25;"/>
<line x1="10.000000" y1="152.000000" x2="20.000000" y2="152.000000"  style="stroke:black; stroke-linecap:round; stroke-width:0.25;"/>
<line x1="10.000000" y1="160.000000" x2="20.000000" y2="160.000000"  style="stroke:black; stroke-linecap:round; stroke-width:0.25;"/>
<line x1="10.000000" y1="168.000000" x2="20.000000" y2="168.000000"  style="stroke:black; stroke-linecap:round; stroke-width:0.25;"/>
<line x1="10.000000" y1="176.000000" x2="20.000000" y2="176.000000"  style="stroke:black; stroke-linecap:round; stroke-width:0.25;"/>
<line x1="10.000000" y1="184.000000" x2="20.000000" y2="184.000000"  style="stroke:black; stroke-linecap:round; stroke-width:0.25;"/>
<line x1="10.000000" y1="192.000000" x2="20.000000" y2="192.000000"  style="stroke:black; stroke-linecap:round; stroke-width:0.25;"/>
<line x1="10.000000" y1="200.000000" x2="20.000000" y2="200.000000"  style="stroke:black; stroke-linecap:round; stroke-width:0.25;"/>
<line x1="10.000000" y1="208.000000" x2="20.000000" y2="208.000000"  style="stroke:black; stroke-linecap:round; stroke-width:0.25;"/>
<line x1="10.000000" y1="216.000000" x2="20.000000" y2="216.000000"  style="stroke:black; stroke-linecap:round; stroke-width:0.25;"/>
<line x1="20.000000" y1="144.000000" x2="24.000000" y2="144.000000"  style="stroke:black; stroke-linecap:round; stroke-width:0.25;"/>
<line x1="20.000000" y1="152.000000" x2="24.000000" y2="152.000000"  style="stroke:black; stroke-linecap:round; stroke-width:0.25;"/>
<line x1="20.000000" y1="160.000000" x2="24.000000" y2="160.000000"  style="stroke:black; stroke-linecap:round; stroke-width:0.25;"/>
<line x1="20.000000" y1="168.000000" x2="24.000000" y2="168.000000"  style="stroke:black; stroke-linecap:round; stroke-width:0.25;"/>
<line x1="20.000000" y1="176.000000" x2="24.000000" y2="176.000000"  style="stroke:black; stroke-linecap:round; stroke-width:0.25;"/>
<line x1="20.000000" y1="184.000000" x2="24.000000" y2="184.000000"  style="stroke:black; stroke-linecap:round; stroke-width:0.25;"/>
<line x1="20.000000" y1="192.000000" x2="24.000000" y2="192.000000"  style="stroke:black; stroke-linecap:round; stroke-width:0.25;"/>
<line x1="20.000000" y1="200.000000" x2="24.000000" y2="200.000000"  style="stroke:black; stroke-linecap:round; stroke-width:0.25;"/>
<line x1="20.000000" y1="208.000000" x2="24.000000" y2="208.000000"  style="stroke:black; stroke-linecap:round; stroke-width:0.25;"/>
<line x1="20.000000" y1="216.000000" x2="24.000000" y2="216.000000"  style="stroke:black; stroke-linecap:round; stroke-width:0.25;"/>
<line x1="24.000000" y1="144.000000" x2="28.000000" y2="144.000000"  style="stroke:black; stroke-linecap:round; stroke-width:0.25;"/>
<line x1="24.000000" y1="152.000000" x2="28.000000" y2="152.000000"  style="stroke:black; stroke-linecap:round; stroke-width:0.25;"/>
<line x1="24.000000" y1="160.000000" x2="28.000000" y2="160.000000"  style="stroke:black; stroke-linecap:round; stroke-width:0.25;"/>
<line x1="24.000000" y1="168.000000" x2="28.000000" y2="168.000000"  style="stroke:black; stroke-linecap:round; stroke-width:0.25;"/>
<line x1="24.000000" y1="176.000000" x2="28.000000" y2="176.000000"  style="stroke:black; stroke-linecap:round; stroke-width:0.25;"/>
<line x1="24.000000" y1="184.000000" x2="28.000000" y2="184.000000"  style="stroke:black; stroke-linecap:round; stroke-width:0.25;"/>
<line x1="24.000000" y1="192.000000" x2="28.000000" y2="192.000000"  style="stroke:black; stroke-linecap:round; stroke-width:0.25;"/>
<line x1="24.000000" y1="200.000000" x2="28.000000" y2="200.000000"  style="stroke:black; stroke-linecap:round; stroke-width:0.25;"/>
<line x1="24.000000" y1="208.000000" x2="28.000000" y2="208.000000"  style="stroke:black; stroke-linecap:round; stroke-width:0.25;"/>
<line x1="24.000000" y1="216.000000" x2="28.000000" y2="216.000000"  style="stroke:black; stroke-linecap:round; stroke-width:0.25;"/>
<line x1="28.000000" y1="36.000000" x2="68.000000" y2="36.000000"  style="stroke:black; stroke-linecap:round; stroke-width:0.25;"/>
<line x1="28.000000" y1="144.000000" x2="28.000000" y2="36.000000"  style="stroke:black; stroke-linecap:round; stroke-width:0.25;"/>
<line x1="28.000000" y1="144.000000" x2="28.000000" y2="144.000000"  style="stroke:black; stroke-linecap:round; stroke-width:0.25;"/>
<line x1="28.000000" y1="152.000000" x2="36.000000" y2="152.000000"  style="stroke:black; stroke-linecap:round; stroke-width:0.25;"/>
<line x1="28.000000" y1="160.000000" x2="44.000000" y2="160.000000"  style="stroke:black; stroke-linecap:round; stroke-width:0.25;"/>
<line x1="28.000000" y1="168.000000" x2="52.000000" y2="168.000000"  style="stroke:black; stroke-linecap:round; stroke-width:0.25;"/>
<line x1="28.000000" y1="176.000000" x2="60.000000" y2="176.000000"  style="stroke:black; stroke-linecap:round; stroke-width:0.25;"/>
<line x1="28.000000" y1="184.000000" x2="68.000000" y2="184.000000"  style="stroke:black; stroke-linecap:round; stroke-width:0.25;"/>
<line x1="28.000000" y1="192.000000" x2="60.000000" y2="192.000000"  style="stroke:black; stroke-linecap:round; stroke-width:0.25;"/>
<line x1="28.000000" y1="200.000000" x2="52.000000" y2="200.000000"  style="stroke:black; stroke-linecap:round; stroke-width:0.25;"/>
<line x1="28.000000" y1="208.000000" x2="44.000000" y2="208.000000"  style="stroke:black; stroke-linecap:round; stroke-width:0.25;"/>
<line x1="28.000000" y1="216.000000" x2="36.000000" y2="216.000000"  style="stroke:black; stroke-linecap:round; stroke-width:0.25;"/>
<line x1="36.000000" y1="68.000000" x2="68.000000" y2="68.000000"  style="stroke:black; stroke-linecap:round; stroke-width:0.25;"/>
<line x1="36.000000" y1="152.000000" x2="36.000000" y2="68.000000"  style="stroke:black; stroke-linecap:round; stroke-width:0.25;"/>
<line x1="36.000000" y1="216.000000" x2="36.000000" y2="324.000000"  style="stroke:black; stroke-linecap:round; stroke-width:0.25;"/>
<line x1="36.000000" y1="324.000000" x2="68.000000" y2="324.000000"  style="stroke:black; stroke-linecap:round; stroke-width:0.25;"/>
<line x1="44.000000" y1="100.000000" x2="68.000000" y2="100.000000"  style="stroke:black; stroke-linecap:round; stroke-width:0.25;"/>
<line x1="44.000000" y1="160.000000" x2="44.000000" y2="100.000000"  style="stroke:black; stroke-linecap:round; stroke-width:0.25;"/>
<line x1="44.000000" y1="208.000000" x2="44.000000" y2="292.000000"  style="stroke:black; stroke-linecap:round; stroke-width:0.25;"/>
<line x1="44.000000" y1="292.000000" x2="68.000000" y2="292.000000"  style="stroke:black; stroke-linecap:round; stroke-width:0.25;"/>
<line x1="52.000000" y1="132.000000" x2="68.000000" y2="132.000000"  style="stroke:black; stroke-linecap:round; stroke-width:0.25;"/>
<line x1="52.000000" y1="168.000000" x2="52.000000" y2="132.000000"  style="stroke:black; stroke-linecap:round; stroke-width:0.25;"/>
<line x1="52.000000" y1="200.000000" x2="52.000000" y2="260.000000"  style="stroke:black; stroke-linecap:round; stroke-width:0.25;"/>
<line x1="52.000000" y1="260.000000" x2="68.000000" y2="260.000000"  style="stroke:black; stroke-linecap:round; stroke-width:0.25;"/>
<line x1="60.000000" y1="164.000000" x2="68.000000" y2="164.000000"  style="stroke:black; stroke-linecap:round; stroke-width:0.25;"/>
<line x1="60.000000" y1="176.000000" x2="60.000000" y2="164.000000"  style="stroke:black; stroke-linecap:round; stroke-width:0.25;"/>
<line x1="60.000000" y1="192.000000" x2="60.000000" y2="228.000000"  style="stroke:black; stroke-linecap:round; stroke-width:0.25;"/>
<line x1="60.000000" y1="228.000000" x2="68.000000" y2="228.000000"  style="stroke:black; stroke-linecap:round; stroke-width:0.25;"/>
<line x1="68.000000" y1="36.000000" x2="74.450000" y2="36.000000"  style="stroke:black; stroke-linecap:round; stroke-width:0.25;"/>
<line x1="68.000000" y1="68.000000" x2="74.450000" y2="68.000000"  style="stroke:black; stroke-linecap:round; stroke-width:0.25;"/>
<line x1="68.000000" y1="100.000000" x2="72.000000" y2="100.000000"  style="stroke:black; stroke-linecap:round; stroke-width:0.25;"/>
<line x1="68.000000" y1="132.000000" x2="72.000000" y2="132.000000"  style="stroke:black; stroke-linecap:round; stroke-width:0.25;"/>
<line x1="68.000000" y1="164.000000" x2="74.450000" y2="164.000000"  style="stroke:black; stroke-linecap:round; stroke-width:0.25;"/>
<line x1="68.000000" y1="184.000000" x2="68.000000" y2="196.000000"  style="stroke:black; stroke-linecap:round; stroke-width:0.25;"/>
<line x1="68.000000" y1="196.000000" x2="68.000000" y2="196.000000"  style="stroke:black; stroke-linecap:round; stroke-width:0.25;"/>
<line x1="68.000000" y1="196.000000" x2="72.000000" y2="196.000000"  style="stroke:black; stroke-linecap:round; stroke-width:0.25;"/>
<line x1="68.000000" y1="228.000000" x2="80.900000" y2="228.000000"  style="stroke:black; stroke-linecap:round; stroke-width:0.25;"/>
<line x1="68.000000" y1="260.000000" x2="74.450000" y2="260.000000"  style="stroke:black; stroke-linecap:round; stroke-width:0.25;"/>
<line x1="68.000000" y1="292.000000" x2="74.450000" y2="292.000000"  style="stroke:black; stroke-linecap:round; stroke-width:0.25;"/>
<line x1="68.000000" y1="324.000000" x2="74.450000" y2="324.000000"  style="stroke:black; stroke-linecap:round; stroke-width:0.25;"/>
<line x1="74.450000" y1="36.000000" x2="78.450000" y2="36.000000"  style="stroke:black; stroke-linecap:round; stroke-width:0.25;"/>
<line x1="74.450000" y1="68.000000" x2="78.450000" y2="68.000000"  style="stroke:black; stroke-linecap:round; stroke-width:0.25;"/>
<line x1="74.450000" y1="164.000000" x2="78.450000" y2="164.000000"  style="stroke:black; stroke-linecap:round; stroke-width:0.25;"/>
<line x1="74.450000" y1="260.000000" x2="78.450000" y2="260.000000"  style="stroke:black; stroke-linecap:round; stroke-width:0.25;"/>
<line x1="74.450000" y1="292.000000" x2="78.450000" y2="292.000000"  style="stroke:black; stroke-linecap:round; stroke-width:0.25;"/>
<line x1="74.450000" y1="324.000000" x2="78.450000" y2="324.000000"  style="stroke:black; stroke-linecap:round; stroke-width:0.25;"/>
<line x1="80.900000" y1="228.000000" x2="84.900000" y2="228.000000"  style="stroke:black; stroke-linecap:round; stroke-width:0.25;"/>
<line x1="196.100000" y1="180.000000" x2="200.100000" y2="180.000000"  style="stroke:black; stroke-linecap:round; stroke-width:0.25;"/>
<line x1="200.100000" y1="180.000000" x2="200.100000" y2="180.000000"  style="stroke:black; stroke-linecap:round; stroke-width:0.25;"/>
<line x1="200.100000" y1="180.000000" x2="204.100000" y2="180.000000"  style="stroke:black; stroke-linecap:round; stroke-width:0.25;"/>
<line x1="204.100000" y1="180.000000" x2="208.100000" y2="180.000000"  style="stroke:black; stroke-linecap:round; stroke-width:0.25;"/>
<line x1="208.100000" y1="180.000000" x2="218.100000" y2="180.000000"  style="stroke:black; stroke-linecap:round; stroke-width:0.25;"/>
</svg>
