<?xml version="1.0"?>
<svg xmlns="http://www.w3.org/2000/svg" xmlns:xlink="http://www.w3.org/1999/xlink" viewBox="0 0 453.600000 136.000000" width="226.800000mm" height="68.000000mm" version="1.1">
<a xlink:href="LookaheadLimiter-0x60004b3d7450.svg">
<rect x="0.000000" y="0.000000" width="452.600000" height="135.000000" rx="0" ry="0" style="stroke:#000000;fill:#FFFFFF;"/>
</a>
<text x="10.000000" y="7.000000" font-family="Verdana" font-size="7"></text>
<rect x="189.900000" y="24.000000" width="25.800000" height="24.000000" rx="0" ry="0" style="stroke:#000000;fill:#FFFFFF;"/>
<text x="202.800000" y="38.000000" font-family="Verdana" font-size="7" text-anchor="middle" fill="#000000">0.78f</text>
<circle cx="191.900000" cy="26.000000" r="1"/>
<rect x="94.950000" y="56.000000" width="25.800000" height="24.000000" rx="0" ry="0" style="stroke:#000000;fill:#FFFFFF;"/>
<text x="107.850000" y="70.000000" font-family="Verdana" font-size="7" text-anchor="middle" fill="#000000">0.78f</text>
<circle cx="96.950000" cy="58.000000" r="1"/>
<a xlink:href="peakHoldCascade-0x60004b3959e0.svg">
<rect x="24.000000" y="88.000000" width="167.700000" height="24.000000" rx="0" ry="0" style="stroke:#000000;fill:#FFFFFF;"/>
</a>
<a xlink:href="peakHoldCascade-0x60004b3959e0.svg">
<text x="107.850000" y="102.000000" font-family="Verdana" font-size="7" text-anchor="middle" fill="#000000">peakHoldCascade(8)(0.11f)(x1790 : abs)</text>
</a>
<circle cx="26.000000" cy="90.000000" r="1"/>
<rect x="207.700000" y="72.000000" width="24.000000" height="24.000000" rx="0" ry="0" style="stroke:#000000;fill:#FFFFFF;"/>
<text x="219.700000" y="86.000000" font-family="Verdana" font-size="7" text-anchor="middle" fill="#000000">max</text>
<circle cx="209.700000" cy="74.000000" r="1"/>
<line x1="204.700000" y1="79.000000" x2="207.700000" y2="80.000000"  transform="rotate(0.000000,207.700000,80.000000)" style="stroke: black; stroke-width:0.25;"/>
<line x1="204.700000" y1="81.000000" x2="207.700000" y2="80.000000"  transform="rotate(0.000000,207.700000,80.000000)" style="stroke: black; stroke-width:0.25;"/>
<line x1="204.700000" y1="87.000000" x2="207.700000" y2="88.000000"  transform="rotate(0.000000,207.700000,88.000000)" style="stroke: black; stroke-width:0.25;"/>
<line x1="204.700000" y1="89.000000" x2="207.700000" y2="88.000000"  transform="rotate(0.000000,207.700000,88.000000)" style="stroke: black; stroke-width:0.25;"/>
<a xlink:href="smootherCascade-0x60004b3d70f0.svg">
<rect x="239.700000" y="72.000000" width="141.900000" height="24.000000" rx="0" ry="0" style="stroke:#000000;fill:#FFFFFF;"/>
</a>
<a xlink:href="smootherCascade-0x60004b3d70f0.svg">
<text x="310.650000" y="86.000000" font-family="Verdana" font-size="7" text-anchor="middle" fill="#000000">smootherCascade(4)(0.01f)(0.1f)</text>
</a>
<circle cx="241.700000" cy="74.000000" r="1"/>
<line x1="236.700000" y1="83.000000" x2="239.700000" y2="84.000000"  transform="rotate(0.000000,239.700000,84.000000)" style="stroke: black; stroke-width:0.25;"/>
<line x1="236.700000" y1="85.000000" x2="239.700000" y2="84.000000"  transform="rotate(0.000000,239.700000,84.000000)" style="stroke: black; stroke-width:0.25;"/>
<rect x="397.600000" y="56.000000" width="24.000000" height="24.000000" rx="0" ry="0" style="stroke:#000000;fill:#FFFFFF;"/>
<text x="409.600000" y="70.000000" font-family="Verdana" font-size="7" text-anchor="middle" fill="#000000">/</text>
<circle cx="399.600000" cy="58.000000" r="1"/>
<line x1="394.600000" y1="63.000000" x2="397.600000" y2="64.000000"  transform="rotate(0.000000,397.600000,64.000000)" style="stroke: black; stroke-width:0.25;"/>
<line x1="394.600000" y1="65.000000" x2="397.600000" y2="64.000000"  transform="rotate(0.000000,397.600000,64.000000)" style="stroke: black; stroke-width:0.25;"/>
<line x1="394.600000" y1="71.000000" x2="397.600000" y2="72.000000"  transform="rotate(0.000000,397.600000,72.000000)" style="stroke: black; stroke-width:0.25;"/>
<line x1="394.600000" y1="73.000000" x2="397.600000" y2="72.000000"  transform="rotate(0.000000,397.600000,72.000000)" style="stroke: black; stroke-width:0.25;"/>
<line x1="15.000000" y1="15.000000" x2="15.000000" y2="121.000000"  style="stroke: black; stroke-linecap:round; stroke-width:0.25; stroke-dasharray:3,3;"/>
<line x1="15.000000" y1="121.000000" x2="438.600000" y2="121.000000"  style="stroke: black; stroke-linecap:round; stroke-width:0.25; stroke-dasharray:3,3;"/>
<line x1="438.600000" y1="121.000000" x2="438.600000" y2="15.000000"  style="stroke: black; stroke-linecap:round; stroke-width:0.25; stroke-dasharray:3,3;"/>
<line x1="15.000000" y1="15.000000" x2="20.000000" y2="15.000000"  style="stroke: black; stroke-linecap:round; stroke-width:0.25; stroke-dasharray:3,3;"/>
<line x1="119.975000" y1="15.000000" x2="438.600000" y2="15.000000"  style="stroke: black; stroke-linecap:round; stroke-width:0.25; stroke-dasharray:3,3;"/>
<text x="20.000000" y="17.000000" font-family="Verdana" font-size="7">gainAttenuati...(x1790 : abs)</text>
<line x1="440.600000" y1="67.000000" x2="443.600000" y2="68.000000"  transform="rotate(0.000000,443.600000,68.000000)" style="stroke: black; stroke-width:0.25;"/>
<line x1="440.600000" y1="69.000000" x2="443.600000" y2="68.000000"  transform="rotate(0.000000,443.600000,68.000000)" style="stroke: black; stroke-width:0.25;"/>
<line x1="120.750000" y1="68.000000" x2="124.750000" y2="68.000000"  style="stroke:black; stroke-linecap:round; stroke-width:0.25;"/>
<line x1="124.750000" y1="68.000000" x2="195.700000" y2="68.000000"  style="stroke:black; stroke-linecap:round; stroke-width:0.25;"/>
<line x1="191.700000" y1="100.000000" x2="195.700000" y2="100.000000"  style="stroke:black; stroke-linecap:round; stroke-width:0.25;"/>
<line x1="195.700000" y1="68.000000" x2="203.700000" y2="68.000000"  style="stroke:black; stroke-linecap:round; stroke-width:0.25;"/>
<line x1="195.700000" y1="88.000000" x2="203.700000" y2="88.000000"  style="stroke:black; stroke-linecap:round; stroke-width:0.25;"/>
<line x1="195.700000" y1="100.000000" x2="195.700000" y2="88.000000"  style="stroke:black; stroke-linecap:round; stroke-width:0.25;"/>
<line x1="195.700000" y1="100.000000" x2="195.700000" y2="100.000000"  style="stroke:black; stroke-linecap:round; stroke-width:0.25;"/>
<line x1="203.700000" y1="68.000000" x2="203.700000" y2="80.000000"  style="stroke:black; stroke-linecap:round; stroke-width:0.25;"/>
<line x1="203.700000" y1="80.000000" x2="203.700000" y2="80.000000"  style="stroke:black; stroke-linecap:round; stroke-width:0.25;"/>
<line x1="203.700000" y1="80.000000" x2="207.700000" y2="80.000000"  style="stroke:black; stroke-linecap:round; stroke-width:0.25;"/>
<line x1="203.700000" y1="88.000000" x2="207.700000" y2="88.000000"  style="stroke:black; stroke-linecap:round; stroke-width:0.25;"/>
<line x1="215.700000" y1="36.000000" x2="219.700000" y2="36.000000"  style="stroke:black; stroke-linecap:round; stroke-width:0.25;"/>
<line x1="219.700000" y1="36.000000" x2="385.600000" y2="36.000000"  style="stroke:black; stroke-linecap:round; stroke-width:0.25;"/>
<line x1="231.700000" y1="84.000000" x2="235.700000" y2="84.000000"  style="stroke:black; stroke-linecap:round; stroke-width:0.25;"/>
<line x1="235.700000" y1="84.000000" x2="235.700000" y2="84.000000"  style="stroke:black; stroke-linecap:round; stroke-width:0.25;"/>
<line x1="235.700000" y1="84.000000" x2="239.700000" y2="84.000000"  style="stroke:black; stroke-linecap:round; stroke-width:0.25;"/>
<line x1="381.600000" y1="84.000000" x2="385.600000" y2="84.000000"  style="stroke:black; stroke-linecap:round; stroke-width:0.25;"/>
<line x1="385.600000" y1="36.000000" x2="393.600000" y2="36.000000"  style="stroke:black; stroke-linecap:round; stroke-width:0.25;"/>
<line x1="385.600000" y1="72.000000" x2="393.600000" y2="72.000000"  style="stroke:black; stroke-linecap:round; stroke-width:0.25;"/>
<line x1="385.600000" y1="84.000000" x2="385.600000" y2="72.000000"  style="stroke:black; stroke-linecap:round; stroke-width:0.25;"/>
<line x1="385.600000" y1="84.000000" x2="385.600000" y2="84.000000"  style="stroke:black; stroke-linecap:round; stroke-width:0.25;"/>
<line x1="393.600000" y1="36.000000" x2="393.600000" y2="64.000000"  style="stroke:black; stroke-linecap:round; stroke-width:0.25;"/>
<line x1="393.600000" y1="64.000000" x2="393.600000" y2="64.000000"  style="stroke:black; stroke-linecap:round; stroke-width:0.25;"/>
<line x1="393.600000" y1="64.000000" x2="397.600000" y2="64.000000"  style="stroke:black; stroke-linecap:round; stroke-width:0.25;"/>
<line x1="393.600000" y1="72.000000" x2="397.600000" y2="72.000000"  style="stroke:black; stroke-linecap:round; stroke-width:0.25;"/>
<line x1="421.600000" y1="68.000000" x2="425.600000" y2="68.000000"  style="stroke:black; stroke-linecap:round; stroke-width:0.25;"/>
<line x1="425.600000" y1="68.000000" x2="425.600000" y2="68.000000"  style="stroke:black; stroke-linecap:round; stroke-width:0.25;"/>
<line x1="425.600000" y1="68.000000" x2="429.600000" y2="68.000000"  style="stroke:black; stroke-linecap:round; stroke-width:0.25;"/>
<line x1="429.600000" y1="68.000000" x2="433.600000" y2="68.000000"  style="stroke:black; stroke-linecap:round; stroke-width:0.25;"/>
<line x1="433.600000" y1="68.000000" x2="443.600000" y2="68.000000"  style="stroke:black; stroke-linecap:round; stroke-width:0.25;"/>
</svg>
