<?xml version="1.0"?>
<svg xmlns="http://www.w3.org/2000/svg" xmlns:xlink="http://www.w3.org/1999/xlink" viewBox="0 0 476.300000 228.000000" width="238.150000mm" height="114.000000mm" version="1.1">
<a xlink:href="ControlSignalPat-0x60000f1977b0.svg">
<rect x="0.000000" y="0.000000" width="475.300000" height="227.000000" rx="0" ry="0" style="stroke:#000000;fill:#FFFFFF;"/>
</a>
<text x="10.000000" y="7.000000" font-family="Verdana" font-size="7"></text>
<rect x="214.650000" y="24.000000" width="24.000000" height="24.000000" rx="0" ry="0" style="stroke:#000000;fill:#FFFFFF;"/>
<text x="226.650000" y="38.000000" font-family="Verdana" font-size="7" text-anchor="middle" fill="#000000">1</text>
<circle cx="216.650000" cy="26.000000" r="1"/>
<rect x="174.400000" y="66.000000" width="64.500000" height="24.000000" rx="0" ry="0" style="stroke:#000000;fill:#FFFFFF;"/>
<text x="206.650000" y="80.000000" font-family="Verdana" font-size="7" text-anchor="middle" fill="#000000">1.1754944e-38f</text>
<circle cx="176.400000" cy="68.000000" r="1"/>
<line x1="165.400000" y1="57.000000" x2="165.400000" y2="99.000000"  style="stroke: black; stroke-linecap:round; stroke-width:0.25; stroke-dasharray:3,3;"/>
<line x1="165.400000" y1="99.000000" x2="247.900000" y2="99.000000"  style="stroke: black; stroke-linecap:round; stroke-width:0.25; stroke-dasharray:3,3;"/>
<line x1="247.900000" y1="99.000000" x2="247.900000" y2="57.000000"  style="stroke: black; stroke-linecap:round; stroke-width:0.25; stroke-dasharray:3,3;"/>
<line x1="165.400000" y1="57.000000" x2="170.400000" y2="57.000000"  style="stroke: black; stroke-linecap:round; stroke-width:0.25; stroke-dasharray:3,3;"/>
<line x1="186.525000" y1="57.000000" x2="247.900000" y2="57.000000"  style="stroke: black; stroke-linecap:round; stroke-width:0.25; stroke-dasharray:3,3;"/>
<text x="170.400000" y="59.000000" font-family="Verdana" font-size="7">MIN</text>
<a xlink:href="peakHolder-0x60000b131200.svg">
<rect x="89.000000" y="108.000000" width="77.400000" height="24.000000" rx="0" ry="0" style="stroke:#000000;fill:#FFFFFF;"/>
</a>
<a xlink:href="peakHolder-0x60000b131200.svg">
<text x="127.700000" y="122.000000" font-family="Verdana" font-size="7" text-anchor="middle" fill="#000000">peakHolder(0.1f)</text>
</a>
<circle cx="91.000000" cy="110.000000" r="1"/>
<line x1="86.000000" y1="119.000000" x2="89.000000" y2="120.000000"  transform="rotate(0.000000,89.000000,120.000000)" style="stroke: black; stroke-width:0.25;"/>
<line x1="86.000000" y1="121.000000" x2="89.000000" y2="120.000000"  transform="rotate(0.000000,89.000000,120.000000)" style="stroke: black; stroke-width:0.25;"/>
<a xlink:href="LPTPT-0x60000b12a880.svg">
<rect x="174.400000" y="108.000000" width="64.500000" height="24.000000" rx="0" ry="0" style="stroke:#000000;fill:#FFFFFF;"/>
</a>
<a xlink:href="LPTPT-0x60000b12a880.svg">
<text x="206.650000" y="122.000000" font-family="Verdana" font-size="7" text-anchor="middle" fill="#000000">LPTPT(1e+01f)</text>
</a>
<circle cx="176.400000" cy="110.000000" r="1"/>
<line x1="171.400000" y1="119.000000" x2="174.400000" y2="120.000000"  transform="rotate(0.000000,174.400000,120.000000)" style="stroke: black; stroke-width:0.25;"/>
<line x1="171.400000" y1="121.000000" x2="174.400000" y2="120.000000"  transform="rotate(0.000000,174.400000,120.000000)" style="stroke: black; stroke-width:0.25;"/>
<a xlink:href="peakenvelope-0x60000b1270f0.svg">
<rect x="246.900000" y="108.000000" width="77.400000" height="24.000000" rx="0" ry="0" style="stroke:#000000;fill:#FFFFFF;"/>
</a>
<a xlink:href="peakenvelope-0x60000b1270f0.svg">
<text x="285.600000" y="122.000000" font-family="Verdana" font-size="7" text-anchor="middle" fill="#000000">peakenvelope(10)</text>
</a>
<circle cx="248.900000" cy="110.000000" r="1"/>
<line x1="243.900000" y1="119.000000" x2="246.900000" y2="120.000000"  transform="rotate(0.000000,246.900000,120.000000)" style="stroke: black; stroke-width:0.25;"/>
<line x1="243.900000" y1="121.000000" x2="246.900000" y2="120.000000"  transform="rotate(0.000000,246.900000,120.000000)" style="stroke: black; stroke-width:0.25;"/>
<rect x="340.300000" y="82.000000" width="24.000000" height="24.000000" rx="0" ry="0" style="stroke:#000000;fill:#FFFFFF;"/>
<text x="352.300000" y="96.000000" font-family="Verdana" font-size="7" text-anchor="middle" fill="#000000">max</text>
<circle cx="342.300000" cy="84.000000" r="1"/>
<line x1="337.300000" y1="89.000000" x2="340.300000" y2="90.000000"  transform="rotate(0.000000,340.300000,90.000000)" style="stroke: black; stroke-width:0.25;"/>
<line x1="337.300000" y1="91.000000" x2="340.300000" y2="90.000000"  transform="rotate(0.000000,340.300000,90.000000)" style="stroke: black; stroke-width:0.25;"/>
<line x1="337.300000" y1="97.000000" x2="340.300000" y2="98.000000"  transform="rotate(0.000000,340.300000,98.000000)" style="stroke: black; stroke-width:0.25;"/>
<line x1="337.300000" y1="99.000000" x2="340.300000" y2="98.000000"  transform="rotate(0.000000,340.300000,98.000000)" style="stroke: black; stroke-width:0.25;"/>
<rect x="380.300000" y="66.000000" width="24.000000" height="24.000000" rx="0" ry="0" style="stroke:#000000;fill:#FFFFFF;"/>
<text x="392.300000" y="80.000000" font-family="Verdana" font-size="7" text-anchor="middle" fill="#000000">/</text>
<circle cx="382.300000" cy="68.000000" r="1"/>
<line x1="377.300000" y1="73.000000" x2="380.300000" y2="74.000000"  transform="rotate(0.000000,380.300000,74.000000)" style="stroke: black; stroke-width:0.25;"/>
<line x1="377.300000" y1="75.000000" x2="380.300000" y2="74.000000"  transform="rotate(0.000000,380.300000,74.000000)" style="stroke: black; stroke-width:0.25;"/>
<line x1="377.300000" y1="81.000000" x2="380.300000" y2="82.000000"  transform="rotate(0.000000,380.300000,82.000000)" style="stroke: black; stroke-width:0.25;"/>
<line x1="377.300000" y1="83.000000" x2="380.300000" y2="82.000000"  transform="rotate(0.000000,380.300000,82.000000)" style="stroke: black; stroke-width:0.25;"/>
<rect x="193.750000" y="148.000000" width="25.800000" height="24.000000" rx="0" ry="0" style="stroke:#000000;fill:#FFFFFF;"/>
<text x="206.650000" y="162.000000" font-family="Verdana" font-size="7" text-anchor="middle" fill="#000000">0.1f</text>
<circle cx="195.750000" cy="150.000000" r="1"/>
<a xlink:href="SR-0x600003324990.svg">
<rect x="194.650000" y="180.000000" width="24.000000" height="24.000000" rx="0" ry="0" style="stroke:#000000;fill:#FFFFFF;"/>
</a>
<a xlink:href="SR-0x600003324990.svg">
<text x="206.650000" y="194.000000" font-family="Verdana" font-size="7" text-anchor="middle" fill="#000000">SR</text>
</a>
<circle cx="196.650000" cy="182.000000" r="1"/>
<rect x="235.550000" y="164.000000" width="24.000000" height="24.000000" rx="0" ry="0" style="stroke:#000000;fill:#FFFFFF;"/>
<text x="247.550000" y="178.000000" font-family="Verdana" font-size="7" text-anchor="middle" fill="#000000">*</text>
<circle cx="237.550000" cy="166.000000" r="1"/>
<line x1="232.550000" y1="171.000000" x2="235.550000" y2="172.000000"  transform="rotate(0.000000,235.550000,172.000000)" style="stroke: black; stroke-width:0.25;"/>
<line x1="232.550000" y1="173.000000" x2="235.550000" y2="172.000000"  transform="rotate(0.000000,235.550000,172.000000)" style="stroke: black; stroke-width:0.25;"/>
<line x1="232.550000" y1="179.000000" x2="235.550000" y2="180.000000"  transform="rotate(0.000000,235.550000,180.000000)" style="stroke: black; stroke-width:0.25;"/>
<line x1="232.550000" y1="181.000000" x2="235.550000" y2="180.000000"  transform="rotate(0.000000,235.550000,180.000000)" style="stroke: black; stroke-width:0.25;"/>
<rect x="275.550000" y="160.000000" width="24.000000" height="24.000000" rx="0" ry="0" style="stroke:#000000;fill:#FFFFFF;"/>
<text x="287.550000" y="174.000000" font-family="Verdana" font-size="7" text-anchor="middle" fill="#000000">@</text>
<circle cx="277.550000" cy="162.000000" r="1"/>
<line x1="272.550000" y1="167.000000" x2="275.550000" y2="168.000000"  transform="rotate(0.000000,275.550000,168.000000)" style="stroke: black; stroke-width:0.25;"/>
<line x1="272.550000" y1="169.000000" x2="275.550000" y2="168.000000"  transform="rotate(0.000000,275.550000,168.000000)" style="stroke: black; stroke-width:0.25;"/>
<line x1="272.550000" y1="175.000000" x2="275.550000" y2="176.000000"  transform="rotate(0.000000,275.550000,176.000000)" style="stroke: black; stroke-width:0.25;"/>
<line x1="272.550000" y1="177.000000" x2="275.550000" y2="176.000000"  transform="rotate(0.000000,275.550000,176.000000)" style="stroke: black; stroke-width:0.25;"/>
<rect x="420.300000" y="102.000000" width="24.000000" height="24.000000" rx="0" ry="0" style="stroke:#000000;fill:#FFFFFF;"/>
<text x="432.300000" y="116.000000" font-family="Verdana" font-size="7" text-anchor="middle" fill="#000000">*</text>
<circle cx="422.300000" cy="104.000000" r="1"/>
<line x1="417.300000" y1="109.000000" x2="420.300000" y2="110.000000"  transform="rotate(0.000000,420.300000,110.000000)" style="stroke: black; stroke-width:0.25;"/>
<line x1="417.300000" y1="111.000000" x2="420.300000" y2="110.000000"  transform="rotate(0.000000,420.300000,110.000000)" style="stroke: black; stroke-width:0.25;"/>
<line x1="417.300000" y1="117.000000" x2="420.300000" y2="118.000000"  transform="rotate(0.000000,420.300000,118.000000)" style="stroke: black; stroke-width:0.25;"/>
<line x1="417.300000" y1="119.000000" x2="420.300000" y2="118.000000"  transform="rotate(0.000000,420.300000,118.000000)" style="stroke: black; stroke-width:0.25;"/>
<line x1="15.000000" y1="15.000000" x2="15.000000" y2="213.000000"  style="stroke: black; stroke-linecap:round; stroke-width:0.25; stroke-dasharray:3,3;"/>
<line x1="15.000000" y1="213.000000" x2="461.300000" y2="213.000000"  style="stroke: black; stroke-linecap:round; stroke-width:0.25; stroke-dasharray:3,3;"/>
<line x1="461.300000" y1="213.000000" x2="461.300000" y2="15.000000"  style="stroke: black; stroke-linecap:round; stroke-width:0.25; stroke-dasharray:3,3;"/>
<line x1="15.000000" y1="15.000000" x2="20.000000" y2="15.000000"  style="stroke: black; stroke-linecap:round; stroke-width:0.25; stroke-dasharray:3,3;"/>
<line x1="139.325000" y1="15.000000" x2="461.300000" y2="15.000000"  style="stroke: black; stroke-linecap:round; stroke-width:0.25; stroke-dasharray:3,3;"/>
<text x="20.000000" y="17.000000" font-family="Verdana" font-size="7">LookaheadNormalizer(1.0f)(0.1f)(10)</text>
<line x1="463.300000" y1="113.000000" x2="466.300000" y2="114.000000"  transform="rotate(0.000000,466.300000,114.000000)" style="stroke: black; stroke-width:0.25;"/>
<line x1="463.300000" y1="115.000000" x2="466.300000" y2="114.000000"  transform="rotate(0.000000,466.300000,114.000000)" style="stroke: black; stroke-width:0.25;"/>
<line x1="10.000000" y1="114.000000" x2="20.000000" y2="114.000000"  style="stroke:black; stroke-linecap:round; stroke-width:0.25;"/>
<line x1="20.000000" y1="114.000000" x2="24.000000" y2="114.000000"  style="stroke:black; stroke-linecap:round; stroke-width:0.25;"/>
<line x1="24.000000" y1="114.000000" x2="28.000000" y2="114.000000"  style="stroke:black; stroke-linecap:round; stroke-width:0.25;"/>
<line x1="28.000000" y1="114.000000" x2="28.000000" y2="114.000000"  style="stroke:black; stroke-linecap:round; stroke-width:0.25;"/>
<line x1="28.000000" y1="114.000000" x2="32.000000" y2="114.000000"  style="stroke:black; stroke-linecap:round; stroke-width:0.25;"/>
<line x1="32.000000" y1="114.000000" x2="36.000000" y2="114.000000"  style="stroke:black; stroke-linecap:round; stroke-width:0.25;"/>
<line x1="36.000000" y1="114.000000" x2="85.000000" y2="120.000000"  style="stroke:black; stroke-linecap:round; stroke-width:0.25;"/>
<line x1="36.000000" y1="114.000000" x2="85.000000" y2="140.000000"  style="stroke:black; stroke-linecap:round; stroke-width:0.25;"/>
<line x1="85.000000" y1="120.000000" x2="85.000000" y2="120.000000"  style="stroke:black; stroke-linecap:round; stroke-width:0.25;"/>
<line x1="85.000000" y1="120.000000" x2="89.000000" y2="120.000000"  style="stroke:black; stroke-linecap:round; stroke-width:0.25;"/>
<line x1="85.000000" y1="140.000000" x2="189.750000" y2="140.000000"  style="stroke:black; stroke-linecap:round; stroke-width:0.25;"/>
<line x1="166.400000" y1="120.000000" x2="170.400000" y2="120.000000"  style="stroke:black; stroke-linecap:round; stroke-width:0.25;"/>
<line x1="170.400000" y1="120.000000" x2="170.400000" y2="120.000000"  style="stroke:black; stroke-linecap:round; stroke-width:0.25;"/>
<line x1="170.400000" y1="120.000000" x2="174.400000" y2="120.000000"  style="stroke:black; stroke-linecap:round; stroke-width:0.25;"/>
<line x1="189.750000" y1="140.000000" x2="226.650000" y2="140.000000"  style="stroke:black; stroke-linecap:round; stroke-width:0.25;"/>
<line x1="218.650000" y1="192.000000" x2="222.650000" y2="192.000000"  style="stroke:black; stroke-linecap:round; stroke-width:0.25;"/>
<line x1="219.550000" y1="160.000000" x2="223.550000" y2="160.000000"  style="stroke:black; stroke-linecap:round; stroke-width:0.25;"/>
<line x1="222.650000" y1="192.000000" x2="223.550000" y2="192.000000"  style="stroke:black; stroke-linecap:round; stroke-width:0.25;"/>
<line x1="223.550000" y1="160.000000" x2="231.550000" y2="160.000000"  style="stroke:black; stroke-linecap:round; stroke-width:0.25;"/>
<line x1="223.550000" y1="180.000000" x2="231.550000" y2="180.000000"  style="stroke:black; stroke-linecap:round; stroke-width:0.25;"/>
<line x1="223.550000" y1="192.000000" x2="223.550000" y2="180.000000"  style="stroke:black; stroke-linecap:round; stroke-width:0.25;"/>
<line x1="223.550000" y1="192.000000" x2="223.550000" y2="192.000000"  style="stroke:black; stroke-linecap:round; stroke-width:0.25;"/>
<line x1="226.650000" y1="140.000000" x2="263.550000" y2="140.000000"  style="stroke:black; stroke-linecap:round; stroke-width:0.25;"/>
<line x1="231.550000" y1="160.000000" x2="231.550000" y2="172.000000"  style="stroke:black; stroke-linecap:round; stroke-width:0.25;"/>
<line x1="231.550000" y1="172.000000" x2="231.550000" y2="172.000000"  style="stroke:black; stroke-linecap:round; stroke-width:0.25;"/>
<line x1="231.550000" y1="172.000000" x2="235.550000" y2="172.000000"  style="stroke:black; stroke-linecap:round; stroke-width:0.25;"/>
<line x1="231.550000" y1="180.000000" x2="235.550000" y2="180.000000"  style="stroke:black; stroke-linecap:round; stroke-width:0.25;"/>
<line x1="238.650000" y1="36.000000" x2="242.650000" y2="36.000000"  style="stroke:black; stroke-linecap:round; stroke-width:0.25;"/>
<line x1="238.900000" y1="78.000000" x2="242.900000" y2="78.000000"  style="stroke:black; stroke-linecap:round; stroke-width:0.25;"/>
<line x1="238.900000" y1="120.000000" x2="242.900000" y2="120.000000"  style="stroke:black; stroke-linecap:round; stroke-width:0.25;"/>
<line x1="242.650000" y1="36.000000" x2="368.300000" y2="36.000000"  style="stroke:black; stroke-linecap:round; stroke-width:0.25;"/>
<line x1="242.900000" y1="78.000000" x2="252.900000" y2="78.000000"  style="stroke:black; stroke-linecap:round; stroke-width:0.25;"/>
<line x1="242.900000" y1="120.000000" x2="242.900000" y2="120.000000"  style="stroke:black; stroke-linecap:round; stroke-width:0.25;"/>
<line x1="242.900000" y1="120.000000" x2="246.900000" y2="120.000000"  style="stroke:black; stroke-linecap:round; stroke-width:0.25;"/>
<line x1="252.900000" y1="78.000000" x2="328.300000" y2="78.000000"  style="stroke:black; stroke-linecap:round; stroke-width:0.25;"/>
<line x1="259.550000" y1="176.000000" x2="263.550000" y2="176.000000"  style="stroke:black; stroke-linecap:round; stroke-width:0.25;"/>
<line x1="263.550000" y1="140.000000" x2="271.550000" y2="140.000000"  style="stroke:black; stroke-linecap:round; stroke-width:0.25;"/>
<line x1="263.550000" y1="176.000000" x2="271.550000" y2="176.000000"  style="stroke:black; stroke-linecap:round; stroke-width:0.25;"/>
<line x1="271.550000" y1="140.000000" x2="271.550000" y2="168.000000"  style="stroke:black; stroke-linecap:round; stroke-width:0.25;"/>
<line x1="271.550000" y1="168.000000" x2="271.550000" y2="168.000000"  style="stroke:black; stroke-linecap:round; stroke-width:0.25;"/>
<line x1="271.550000" y1="168.000000" x2="275.550000" y2="168.000000"  style="stroke:black; stroke-linecap:round; stroke-width:0.25;"/>
<line x1="271.550000" y1="176.000000" x2="275.550000" y2="176.000000"  style="stroke:black; stroke-linecap:round; stroke-width:0.25;"/>
<line x1="299.550000" y1="172.000000" x2="303.550000" y2="172.000000"  style="stroke:black; stroke-linecap:round; stroke-width:0.25;"/>
<line x1="303.550000" y1="172.000000" x2="408.300000" y2="172.000000"  style="stroke:black; stroke-linecap:round; stroke-width:0.25;"/>
<line x1="324.300000" y1="120.000000" x2="328.300000" y2="120.000000"  style="stroke:black; stroke-linecap:round; stroke-width:0.25;"/>
<line x1="328.300000" y1="78.000000" x2="336.300000" y2="78.000000"  style="stroke:black; stroke-linecap:round; stroke-width:0.25;"/>
<line x1="328.300000" y1="98.000000" x2="336.300000" y2="98.000000"  style="stroke:black; stroke-linecap:round; stroke-width:0.25;"/>
<line x1="328.300000" y1="120.000000" x2="328.300000" y2="98.000000"  style="stroke:black; stroke-linecap:round; stroke-width:0.25;"/>
<line x1="328.300000" y1="120.000000" x2="328.300000" y2="120.000000"  style="stroke:black; stroke-linecap:round; stroke-width:0.25;"/>
<line x1="336.300000" y1="78.000000" x2="336.300000" y2="90.000000"  style="stroke:black; stroke-linecap:round; stroke-width:0.25;"/>
<line x1="336.300000" y1="90.000000" x2="336.300000" y2="90.000000"  style="stroke:black; stroke-linecap:round; stroke-width:0.25;"/>
<line x1="336.300000" y1="90.000000" x2="340.300000" y2="90.000000"  style="stroke:black; stroke-linecap:round; stroke-width:0.25;"/>
<line x1="336.300000" y1="98.000000" x2="340.300000" y2="98.000000"  style="stroke:black; stroke-linecap:round; stroke-width:0.25;"/>
<line x1="364.300000" y1="94.000000" x2="368.300000" y2="94.000000"  style="stroke:black; stroke-linecap:round; stroke-width:0.25;"/>
<line x1="368.300000" y1="36.000000" x2="376.300000" y2="36.000000"  style="stroke:black; stroke-linecap:round; stroke-width:0.25;"/>
<line x1="368.300000" y1="82.000000" x2="376.300000" y2="82.000000"  style="stroke:black; stroke-linecap:round; stroke-width:0.25;"/>
<line x1="368.300000" y1="94.000000" x2="368.300000" y2="82.000000"  style="stroke:black; stroke-linecap:round; stroke-width:0.25;"/>
<line x1="368.300000" y1="94.000000" x2="368.300000" y2="94.000000"  style="stroke:black; stroke-linecap:round; stroke-width:0.25;"/>
<line x1="376.300000" y1="36.000000" x2="376.300000" y2="74.000000"  style="stroke:black; stroke-linecap:round; stroke-width:0.25;"/>
<line x1="376.300000" y1="74.000000" x2="376.300000" y2="74.000000"  style="stroke:black; stroke-linecap:round; stroke-width:0.25;"/>
<line x1="376.300000" y1="74.000000" x2="380.300000" y2="74.000000"  style="stroke:black; stroke-linecap:round; stroke-width:0.25;"/>
<line x1="376.300000" y1="82.000000" x2="380.300000" y2="82.000000"  style="stroke:black; stroke-linecap:round; stroke-width:0.25;"/>
<line x1="404.300000" y1="78.000000" x2="408.300000" y2="78.000000"  style="stroke:black; stroke-linecap:round; stroke-width:0.25;"/>
<line x1="408.300000" y1="78.000000" x2="416.300000" y2="78.000000"  style="stroke:black; stroke-linecap:round; stroke-width:0.25;"/>
<line x1="408.300000" y1="118.000000" x2="416.300000" y2="118.000000"  style="stroke:black; stroke-linecap:round; stroke-width:0.25;"/>
<line x1="408.300000" y1="172.000000" x2="408.300000" y2="118.000000"  style="stroke:black; stroke-linecap:round; stroke-width:0.25;"/>
<line x1="408.300000" y1="172.000000" x2="408.300000" y2="172.000000"  style="stroke:black; stroke-linecap:round; stroke-width:0.25;"/>
<line x1="416.300000" y1="78.000000" x2="416.300000" y2="110.000000"  style="stroke:black; stroke-linecap:round; stroke-width:0.25;"/>
<line x1="416.300000" y1="110.000000" x2="416.300000" y2="110.000000"  style="stroke:black; stroke-linecap:round; stroke-width:0.25;"/>
<line x1="416.300000" y1="110.000000" x2="420.300000" y2="110.000000"  style="stroke:black; stroke-linecap:round; stroke-width:0.25;"/>
<line x1="416.300000" y1="118.000000" x2="420.300000" y2="118.000000"  style="stroke:black; stroke-linecap:round; stroke-width:0.25;"/>
<line x1="444.300000" y1="114.000000" x2="448.300000" y2="114.000000"  style="stroke:black; stroke-linecap:round; stroke-width:0.25;"/>
<line x1="448.300000" y1="114.000000" x2="448.300000" y2="114.000000"  style="stroke:black; stroke-linecap:round; stroke-width:0.25;"/>
<line x1="448.300000" y1="114.000000" x2="452.300000" y2="114.000000"  style="stroke:black; stroke-linecap:round; stroke-width:0.25;"/>
<line x1="452.300000" y1="114.000000" x2="456.300000" y2="114.000000"  style="stroke:black; stroke-linecap:round; stroke-width:0.25;"/>
<line x1="456.300000" y1="114.000000" x2="466.300000" y2="114.000000"  style="stroke:black; stroke-linecap:round; stroke-width:0.25;"/>
</svg>
