<?xml version="1.0"?>
<svg xmlns="http://www.w3.org/2000/svg" xmlns:xlink="http://www.w3.org/1999/xlink" viewBox="0 0 148.000000 132.000000" width="74.000000mm" height="66.000000mm" version="1.1">
<a xlink:href="Network-0x6000531c79f0.svg">
<rect x="0.000000" y="0.000000" width="147.000000" height="131.000000" rx="0" ry="0" style="stroke:#000000;fill:#FFFFFF;"/>
</a>
<text x="10.000000" y="7.000000" font-family="Verdana" font-size="7"></text>
<a xlink:href="vol-0x6000531d6250.svg">
<rect x="62.000000" y="54.000000" width="24.000000" height="24.000000" rx="0" ry="0" style="stroke:#000000;fill:#FFFFFF;"/>
</a>
<a xlink:href="vol-0x6000531d6250.svg">
<text x="74.000000" y="68.000000" font-family="Verdana" font-size="7" text-anchor="middle" fill="#000000">vol</text>
</a>
<circle cx="64.000000" cy="56.000000" r="1"/>
<line x1="59.000000" y1="65.000000" x2="62.000000" y2="66.000000"  transform="rotate(0.000000,62.000000,66.000000)" style="stroke: black; stroke-width:0.25;"/>
<line x1="59.000000" y1="67.000000" x2="62.000000" y2="66.000000"  transform="rotate(0.000000,62.000000,66.000000)" style="stroke: black; stroke-width:0.25;"/>
<line x1="53.000000" y1="45.000000" x2="53.000000" y2="87.000000"  style="stroke: black; stroke-linecap:round; stroke-width:0.25; stroke-dasharray:3,3;"/>
<line x1="53.000000" y1="87.000000" x2="95.000000" y2="87.000000"  style="stroke: black; stroke-linecap:round; stroke-width:0.25; stroke-dasharray:3,3;"/>
<line x1="95.000000" y1="87.000000" x2="95.000000" y2="45.000000"  style="stroke: black; stroke-linecap:round; stroke-width:0.25; stroke-dasharray:3,3;"/>
<line x1="53.000000" y1="45.000000" x2="58.000000" y2="45.000000"  style="stroke: black; stroke-linecap:round; stroke-width:0.25; stroke-dasharray:3,3;"/>
<line x1="93.475000" y1="45.000000" x2="95.000000" y2="45.000000"  style="stroke: black; stroke-linecap:round; stroke-width:0.25; stroke-dasharray:3,3;"/>
<text x="58.000000" y="47.000000" font-family="Verdana" font-size="7">hgroup(M)</text>
<line x1="43.000000" y1="35.000000" x2="43.000000" y2="97.000000"  style="stroke: black; stroke-linecap:round; stroke-width:0.25; stroke-dasharray:3,3;"/>
<line x1="43.000000" y1="97.000000" x2="105.000000" y2="97.000000"  style="stroke: black; stroke-linecap:round; stroke-width:0.25; stroke-dasharray:3,3;"/>
<line x1="105.000000" y1="97.000000" x2="105.000000" y2="35.000000"  style="stroke: black; stroke-linecap:round; stroke-width:0.25; stroke-dasharray:3,3;"/>
<line x1="43.000000" y1="35.000000" x2="48.000000" y2="35.000000"  style="stroke: black; stroke-linecap:round; stroke-width:0.25; stroke-dasharray:3,3;"/>
<line x1="105.000000" y1="35.000000" x2="105.000000" y2="35.000000"  style="stroke: black; stroke-linecap:round; stroke-width:0.25; stroke-dasharray:3,3;"/>
<text x="48.000000" y="37.000000" font-family="Verdana" font-size="7">hgroup(Channels)</text>
<line x1="33.000000" y1="25.000000" x2="33.000000" y2="107.000000"  style="stroke: black; stroke-linecap:round; stroke-width:0.25; stroke-dasharray:3,3;"/>
<line x1="33.000000" y1="107.000000" x2="115.000000" y2="107.000000"  style="stroke: black; stroke-linecap:round; stroke-width:0.25; stroke-dasharray:3,3;"/>
<line x1="115.000000" y1="107.000000" x2="115.000000" y2="25.000000"  style="stroke: black; stroke-linecap:round; stroke-width:0.25; stroke-dasharray:3,3;"/>
<line x1="33.000000" y1="25.000000" x2="38.000000" y2="25.000000"  style="stroke: black; stroke-linecap:round; stroke-width:0.25; stroke-dasharray:3,3;"/>
<line x1="86.375000" y1="25.000000" x2="115.000000" y2="25.000000"  style="stroke: black; stroke-linecap:round; stroke-width:0.25; stroke-dasharray:3,3;"/>
<text x="38.000000" y="27.000000" font-family="Verdana" font-size="7">vgroup(Mixer)</text>
<line x1="15.000000" y1="15.000000" x2="15.000000" y2="117.000000"  style="stroke: black; stroke-linecap:round; stroke-width:0.25; stroke-dasharray:3,3;"/>
<line x1="15.000000" y1="117.000000" x2="133.000000" y2="117.000000"  style="stroke: black; stroke-linecap:round; stroke-width:0.25; stroke-dasharray:3,3;"/>
<line x1="133.000000" y1="117.000000" x2="133.000000" y2="15.000000"  style="stroke: black; stroke-linecap:round; stroke-width:0.25; stroke-dasharray:3,3;"/>
<line x1="15.000000" y1="15.000000" x2="20.000000" y2="15.000000"  style="stroke: black; stroke-linecap:round; stroke-width:0.25; stroke-dasharray:3,3;"/>
<line x1="61.925000" y1="15.000000" x2="133.000000" y2="15.000000"  style="stroke: black; stroke-linecap:round; stroke-width:0.25; stroke-dasharray:3,3;"/>
<text x="20.000000" y="17.000000" font-family="Verdana" font-size="7">mixerVoiceM</text>
<line x1="135.000000" y1="65.000000" x2="138.000000" y2="66.000000"  transform="rotate(0.000000,138.000000,66.000000)" style="stroke: black; stroke-width:0.25;"/>
<line x1="135.000000" y1="67.000000" x2="138.000000" y2="66.000000"  transform="rotate(0.000000,138.000000,66.000000)" style="stroke: black; stroke-width:0.25;"/>
<line x1="10.000000" y1="66.000000" x2="20.000000" y2="66.000000"  style="stroke:black; stroke-linecap:round; stroke-width:0.25;"/>
<line x1="20.000000" y1="66.000000" x2="24.000000" y2="66.000000"  style="stroke:black; stroke-linecap:round; stroke-width:0.25;"/>
<line x1="24.000000" y1="66.000000" x2="28.000000" y2="66.000000"  style="stroke:black; stroke-linecap:round; stroke-width:0.25;"/>
<line x1="28.000000" y1="66.000000" x2="28.000000" y2="66.000000"  style="stroke:black; stroke-linecap:round; stroke-width:0.25;"/>
<line x1="28.000000" y1="66.000000" x2="38.000000" y2="66.000000"  style="stroke:black; stroke-linecap:round; stroke-width:0.25;"/>
<line x1="38.000000" y1="66.000000" x2="48.000000" y2="66.000000"  style="stroke:black; stroke-linecap:round; stroke-width:0.25;"/>
<line x1="48.000000" y1="66.000000" x2="58.000000" y2="66.000000"  style="stroke:black; stroke-linecap:round; stroke-width:0.25;"/>
<line x1="58.000000" y1="66.000000" x2="62.000000" y2="66.000000"  style="stroke:black; stroke-linecap:round; stroke-width:0.25;"/>
<line x1="86.000000" y1="66.000000" x2="90.000000" y2="66.000000"  style="stroke:black; stroke-linecap:round; stroke-width:0.25;"/>
<line x1="90.000000" y1="66.000000" x2="100.000000" y2="66.000000"  style="stroke:black; stroke-linecap:round; stroke-width:0.25;"/>
<line x1="100.000000" y1="66.000000" x2="110.000000" y2="66.000000"  style="stroke:black; stroke-linecap:round; stroke-width:0.25;"/>
<line x1="110.000000" y1="66.000000" x2="120.000000" y2="66.000000"  style="stroke:black; stroke-linecap:round; stroke-width:0.25;"/>
<line x1="120.000000" y1="66.000000" x2="120.000000" y2="66.000000"  style="stroke:black; stroke-linecap:round; stroke-width:0.25;"/>
<line x1="120.000000" y1="66.000000" x2="124.000000" y2="66.000000"  style="stroke:black; stroke-linecap:round; stroke-width:0.25;"/>
<line x1="124.000000" y1="66.000000" x2="128.000000" y2="66.000000"  style="stroke:black; stroke-linecap:round; stroke-width:0.25;"/>
<line x1="128.000000" y1="66.000000" x2="138.000000" y2="66.000000"  style="stroke:black; stroke-linecap:round; stroke-width:0.25;"/>
</svg>
