<?xml version="1.0"?>
<svg xmlns="http://www.w3.org/2000/svg" xmlns:xlink="http://www.w3.org/1999/xlink" viewBox="0 0 535.300000 400.000000" width="267.650000mm" height="200.000000mm" version="1.1">
<a xlink:href="ControlSignalPat-0x60000f1977b0.svg">
<rect x="0.000000" y="0.000000" width="534.300000" height="399.000000" rx="0" ry="0" style="stroke:#000000;fill:#FFFFFF;"/>
</a>
<text x="10.000000" y="7.000000" font-family="Verdana" font-size="7"></text>
<rect x="48.000000" y="180.000000" width="38.700000" height="24.000000" rx="0" ry="0" style="stroke:#000000;fill:#FFFFFF;"/>
<text x="67.350000" y="194.000000" font-family="Verdana" font-size="7" text-anchor="middle" fill="#000000">15021995</text>
<circle cx="50.000000" cy="182.000000" r="1"/>
<rect x="32.000000" y="212.000000" width="38.700000" height="24.000000" rx="0" ry="0" style="stroke:#000000;fill:#FFFFFF;"/>
<text x="51.350000" y="226.000000" font-family="Verdana" font-size="7" text-anchor="middle" fill="#000000">15021995</text>
<circle cx="34.000000" cy="214.000000" r="1"/>
<rect x="78.700000" y="212.000000" width="24.000000" height="24.000000" rx="0" ry="0" style="stroke:#000000;fill:#FFFFFF;"/>
<text x="90.700000" y="226.000000" font-family="Verdana" font-size="7" text-anchor="middle" fill="#000000">mem</text>
<circle cx="80.700000" cy="214.000000" r="1"/>
<line x1="75.700000" y1="223.000000" x2="78.700000" y2="224.000000"  transform="rotate(0.000000,78.700000,224.000000)" style="stroke: black; stroke-width:0.25;"/>
<line x1="75.700000" y1="225.000000" x2="78.700000" y2="224.000000"  transform="rotate(0.000000,78.700000,224.000000)" style="stroke: black; stroke-width:0.25;"/>
<rect x="118.700000" y="196.000000" width="24.000000" height="24.000000" rx="0" ry="0" style="stroke:#000000;fill:#FFFFFF;"/>
<text x="130.700000" y="210.000000" font-family="Verdana" font-size="7" text-anchor="middle" fill="#000000">-</text>
<circle cx="120.700000" cy="198.000000" r="1"/>
<line x1="115.700000" y1="203.000000" x2="118.700000" y2="204.000000"  transform="rotate(0.000000,118.700000,204.000000)" style="stroke: black; stroke-width:0.25;"/>
<line x1="115.700000" y1="205.000000" x2="118.700000" y2="204.000000"  transform="rotate(0.000000,118.700000,204.000000)" style="stroke: black; stroke-width:0.25;"/>
<line x1="115.700000" y1="211.000000" x2="118.700000" y2="212.000000"  transform="rotate(0.000000,118.700000,212.000000)" style="stroke: black; stroke-width:0.25;"/>
<line x1="115.700000" y1="213.000000" x2="118.700000" y2="212.000000"  transform="rotate(0.000000,118.700000,212.000000)" style="stroke: black; stroke-width:0.25;"/>
<rect x="158.700000" y="192.000000" width="24.000000" height="24.000000" rx="0" ry="0" style="stroke:#000000;fill:#FFFFFF;"/>
<text x="170.700000" y="206.000000" font-family="Verdana" font-size="7" text-anchor="middle" fill="#000000">+</text>
<circle cx="160.700000" cy="194.000000" r="1"/>
<line x1="155.700000" y1="199.000000" x2="158.700000" y2="200.000000"  transform="rotate(0.000000,158.700000,200.000000)" style="stroke: black; stroke-width:0.25;"/>
<line x1="155.700000" y1="201.000000" x2="158.700000" y2="200.000000"  transform="rotate(0.000000,158.700000,200.000000)" style="stroke: black; stroke-width:0.25;"/>
<line x1="155.700000" y1="207.000000" x2="158.700000" y2="208.000000"  transform="rotate(0.000000,158.700000,208.000000)" style="stroke: black; stroke-width:0.25;"/>
<line x1="155.700000" y1="209.000000" x2="158.700000" y2="208.000000"  transform="rotate(0.000000,158.700000,208.000000)" style="stroke: black; stroke-width:0.25;"/>
<a xlink:href="seqN-0x6000033c4900.svg">
<rect x="190.700000" y="180.000000" width="129.000000" height="48.000000" rx="0" ry="0" style="stroke:#000000;fill:#FFFFFF;"/>
</a>
<a xlink:href="seqN-0x6000033c4900.svg">
<text x="255.200000" y="206.000000" font-family="Verdana" font-size="7" text-anchor="middle" fill="#000000">seqN(6)(((_,-...47483648 : %)</text>
</a>
<circle cx="192.700000" cy="182.000000" r="1"/>
<line x1="187.700000" y1="203.000000" x2="190.700000" y2="204.000000"  transform="rotate(0.000000,190.700000,204.000000)" style="stroke: black; stroke-width:0.25;"/>
<line x1="187.700000" y1="205.000000" x2="190.700000" y2="204.000000"  transform="rotate(0.000000,190.700000,204.000000)" style="stroke: black; stroke-width:0.25;"/>
<line x1="321.700000" y1="184.000000" x2="321.700000" y2="180.000000"  style="stroke:black; stroke-linecap:round; stroke-width:0.25;"/>
<line x1="321.700000" y1="180.000000" x2="325.700000" y2="180.000000"  style="stroke:black; stroke-linecap:round; stroke-width:0.25;"/>
<line x1="325.700000" y1="180.000000" x2="325.700000" y2="184.000000"  style="stroke:black; stroke-linecap:round; stroke-width:0.25;"/>
<rect x="377.700000" y="42.000000" width="51.600000" height="24.000000" rx="0" ry="0" style="stroke:#000000;fill:#FFFFFF;"/>
<text x="403.500000" y="56.000000" font-family="Verdana" font-size="7" text-anchor="middle" fill="#000000">-2147483648</text>
<circle cx="379.700000" cy="44.000000" r="1"/>
<line x1="368.700000" y1="33.000000" x2="368.700000" y2="75.000000"  style="stroke: black; stroke-linecap:round; stroke-width:0.25; stroke-dasharray:3,3;"/>
<line x1="368.700000" y1="75.000000" x2="438.300000" y2="75.000000"  style="stroke: black; stroke-linecap:round; stroke-width:0.25; stroke-dasharray:3,3;"/>
<line x1="438.300000" y1="75.000000" x2="438.300000" y2="33.000000"  style="stroke: black; stroke-linecap:round; stroke-width:0.25; stroke-dasharray:3,3;"/>
<line x1="368.700000" y1="33.000000" x2="373.700000" y2="33.000000"  style="stroke: black; stroke-linecap:round; stroke-width:0.25; stroke-dasharray:3,3;"/>
<line x1="383.375000" y1="33.000000" x2="438.300000" y2="33.000000"  style="stroke: black; stroke-linecap:round; stroke-width:0.25; stroke-dasharray:3,3;"/>
<text x="373.700000" y="35.000000" font-family="Verdana" font-size="7">m</text>
<rect x="455.300000" y="38.000000" width="24.000000" height="24.000000" rx="0" ry="0" style="stroke:#000000;fill:#FFFFFF;"/>
<text x="467.300000" y="52.000000" font-family="Verdana" font-size="7" text-anchor="middle" fill="#000000">/</text>
<circle cx="457.300000" cy="40.000000" r="1"/>
<line x1="452.300000" y1="45.000000" x2="455.300000" y2="46.000000"  transform="rotate(0.000000,455.300000,46.000000)" style="stroke: black; stroke-width:0.25;"/>
<line x1="452.300000" y1="47.000000" x2="455.300000" y2="46.000000"  transform="rotate(0.000000,455.300000,46.000000)" style="stroke: black; stroke-width:0.25;"/>
<line x1="452.300000" y1="53.000000" x2="455.300000" y2="54.000000"  transform="rotate(0.000000,455.300000,54.000000)" style="stroke: black; stroke-width:0.25;"/>
<line x1="452.300000" y1="55.000000" x2="455.300000" y2="54.000000"  transform="rotate(0.000000,455.300000,54.000000)" style="stroke: black; stroke-width:0.25;"/>
<rect x="377.700000" y="102.000000" width="51.600000" height="24.000000" rx="0" ry="0" style="stroke:#000000;fill:#FFFFFF;"/>
<text x="403.500000" y="116.000000" font-family="Verdana" font-size="7" text-anchor="middle" fill="#000000">-2147483648</text>
<circle cx="379.700000" cy="104.000000" r="1"/>
<line x1="368.700000" y1="93.000000" x2="368.700000" y2="135.000000"  style="stroke: black; stroke-linecap:round; stroke-width:0.25; stroke-dasharray:3,3;"/>
<line x1="368.700000" y1="135.000000" x2="438.300000" y2="135.000000"  style="stroke: black; stroke-linecap:round; stroke-width:0.25; stroke-dasharray:3,3;"/>
<line x1="438.300000" y1="135.000000" x2="438.300000" y2="93.000000"  style="stroke: black; stroke-linecap:round; stroke-width:0.25; stroke-dasharray:3,3;"/>
<line x1="368.700000" y1="93.000000" x2="373.700000" y2="93.000000"  style="stroke: black; stroke-linecap:round; stroke-width:0.25; stroke-dasharray:3,3;"/>
<line x1="383.375000" y1="93.000000" x2="438.300000" y2="93.000000"  style="stroke: black; stroke-linecap:round; stroke-width:0.25; stroke-dasharray:3,3;"/>
<text x="373.700000" y="95.000000" font-family="Verdana" font-size="7">m</text>
<rect x="455.300000" y="98.000000" width="24.000000" height="24.000000" rx="0" ry="0" style="stroke:#000000;fill:#FFFFFF;"/>
<text x="467.300000" y="112.000000" font-family="Verdana" font-size="7" text-anchor="middle" fill="#000000">/</text>
<circle cx="457.300000" cy="100.000000" r="1"/>
<line x1="452.300000" y1="105.000000" x2="455.300000" y2="106.000000"  transform="rotate(0.000000,455.300000,106.000000)" style="stroke: black; stroke-width:0.25;"/>
<line x1="452.300000" y1="107.000000" x2="455.300000" y2="106.000000"  transform="rotate(0.000000,455.300000,106.000000)" style="stroke: black; stroke-width:0.25;"/>
<line x1="452.300000" y1="113.000000" x2="455.300000" y2="114.000000"  transform="rotate(0.000000,455.300000,114.000000)" style="stroke: black; stroke-width:0.25;"/>
<line x1="452.300000" y1="115.000000" x2="455.300000" y2="114.000000"  transform="rotate(0.000000,455.300000,114.000000)" style="stroke: black; stroke-width:0.25;"/>
<rect x="377.700000" y="162.000000" width="51.600000" height="24.000000" rx="0" ry="0" style="stroke:#000000;fill:#FFFFFF;"/>
<text x="403.500000" y="176.000000" font-family="Verdana" font-size="7" text-anchor="middle" fill="#000000">-2147483648</text>
<circle cx="379.700000" cy="164.000000" r="1"/>
<line x1="368.700000" y1="153.000000" x2="368.700000" y2="195.000000"  style="stroke: black; stroke-linecap:round; stroke-width:0.25; stroke-dasharray:3,3;"/>
<line x1="368.700000" y1="195.000000" x2="438.300000" y2="195.000000"  style="stroke: black; stroke-linecap:round; stroke-width:0.25; stroke-dasharray:3,3;"/>
<line x1="438.300000" y1="195.000000" x2="438.300000" y2="153.000000"  style="stroke: black; stroke-linecap:round; stroke-width:0.25; stroke-dasharray:3,3;"/>
<line x1="368.700000" y1="153.000000" x2="373.700000" y2="153.000000"  style="stroke: black; stroke-linecap:round; stroke-width:0.25; stroke-dasharray:3,3;"/>
<line x1="383.375000" y1="153.000000" x2="438.300000" y2="153.000000"  style="stroke: black; stroke-linecap:round; stroke-width:0.25; stroke-dasharray:3,3;"/>
<text x="373.700000" y="155.000000" font-family="Verdana" font-size="7">m</text>
<rect x="455.300000" y="158.000000" width="24.000000" height="24.000000" rx="0" ry="0" style="stroke:#000000;fill:#FFFFFF;"/>
<text x="467.300000" y="172.000000" font-family="Verdana" font-size="7" text-anchor="middle" fill="#000000">/</text>
<circle cx="457.300000" cy="160.000000" r="1"/>
<line x1="452.300000" y1="165.000000" x2="455.300000" y2="166.000000"  transform="rotate(0.000000,455.300000,166.000000)" style="stroke: black; stroke-width:0.25;"/>
<line x1="452.300000" y1="167.000000" x2="455.300000" y2="166.000000"  transform="rotate(0.000000,455.300000,166.000000)" style="stroke: black; stroke-width:0.25;"/>
<line x1="452.300000" y1="173.000000" x2="455.300000" y2="174.000000"  transform="rotate(0.000000,455.300000,174.000000)" style="stroke: black; stroke-width:0.25;"/>
<line x1="452.300000" y1="175.000000" x2="455.300000" y2="174.000000"  transform="rotate(0.000000,455.300000,174.000000)" style="stroke: black; stroke-width:0.25;"/>
<rect x="377.700000" y="222.000000" width="51.600000" height="24.000000" rx="0" ry="0" style="stroke:#000000;fill:#FFFFFF;"/>
<text x="403.500000" y="236.000000" font-family="Verdana" font-size="7" text-anchor="middle" fill="#000000">-2147483648</text>
<circle cx="379.700000" cy="224.000000" r="1"/>
<line x1="368.700000" y1="213.000000" x2="368.700000" y2="255.000000"  style="stroke: black; stroke-linecap:round; stroke-width:0.25; stroke-dasharray:3,3;"/>
<line x1="368.700000" y1="255.000000" x2="438.300000" y2="255.000000"  style="stroke: black; stroke-linecap:round; stroke-width:0.25; stroke-dasharray:3,3;"/>
<line x1="438.300000" y1="255.000000" x2="438.300000" y2="213.000000"  style="stroke: black; stroke-linecap:round; stroke-width:0.25; stroke-dasharray:3,3;"/>
<line x1="368.700000" y1="213.000000" x2="373.700000" y2="213.000000"  style="stroke: black; stroke-linecap:round; stroke-width:0.25; stroke-dasharray:3,3;"/>
<line x1="383.375000" y1="213.000000" x2="438.300000" y2="213.000000"  style="stroke: black; stroke-linecap:round; stroke-width:0.25; stroke-dasharray:3,3;"/>
<text x="373.700000" y="215.000000" font-family="Verdana" font-size="7">m</text>
<rect x="455.300000" y="218.000000" width="24.000000" height="24.000000" rx="0" ry="0" style="stroke:#000000;fill:#FFFFFF;"/>
<text x="467.300000" y="232.000000" font-family="Verdana" font-size="7" text-anchor="middle" fill="#000000">/</text>
<circle cx="457.300000" cy="220.000000" r="1"/>
<line x1="452.300000" y1="225.000000" x2="455.300000" y2="226.000000"  transform="rotate(0.000000,455.300000,226.000000)" style="stroke: black; stroke-width:0.25;"/>
<line x1="452.300000" y1="227.000000" x2="455.300000" y2="226.000000"  transform="rotate(0.000000,455.300000,226.000000)" style="stroke: black; stroke-width:0.25;"/>
<line x1="452.300000" y1="233.000000" x2="455.300000" y2="234.000000"  transform="rotate(0.000000,455.300000,234.000000)" style="stroke: black; stroke-width:0.25;"/>
<line x1="452.300000" y1="235.000000" x2="455.300000" y2="234.000000"  transform="rotate(0.000000,455.300000,234.000000)" style="stroke: black; stroke-width:0.25;"/>
<rect x="377.700000" y="282.000000" width="51.600000" height="24.000000" rx="0" ry="0" style="stroke:#000000;fill:#FFFFFF;"/>
<text x="403.500000" y="296.000000" font-family="Verdana" font-size="7" text-anchor="middle" fill="#000000">-2147483648</text>
<circle cx="379.700000" cy="284.000000" r="1"/>
<line x1="368.700000" y1="273.000000" x2="368.700000" y2="315.000000"  style="stroke: black; stroke-linecap:round; stroke-width:0.25; stroke-dasharray:3,3;"/>
<line x1="368.700000" y1="315.000000" x2="438.300000" y2="315.000000"  style="stroke: black; stroke-linecap:round; stroke-width:0.25; stroke-dasharray:3,3;"/>
<line x1="438.300000" y1="315.000000" x2="438.300000" y2="273.000000"  style="stroke: black; stroke-linecap:round; stroke-width:0.25; stroke-dasharray:3,3;"/>
<line x1="368.700000" y1="273.000000" x2="373.700000" y2="273.000000"  style="stroke: black; stroke-linecap:round; stroke-width:0.25; stroke-dasharray:3,3;"/>
<line x1="383.375000" y1="273.000000" x2="438.300000" y2="273.000000"  style="stroke: black; stroke-linecap:round; stroke-width:0.25; stroke-dasharray:3,3;"/>
<text x="373.700000" y="275.000000" font-family="Verdana" font-size="7">m</text>
<rect x="455.300000" y="278.000000" width="24.000000" height="24.000000" rx="0" ry="0" style="stroke:#000000;fill:#FFFFFF;"/>
<text x="467.300000" y="292.000000" font-family="Verdana" font-size="7" text-anchor="middle" fill="#000000">/</text>
<circle cx="457.300000" cy="280.000000" r="1"/>
<line x1="452.300000" y1="285.000000" x2="455.300000" y2="286.000000"  transform="rotate(0.000000,455.300000,286.000000)" style="stroke: black; stroke-width:0.25;"/>
<line x1="452.300000" y1="287.000000" x2="455.300000" y2="286.000000"  transform="rotate(0.000000,455.300000,286.000000)" style="stroke: black; stroke-width:0.25;"/>
<line x1="452.300000" y1="293.000000" x2="455.300000" y2="294.000000"  transform="rotate(0.000000,455.300000,294.000000)" style="stroke: black; stroke-width:0.25;"/>
<line x1="452.300000" y1="295.000000" x2="455.300000" y2="294.000000"  transform="rotate(0.000000,455.300000,294.000000)" style="stroke: black; stroke-width:0.25;"/>
<rect x="377.700000" y="342.000000" width="51.600000" height="24.000000" rx="0" ry="0" style="stroke:#000000;fill:#FFFFFF;"/>
<text x="403.500000" y="356.000000" font-family="Verdana" font-size="7" text-anchor="middle" fill="#000000">-2147483648</text>
<circle cx="379.700000" cy="344.000000" r="1"/>
<line x1="368.700000" y1="333.000000" x2="368.700000" y2="375.000000"  style="stroke: black; stroke-linecap:round; stroke-width:0.25; stroke-dasharray:3,3;"/>
<line x1="368.700000" y1="375.000000" x2="438.300000" y2="375.000000"  style="stroke: black; stroke-linecap:round; stroke-width:0.25; stroke-dasharray:3,3;"/>
<line x1="438.300000" y1="375.000000" x2="438.300000" y2="333.000000"  style="stroke: black; stroke-linecap:round; stroke-width:0.25; stroke-dasharray:3,3;"/>
<line x1="368.700000" y1="333.000000" x2="373.700000" y2="333.000000"  style="stroke: black; stroke-linecap:round; stroke-width:0.25; stroke-dasharray:3,3;"/>
<line x1="383.375000" y1="333.000000" x2="438.300000" y2="333.000000"  style="stroke: black; stroke-linecap:round; stroke-width:0.25; stroke-dasharray:3,3;"/>
<text x="373.700000" y="335.000000" font-family="Verdana" font-size="7">m</text>
<rect x="455.300000" y="338.000000" width="24.000000" height="24.000000" rx="0" ry="0" style="stroke:#000000;fill:#FFFFFF;"/>
<text x="467.300000" y="352.000000" font-family="Verdana" font-size="7" text-anchor="middle" fill="#000000">/</text>
<circle cx="457.300000" cy="340.000000" r="1"/>
<line x1="452.300000" y1="345.000000" x2="455.300000" y2="346.000000"  transform="rotate(0.000000,455.300000,346.000000)" style="stroke: black; stroke-width:0.25;"/>
<line x1="452.300000" y1="347.000000" x2="455.300000" y2="346.000000"  transform="rotate(0.000000,455.300000,346.000000)" style="stroke: black; stroke-width:0.25;"/>
<line x1="452.300000" y1="353.000000" x2="455.300000" y2="354.000000"  transform="rotate(0.000000,455.300000,354.000000)" style="stroke: black; stroke-width:0.25;"/>
<line x1="452.300000" y1="355.000000" x2="455.300000" y2="354.000000"  transform="rotate(0.000000,455.300000,354.000000)" style="stroke: black; stroke-width:0.25;"/>
<line x1="15.000000" y1="15.000000" x2="15.000000" y2="385.000000"  style="stroke: black; stroke-linecap:round; stroke-width:0.25; stroke-dasharray:3,3;"/>
<line x1="15.000000" y1="385.000000" x2="520.300000" y2="385.000000"  style="stroke: black; stroke-linecap:round; stroke-width:0.25; stroke-dasharray:3,3;"/>
<line x1="520.300000" y1="385.000000" x2="520.300000" y2="15.000000"  style="stroke: black; stroke-linecap:round; stroke-width:0.25; stroke-dasharray:3,3;"/>
<line x1="15.000000" y1="15.000000" x2="20.000000" y2="15.000000"  style="stroke: black; stroke-linecap:round; stroke-width:0.25; stroke-dasharray:3,3;"/>
<line x1="84.500000" y1="15.000000" x2="520.300000" y2="15.000000"  style="stroke: black; stroke-linecap:round; stroke-width:0.25; stroke-dasharray:3,3;"/>
<text x="20.000000" y="17.000000" font-family="Verdana" font-size="7">noise(6)(15021995)</text>
<line x1="522.300000" y1="179.000000" x2="525.300000" y2="180.000000"  transform="rotate(0.000000,525.300000,180.000000)" style="stroke: black; stroke-width:0.25;"/>
<line x1="522.300000" y1="181.000000" x2="525.300000" y2="180.000000"  transform="rotate(0.000000,525.300000,180.000000)" style="stroke: black; stroke-width:0.25;"/>
<line x1="522.300000" y1="187.000000" x2="525.300000" y2="188.000000"  transform="rotate(0.000000,525.300000,188.000000)" style="stroke: black; stroke-width:0.25;"/>
<line x1="522.300000" y1="189.000000" x2="525.300000" y2="188.000000"  transform="rotate(0.000000,525.300000,188.000000)" style="stroke: black; stroke-width:0.25;"/>
<line x1="522.300000" y1="195.000000" x2="525.300000" y2="196.000000"  transform="rotate(0.000000,525.300000,196.000000)" style="stroke: black; stroke-width:0.25;"/>
<line x1="522.300000" y1="197.000000" x2="525.300000" y2="196.000000"  transform="rotate(0.000000,525.300000,196.000000)" style="stroke: black; stroke-width:0.25;"/>
<line x1="522.300000" y1="203.000000" x2="525.300000" y2="204.000000"  transform="rotate(0.000000,525.300000,204.000000)" style="stroke: black; stroke-width:0.25;"/>
<line x1="522.300000" y1="205.000000" x2="525.300000" y2="204.000000"  transform="rotate(0.000000,525.300000,204.000000)" style="stroke: black; stroke-width:0.25;"/>
<line x1="522.300000" y1="211.000000" x2="525.300000" y2="212.000000"  transform="rotate(0.000000,525.300000,212.000000)" style="stroke: black; stroke-width:0.25;"/>
<line x1="522.300000" y1="213.000000" x2="525.300000" y2="212.000000"  transform="rotate(0.000000,525.300000,212.000000)" style="stroke: black; stroke-width:0.25;"/>
<line x1="522.300000" y1="219.000000" x2="525.300000" y2="220.000000"  transform="rotate(0.000000,525.300000,220.000000)" style="stroke: black; stroke-width:0.25;"/>
<line x1="522.300000" y1="221.000000" x2="525.300000" y2="220.000000"  transform="rotate(0.000000,525.300000,220.000000)" style="stroke: black; stroke-width:0.25;"/>
<line x1="28.000000" y1="164.000000" x2="28.000000" y2="164.000000"  style="stroke:black; stroke-linecap:round; stroke-width:0.25;"/>
<line x1="28.000000" y1="164.000000" x2="28.000000" y2="172.000000"  style="stroke:black; stroke-linecap:round; stroke-width:0.25;"/>
<line x1="28.000000" y1="172.000000" x2="28.000000" y2="172.000000"  style="stroke:black; stroke-linecap:round; stroke-width:0.25;"/>
<line x1="28.000000" y1="172.000000" x2="87.350000" y2="172.000000"  style="stroke:black; stroke-linecap:round; stroke-width:0.25;"/>
<line x1="70.700000" y1="224.000000" x2="74.700000" y2="224.000000"  style="stroke:black; stroke-linecap:round; stroke-width:0.25;"/>
<line x1="74.700000" y1="224.000000" x2="74.700000" y2="224.000000"  style="stroke:black; stroke-linecap:round; stroke-width:0.25;"/>
<line x1="74.700000" y1="224.000000" x2="78.700000" y2="224.000000"  style="stroke:black; stroke-linecap:round; stroke-width:0.25;"/>
<line x1="86.700000" y1="192.000000" x2="90.700000" y2="192.000000"  style="stroke:black; stroke-linecap:round; stroke-width:0.25;"/>
<line x1="87.350000" y1="172.000000" x2="146.700000" y2="172.000000"  style="stroke:black; stroke-linecap:round; stroke-width:0.25;"/>
<line x1="90.700000" y1="192.000000" x2="106.700000" y2="192.000000"  style="stroke:black; stroke-linecap:round; stroke-width:0.25;"/>
<line x1="102.700000" y1="224.000000" x2="106.700000" y2="224.000000"  style="stroke:black; stroke-linecap:round; stroke-width:0.25;"/>
<line x1="106.700000" y1="192.000000" x2="114.700000" y2="192.000000"  style="stroke:black; stroke-linecap:round; stroke-width:0.25;"/>
<line x1="106.700000" y1="212.000000" x2="114.700000" y2="212.000000"  style="stroke:black; stroke-linecap:round; stroke-width:0.25;"/>
<line x1="106.700000" y1="224.000000" x2="106.700000" y2="212.000000"  style="stroke:black; stroke-linecap:round; stroke-width:0.25;"/>
<line x1="106.700000" y1="224.000000" x2="106.700000" y2="224.000000"  style="stroke:black; stroke-linecap:round; stroke-width:0.25;"/>
<line x1="114.700000" y1="192.000000" x2="114.700000" y2="204.000000"  style="stroke:black; stroke-linecap:round; stroke-width:0.25;"/>
<line x1="114.700000" y1="204.000000" x2="114.700000" y2="204.000000"  style="stroke:black; stroke-linecap:round; stroke-width:0.25;"/>
<line x1="114.700000" y1="204.000000" x2="118.700000" y2="204.000000"  style="stroke:black; stroke-linecap:round; stroke-width:0.25;"/>
<line x1="114.700000" y1="212.000000" x2="118.700000" y2="212.000000"  style="stroke:black; stroke-linecap:round; stroke-width:0.25;"/>
<line x1="142.700000" y1="208.000000" x2="146.700000" y2="208.000000"  style="stroke:black; stroke-linecap:round; stroke-width:0.25;"/>
<line x1="146.700000" y1="172.000000" x2="154.700000" y2="172.000000"  style="stroke:black; stroke-linecap:round; stroke-width:0.25;"/>
<line x1="146.700000" y1="208.000000" x2="154.700000" y2="208.000000"  style="stroke:black; stroke-linecap:round; stroke-width:0.25;"/>
<line x1="154.700000" y1="172.000000" x2="154.700000" y2="200.000000"  style="stroke:black; stroke-linecap:round; stroke-width:0.25;"/>
<line x1="154.700000" y1="200.000000" x2="154.700000" y2="200.000000"  style="stroke:black; stroke-linecap:round; stroke-width:0.25;"/>
<line x1="154.700000" y1="200.000000" x2="158.700000" y2="200.000000"  style="stroke:black; stroke-linecap:round; stroke-width:0.25;"/>
<line x1="154.700000" y1="208.000000" x2="158.700000" y2="208.000000"  style="stroke:black; stroke-linecap:round; stroke-width:0.25;"/>
<line x1="175.850000" y1="164.000000" x2="28.000000" y2="164.000000"  style="stroke:black; stroke-linecap:round; stroke-width:0.25;"/>
<line x1="182.700000" y1="204.000000" x2="186.700000" y2="204.000000"  style="stroke:black; stroke-linecap:round; stroke-width:0.25;"/>
<line x1="186.700000" y1="204.000000" x2="186.700000" y2="204.000000"  style="stroke:black; stroke-linecap:round; stroke-width:0.25;"/>
<line x1="186.700000" y1="204.000000" x2="190.700000" y2="204.000000"  style="stroke:black; stroke-linecap:round; stroke-width:0.25;"/>
<line x1="319.700000" y1="184.000000" x2="323.700000" y2="184.000000"  style="stroke:black; stroke-linecap:round; stroke-width:0.25;"/>
<line x1="319.700000" y1="192.000000" x2="323.700000" y2="192.000000"  style="stroke:black; stroke-linecap:round; stroke-width:0.25;"/>
<line x1="319.700000" y1="200.000000" x2="323.700000" y2="200.000000"  style="stroke:black; stroke-linecap:round; stroke-width:0.25;"/>
<line x1="319.700000" y1="208.000000" x2="323.700000" y2="208.000000"  style="stroke:black; stroke-linecap:round; stroke-width:0.25;"/>
<line x1="319.700000" y1="216.000000" x2="323.700000" y2="216.000000"  style="stroke:black; stroke-linecap:round; stroke-width:0.25;"/>
<line x1="319.700000" y1="224.000000" x2="323.700000" y2="224.000000"  style="stroke:black; stroke-linecap:round; stroke-width:0.25;"/>
<line x1="323.700000" y1="164.000000" x2="175.850000" y2="164.000000"  style="stroke:black; stroke-linecap:round; stroke-width:0.25;"/>
<line x1="323.700000" y1="164.000000" x2="323.700000" y2="164.000000"  style="stroke:black; stroke-linecap:round; stroke-width:0.25;"/>
<line x1="323.700000" y1="180.000000" x2="323.700000" y2="164.000000"  style="stroke:black; stroke-linecap:round; stroke-width:0.25;"/>
<line x1="323.700000" y1="184.000000" x2="325.700000" y2="184.000000"  style="stroke:black; stroke-linecap:round; stroke-width:0.25;"/>
<line x1="323.700000" y1="192.000000" x2="331.700000" y2="192.000000"  style="stroke:black; stroke-linecap:round; stroke-width:0.25;"/>
<line x1="323.700000" y1="200.000000" x2="331.700000" y2="200.000000"  style="stroke:black; stroke-linecap:round; stroke-width:0.25;"/>
<line x1="323.700000" y1="208.000000" x2="331.700000" y2="208.000000"  style="stroke:black; stroke-linecap:round; stroke-width:0.25;"/>
<line x1="323.700000" y1="216.000000" x2="331.700000" y2="216.000000"  style="stroke:black; stroke-linecap:round; stroke-width:0.25;"/>
<line x1="323.700000" y1="224.000000" x2="331.700000" y2="224.000000"  style="stroke:black; stroke-linecap:round; stroke-width:0.25;"/>
<line x1="325.700000" y1="184.000000" x2="331.700000" y2="184.000000"  style="stroke:black; stroke-linecap:round; stroke-width:0.25;"/>
<line x1="331.700000" y1="24.000000" x2="363.700000" y2="24.000000"  style="stroke:black; stroke-linecap:round; stroke-width:0.25;"/>
<line x1="331.700000" y1="184.000000" x2="331.700000" y2="24.000000"  style="stroke:black; stroke-linecap:round; stroke-width:0.25;"/>
<line x1="331.700000" y1="184.000000" x2="331.700000" y2="184.000000"  style="stroke:black; stroke-linecap:round; stroke-width:0.25;"/>
<line x1="331.700000" y1="192.000000" x2="339.700000" y2="192.000000"  style="stroke:black; stroke-linecap:round; stroke-width:0.25;"/>
<line x1="331.700000" y1="200.000000" x2="347.700000" y2="200.000000"  style="stroke:black; stroke-linecap:round; stroke-width:0.25;"/>
<line x1="331.700000" y1="208.000000" x2="355.700000" y2="208.000000"  style="stroke:black; stroke-linecap:round; stroke-width:0.25;"/>
<line x1="331.700000" y1="216.000000" x2="363.700000" y2="216.000000"  style="stroke:black; stroke-linecap:round; stroke-width:0.25;"/>
<line x1="331.700000" y1="224.000000" x2="355.700000" y2="224.000000"  style="stroke:black; stroke-linecap:round; stroke-width:0.25;"/>
<line x1="339.700000" y1="84.000000" x2="363.700000" y2="84.000000"  style="stroke:black; stroke-linecap:round; stroke-width:0.25;"/>
<line x1="339.700000" y1="192.000000" x2="339.700000" y2="84.000000"  style="stroke:black; stroke-linecap:round; stroke-width:0.25;"/>
<line x1="347.700000" y1="144.000000" x2="363.700000" y2="144.000000"  style="stroke:black; stroke-linecap:round; stroke-width:0.25;"/>
<line x1="347.700000" y1="200.000000" x2="347.700000" y2="144.000000"  style="stroke:black; stroke-linecap:round; stroke-width:0.25;"/>
<line x1="355.700000" y1="204.000000" x2="363.700000" y2="204.000000"  style="stroke:black; stroke-linecap:round; stroke-width:0.25;"/>
<line x1="355.700000" y1="208.000000" x2="355.700000" y2="204.000000"  style="stroke:black; stroke-linecap:round; stroke-width:0.25;"/>
<line x1="355.700000" y1="224.000000" x2="355.700000" y2="324.000000"  style="stroke:black; stroke-linecap:round; stroke-width:0.25;"/>
<line x1="355.700000" y1="324.000000" x2="363.700000" y2="324.000000"  style="stroke:black; stroke-linecap:round; stroke-width:0.25;"/>
<line x1="363.700000" y1="24.000000" x2="403.500000" y2="24.000000"  style="stroke:black; stroke-linecap:round; stroke-width:0.25;"/>
<line x1="363.700000" y1="84.000000" x2="403.500000" y2="84.000000"  style="stroke:black; stroke-linecap:round; stroke-width:0.25;"/>
<line x1="363.700000" y1="144.000000" x2="403.500000" y2="144.000000"  style="stroke:black; stroke-linecap:round; stroke-width:0.25;"/>
<line x1="363.700000" y1="204.000000" x2="403.500000" y2="204.000000"  style="stroke:black; stroke-linecap:round; stroke-width:0.25;"/>
<line x1="363.700000" y1="216.000000" x2="363.700000" y2="264.000000"  style="stroke:black; stroke-linecap:round; stroke-width:0.25;"/>
<line x1="363.700000" y1="264.000000" x2="363.700000" y2="264.000000"  style="stroke:black; stroke-linecap:round; stroke-width:0.25;"/>
<line x1="363.700000" y1="264.000000" x2="403.500000" y2="264.000000"  style="stroke:black; stroke-linecap:round; stroke-width:0.25;"/>
<line x1="363.700000" y1="324.000000" x2="403.500000" y2="324.000000"  style="stroke:black; stroke-linecap:round; stroke-width:0.25;"/>
<line x1="403.500000" y1="24.000000" x2="443.300000" y2="24.000000"  style="stroke:black; stroke-linecap:round; stroke-width:0.25;"/>
<line x1="403.500000" y1="84.000000" x2="443.300000" y2="84.000000"  style="stroke:black; stroke-linecap:round; stroke-width:0.25;"/>
<line x1="403.500000" y1="144.000000" x2="443.300000" y2="144.000000"  style="stroke:black; stroke-linecap:round; stroke-width:0.25;"/>
<line x1="403.500000" y1="204.000000" x2="443.300000" y2="204.000000"  style="stroke:black; stroke-linecap:round; stroke-width:0.25;"/>
<line x1="403.500000" y1="264.000000" x2="443.300000" y2="264.000000"  style="stroke:black; stroke-linecap:round; stroke-width:0.25;"/>
<line x1="403.500000" y1="324.000000" x2="443.300000" y2="324.000000"  style="stroke:black; stroke-linecap:round; stroke-width:0.25;"/>
<line x1="429.300000" y1="54.000000" x2="433.300000" y2="54.000000"  style="stroke:black; stroke-linecap:round; stroke-width:0.25;"/>
<line x1="429.300000" y1="114.000000" x2="433.300000" y2="114.000000"  style="stroke:black; stroke-linecap:round; stroke-width:0.25;"/>
<line x1="429.300000" y1="174.000000" x2="433.300000" y2="174.000000"  style="stroke:black; stroke-linecap:round; stroke-width:0.25;"/>
<line x1="429.300000" y1="234.000000" x2="433.300000" y2="234.000000"  style="stroke:black; stroke-linecap:round; stroke-width:0.25;"/>
<line x1="429.300000" y1="294.000000" x2="433.300000" y2="294.000000"  style="stroke:black; stroke-linecap:round; stroke-width:0.25;"/>
<line x1="429.300000" y1="354.000000" x2="433.300000" y2="354.000000"  style="stroke:black; stroke-linecap:round; stroke-width:0.25;"/>
<line x1="433.300000" y1="54.000000" x2="443.300000" y2="54.000000"  style="stroke:black; stroke-linecap:round; stroke-width:0.25;"/>
<line x1="433.300000" y1="114.000000" x2="443.300000" y2="114.000000"  style="stroke:black; stroke-linecap:round; stroke-width:0.25;"/>
<line x1="433.300000" y1="174.000000" x2="443.300000" y2="174.000000"  style="stroke:black; stroke-linecap:round; stroke-width:0.25;"/>
<line x1="433.300000" y1="234.000000" x2="443.300000" y2="234.000000"  style="stroke:black; stroke-linecap:round; stroke-width:0.25;"/>
<line x1="433.300000" y1="294.000000" x2="443.300000" y2="294.000000"  style="stroke:black; stroke-linecap:round; stroke-width:0.25;"/>
<line x1="433.300000" y1="354.000000" x2="443.300000" y2="354.000000"  style="stroke:black; stroke-linecap:round; stroke-width:0.25;"/>
<line x1="443.300000" y1="54.000000" x2="451.300000" y2="54.000000"  style="stroke:black; stroke-linecap:round; stroke-width:0.25;"/>
<line x1="443.300000" y1="114.000000" x2="451.300000" y2="114.000000"  style="stroke:black; stroke-linecap:round; stroke-width:0.25;"/>
<line x1="443.300000" y1="174.000000" x2="451.300000" y2="174.000000"  style="stroke:black; stroke-linecap:round; stroke-width:0.25;"/>
<line x1="443.300000" y1="234.000000" x2="451.300000" y2="234.000000"  style="stroke:black; stroke-linecap:round; stroke-width:0.25;"/>
<line x1="443.300000" y1="294.000000" x2="451.300000" y2="294.000000"  style="stroke:black; stroke-linecap:round; stroke-width:0.25;"/>
<line x1="443.300000" y1="354.000000" x2="451.300000" y2="354.000000"  style="stroke:black; stroke-linecap:round; stroke-width:0.25;"/>
<line x1="443.300000" y1="24.000000" x2="451.300000" y2="24.000000"  style="stroke:black; stroke-linecap:round; stroke-width:0.25;"/>
<line x1="443.300000" y1="84.000000" x2="451.300000" y2="84.000000"  style="stroke:black; stroke-linecap:round; stroke-width:0.25;"/>
<line x1="443.300000" y1="144.000000" x2="451.300000" y2="144.000000"  style="stroke:black; stroke-linecap:round; stroke-width:0.25;"/>
<line x1="443.300000" y1="204.000000" x2="451.300000" y2="204.000000"  style="stroke:black; stroke-linecap:round; stroke-width:0.25;"/>
<line x1="443.300000" y1="264.000000" x2="451.300000" y2="264.000000"  style="stroke:black; stroke-linecap:round; stroke-width:0.25;"/>
<line x1="443.300000" y1="324.000000" x2="451.300000" y2="324.000000"  style="stroke:black; stroke-linecap:round; stroke-width:0.25;"/>
<line x1="451.300000" y1="46.000000" x2="455.300000" y2="46.000000"  style="stroke:black; stroke-linecap:round; stroke-width:0.25;"/>
<line x1="451.300000" y1="54.000000" x2="455.300000" y2="54.000000"  style="stroke:black; stroke-linecap:round; stroke-width:0.25;"/>
<line x1="451.300000" y1="106.000000" x2="455.300000" y2="106.000000"  style="stroke:black; stroke-linecap:round; stroke-width:0.25;"/>
<line x1="451.300000" y1="114.000000" x2="455.300000" y2="114.000000"  style="stroke:black; stroke-linecap:round; stroke-width:0.25;"/>
<line x1="451.300000" y1="166.000000" x2="455.300000" y2="166.000000"  style="stroke:black; stroke-linecap:round; stroke-width:0.25;"/>
<line x1="451.300000" y1="174.000000" x2="455.300000" y2="174.000000"  style="stroke:black; stroke-linecap:round; stroke-width:0.25;"/>
<line x1="451.300000" y1="226.000000" x2="455.300000" y2="226.000000"  style="stroke:black; stroke-linecap:round; stroke-width:0.25;"/>
<line x1="451.300000" y1="234.000000" x2="455.300000" y2="234.000000"  style="stroke:black; stroke-linecap:round; stroke-width:0.25;"/>
<line x1="451.300000" y1="286.000000" x2="455.300000" y2="286.000000"  style="stroke:black; stroke-linecap:round; stroke-width:0.25;"/>
<line x1="451.300000" y1="294.000000" x2="455.300000" y2="294.000000"  style="stroke:black; stroke-linecap:round; stroke-width:0.25;"/>
<line x1="451.300000" y1="346.000000" x2="455.300000" y2="346.000000"  style="stroke:black; stroke-linecap:round; stroke-width:0.25;"/>
<line x1="451.300000" y1="354.000000" x2="455.300000" y2="354.000000"  style="stroke:black; stroke-linecap:round; stroke-width:0.25;"/>
<line x1="451.300000" y1="24.000000" x2="451.300000" y2="46.000000"  style="stroke:black; stroke-linecap:round; stroke-width:0.25;"/>
<line x1="451.300000" y1="46.000000" x2="451.300000" y2="46.000000"  style="stroke:black; stroke-linecap:round; stroke-width:0.25;"/>
<line x1="451.300000" y1="84.000000" x2="451.300000" y2="106.000000"  style="stroke:black; stroke-linecap:round; stroke-width:0.25;"/>
<line x1="451.300000" y1="106.000000" x2="451.300000" y2="106.000000"  style="stroke:black; stroke-linecap:round; stroke-width:0.25;"/>
<line x1="451.300000" y1="144.000000" x2="451.300000" y2="166.000000"  style="stroke:black; stroke-linecap:round; stroke-width:0.25;"/>
<line x1="451.300000" y1="166.000000" x2="451.300000" y2="166.000000"  style="stroke:black; stroke-linecap:round; stroke-width:0.25;"/>
<line x1="451.300000" y1="204.000000" x2="451.300000" y2="226.000000"  style="stroke:black; stroke-linecap:round; stroke-width:0.25;"/>
<line x1="451.300000" y1="226.000000" x2="451.300000" y2="226.000000"  style="stroke:black; stroke-linecap:round; stroke-width:0.25;"/>
<line x1="451.300000" y1="264.000000" x2="451.300000" y2="286.000000"  style="stroke:black; stroke-linecap:round; stroke-width:0.25;"/>
<line x1="451.300000" y1="286.000000" x2="451.300000" y2="286.000000"  style="stroke:black; stroke-linecap:round; stroke-width:0.25;"/>
<line x1="451.300000" y1="324.000000" x2="451.300000" y2="346.000000"  style="stroke:black; stroke-linecap:round; stroke-width:0.25;"/>
<line x1="451.300000" y1="346.000000" x2="451.300000" y2="346.000000"  style="stroke:black; stroke-linecap:round; stroke-width:0.25;"/>
<line x1="479.300000" y1="50.000000" x2="483.300000" y2="50.000000"  style="stroke:black; stroke-linecap:round; stroke-width:0.25;"/>
<line x1="479.300000" y1="110.000000" x2="483.300000" y2="110.000000"  style="stroke:black; stroke-linecap:round; stroke-width:0.25;"/>
<line x1="479.300000" y1="170.000000" x2="483.300000" y2="170.000000"  style="stroke:black; stroke-linecap:round; stroke-width:0.25;"/>
<line x1="479.300000" y1="230.000000" x2="483.300000" y2="230.000000"  style="stroke:black; stroke-linecap:round; stroke-width:0.25;"/>
<line x1="479.300000" y1="290.000000" x2="483.300000" y2="290.000000"  style="stroke:black; stroke-linecap:round; stroke-width:0.25;"/>
<line x1="479.300000" y1="350.000000" x2="483.300000" y2="350.000000"  style="stroke:black; stroke-linecap:round; stroke-width:0.25;"/>
<line x1="483.300000" y1="50.000000" x2="507.300000" y2="50.000000"  style="stroke:black; stroke-linecap:round; stroke-width:0.25;"/>
<line x1="483.300000" y1="110.000000" x2="499.300000" y2="110.000000"  style="stroke:black; stroke-linecap:round; stroke-width:0.25;"/>
<line x1="483.300000" y1="170.000000" x2="491.300000" y2="170.000000"  style="stroke:black; stroke-linecap:round; stroke-width:0.25;"/>
<line x1="483.300000" y1="204.000000" x2="507.300000" y2="204.000000"  style="stroke:black; stroke-linecap:round; stroke-width:0.25;"/>
<line x1="483.300000" y1="230.000000" x2="483.300000" y2="204.000000"  style="stroke:black; stroke-linecap:round; stroke-width:0.25;"/>
<line x1="483.300000" y1="230.000000" x2="483.300000" y2="230.000000"  style="stroke:black; stroke-linecap:round; stroke-width:0.25;"/>
<line x1="483.300000" y1="290.000000" x2="491.300000" y2="290.000000"  style="stroke:black; stroke-linecap:round; stroke-width:0.25;"/>
<line x1="483.300000" y1="350.000000" x2="499.300000" y2="350.000000"  style="stroke:black; stroke-linecap:round; stroke-width:0.25;"/>
<line x1="491.300000" y1="170.000000" x2="491.300000" y2="196.000000"  style="stroke:black; stroke-linecap:round; stroke-width:0.25;"/>
<line x1="491.300000" y1="196.000000" x2="507.300000" y2="196.000000"  style="stroke:black; stroke-linecap:round; stroke-width:0.25;"/>
<line x1="491.300000" y1="212.000000" x2="507.300000" y2="212.000000"  style="stroke:black; stroke-linecap:round; stroke-width:0.25;"/>
<line x1="491.300000" y1="290.000000" x2="491.300000" y2="212.000000"  style="stroke:black; stroke-linecap:round; stroke-width:0.25;"/>
<line x1="499.300000" y1="110.000000" x2="499.300000" y2="188.000000"  style="stroke:black; stroke-linecap:round; stroke-width:0.25;"/>
<line x1="499.300000" y1="188.000000" x2="507.300000" y2="188.000000"  style="stroke:black; stroke-linecap:round; stroke-width:0.25;"/>
<line x1="499.300000" y1="220.000000" x2="507.300000" y2="220.000000"  style="stroke:black; stroke-linecap:round; stroke-width:0.25;"/>
<line x1="499.300000" y1="350.000000" x2="499.300000" y2="220.000000"  style="stroke:black; stroke-linecap:round; stroke-width:0.25;"/>
<line x1="507.300000" y1="50.000000" x2="507.300000" y2="180.000000"  style="stroke:black; stroke-linecap:round; stroke-width:0.25;"/>
<line x1="507.300000" y1="180.000000" x2="507.300000" y2="180.000000"  style="stroke:black; stroke-linecap:round; stroke-width:0.25;"/>
<line x1="507.300000" y1="180.000000" x2="511.300000" y2="180.000000"  style="stroke:black; stroke-linecap:round; stroke-width:0.25;"/>
<line x1="507.300000" y1="188.000000" x2="511.300000" y2="188.000000"  style="stroke:black; stroke-linecap:round; stroke-width:0.25;"/>
<line x1="507.300000" y1="196.000000" x2="511.300000" y2="196.000000"  style="stroke:black; stroke-linecap:round; stroke-width:0.25;"/>
<line x1="507.300000" y1="204.000000" x2="511.300000" y2="204.000000"  style="stroke:black; stroke-linecap:round; stroke-width:0.25;"/>
<line x1="507.300000" y1="212.000000" x2="511.300000" y2="212.000000"  style="stroke:black; stroke-linecap:round; stroke-width:0.25;"/>
<line x1="507.300000" y1="220.000000" x2="511.300000" y2="220.000000"  style="stroke:black; stroke-linecap:round; stroke-width:0.25;"/>
<line x1="511.300000" y1="180.000000" x2="515.300000" y2="180.000000"  style="stroke:black; stroke-linecap:round; stroke-width:0.25;"/>
<line x1="511.300000" y1="188.000000" x2="515.300000" y2="188.000000"  style="stroke:black; stroke-linecap:round; stroke-width:0.25;"/>
<line x1="511.300000" y1="196.000000" x2="515.300000" y2="196.000000"  style="stroke:black; stroke-linecap:round; stroke-width:0.25;"/>
<line x1="511.300000" y1="204.000000" x2="515.300000" y2="204.000000"  style="stroke:black; stroke-linecap:round; stroke-width:0.25;"/>
<line x1="511.300000" y1="212.000000" x2="515.300000" y2="212.000000"  style="stroke:black; stroke-linecap:round; stroke-width:0.25;"/>
<line x1="511.300000" y1="220.000000" x2="515.300000" y2="220.000000"  style="stroke:black; stroke-linecap:round; stroke-width:0.25;"/>
<line x1="515.300000" y1="180.000000" x2="525.300000" y2="180.000000"  style="stroke:black; stroke-linecap:round; stroke-width:0.25;"/>
<line x1="515.300000" y1="188.000000" x2="525.300000" y2="188.000000"  style="stroke:black; stroke-linecap:round; stroke-width:0.25;"/>
<line x1="515.300000" y1="196.000000" x2="525.300000" y2="196.000000"  style="stroke:black; stroke-linecap:round; stroke-width:0.25;"/>
<line x1="515.300000" y1="204.000000" x2="525.300000" y2="204.000000"  style="stroke:black; stroke-linecap:round; stroke-width:0.25;"/>
<line x1="515.300000" y1="212.000000" x2="525.300000" y2="212.000000"  style="stroke:black; stroke-linecap:round; stroke-width:0.25;"/>
<line x1="515.300000" y1="220.000000" x2="525.300000" y2="220.000000"  style="stroke:black; stroke-linecap:round; stroke-width:0.25;"/>
</svg>
