<?xml version="1.0"?>
<svg xmlns="http://www.w3.org/2000/svg" xmlns:xlink="http://www.w3.org/1999/xlink" viewBox="0 0 380.100000 248.000000" width="190.050000mm" height="124.000000mm" version="1.1">
<a xlink:href="ControlSignalPat-0x60000f1977b0.svg">
<rect x="0.000000" y="0.000000" width="379.100000" height="247.000000" rx="0" ry="0" style="stroke:#000000;fill:#FFFFFF;"/>
</a>
<text x="10.000000" y="7.000000" font-family="Verdana" font-size="7"></text>
<a xlink:href="dirac-0x60000314cea0.svg">
<rect x="107.350000" y="40.000000" width="25.800000" height="24.000000" rx="0" ry="0" style="stroke:#000000;fill:#FFFFFF;"/>
</a>
<a xlink:href="dirac-0x60000314cea0.svg">
<text x="120.250000" y="54.000000" font-family="Verdana" font-size="7" text-anchor="middle" fill="#000000">dirac</text>
</a>
<circle cx="109.350000" cy="42.000000" r="1"/>
<rect x="149.150000" y="36.000000" width="24.000000" height="24.000000" rx="0" ry="0" style="stroke:#000000;fill:#FFFFFF;"/>
<text x="161.150000" y="50.000000" font-family="Verdana" font-size="7" text-anchor="middle" fill="#000000">+</text>
<circle cx="151.150000" cy="38.000000" r="1"/>
<line x1="146.150000" y1="43.000000" x2="149.150000" y2="44.000000"  transform="rotate(0.000000,149.150000,44.000000)" style="stroke: black; stroke-width:0.25;"/>
<line x1="146.150000" y1="45.000000" x2="149.150000" y2="44.000000"  transform="rotate(0.000000,149.150000,44.000000)" style="stroke: black; stroke-width:0.25;"/>
<line x1="146.150000" y1="51.000000" x2="149.150000" y2="52.000000"  transform="rotate(0.000000,149.150000,52.000000)" style="stroke: black; stroke-width:0.25;"/>
<line x1="146.150000" y1="53.000000" x2="149.150000" y2="52.000000"  transform="rotate(0.000000,149.150000,52.000000)" style="stroke: black; stroke-width:0.25;"/>
<rect x="88.250000" y="72.000000" width="24.000000" height="24.000000" rx="0" ry="0" style="stroke:#000000;fill:#FFFFFF;"/>
<text x="100.250000" y="86.000000" font-family="Verdana" font-size="7" text-anchor="middle" fill="#000000">abs</text>
<circle cx="90.250000" cy="74.000000" r="1"/>
<line x1="85.250000" y1="83.000000" x2="88.250000" y2="84.000000"  transform="rotate(0.000000,88.250000,84.000000)" style="stroke: black; stroke-width:0.25;"/>
<line x1="85.250000" y1="85.000000" x2="88.250000" y2="84.000000"  transform="rotate(0.000000,88.250000,84.000000)" style="stroke: black; stroke-width:0.25;"/>
<rect x="68.250000" y="104.000000" width="24.000000" height="24.000000" rx="0" ry="0" style="stroke:#000000;fill:#FFFFFF;"/>
<text x="80.250000" y="118.000000" font-family="Verdana" font-size="7" text-anchor="middle" fill="#000000">1</text>
<circle cx="70.250000" cy="106.000000" r="1"/>
<rect x="48.000000" y="136.000000" width="64.500000" height="24.000000" rx="0" ry="0" style="stroke:#000000;fill:#FFFFFF;"/>
<text x="80.250000" y="150.000000" font-family="Verdana" font-size="7" text-anchor="middle" fill="#000000">[21] cntrlMin</text>
<circle cx="50.000000" cy="138.000000" r="1"/>
<rect x="128.500000" y="120.000000" width="24.000000" height="24.000000" rx="0" ry="0" style="stroke:#000000;fill:#FFFFFF;"/>
<text x="140.500000" y="134.000000" font-family="Verdana" font-size="7" text-anchor="middle" fill="#000000">/</text>
<circle cx="130.500000" cy="122.000000" r="1"/>
<line x1="125.500000" y1="127.000000" x2="128.500000" y2="128.000000"  transform="rotate(0.000000,128.500000,128.000000)" style="stroke: black; stroke-width:0.25;"/>
<line x1="125.500000" y1="129.000000" x2="128.500000" y2="128.000000"  transform="rotate(0.000000,128.500000,128.000000)" style="stroke: black; stroke-width:0.25;"/>
<line x1="125.500000" y1="135.000000" x2="128.500000" y2="136.000000"  transform="rotate(0.000000,128.500000,136.000000)" style="stroke: black; stroke-width:0.25;"/>
<line x1="125.500000" y1="137.000000" x2="128.500000" y2="136.000000"  transform="rotate(0.000000,128.500000,136.000000)" style="stroke: black; stroke-width:0.25;"/>
<rect x="168.500000" y="104.000000" width="24.000000" height="24.000000" rx="0" ry="0" style="stroke:#000000;fill:#FFFFFF;"/>
<text x="180.500000" y="118.000000" font-family="Verdana" font-size="7" text-anchor="middle" fill="#000000">*</text>
<circle cx="170.500000" cy="106.000000" r="1"/>
<line x1="165.500000" y1="111.000000" x2="168.500000" y2="112.000000"  transform="rotate(0.000000,168.500000,112.000000)" style="stroke: black; stroke-width:0.25;"/>
<line x1="165.500000" y1="113.000000" x2="168.500000" y2="112.000000"  transform="rotate(0.000000,168.500000,112.000000)" style="stroke: black; stroke-width:0.25;"/>
<line x1="165.500000" y1="119.000000" x2="168.500000" y2="120.000000"  transform="rotate(0.000000,168.500000,120.000000)" style="stroke: black; stroke-width:0.25;"/>
<line x1="165.500000" y1="121.000000" x2="168.500000" y2="120.000000"  transform="rotate(0.000000,168.500000,120.000000)" style="stroke: black; stroke-width:0.25;"/>
<rect x="88.250000" y="168.000000" width="24.000000" height="24.000000" rx="0" ry="0" style="stroke:#000000;fill:#FFFFFF;"/>
<text x="100.250000" y="182.000000" font-family="Verdana" font-size="7" text-anchor="middle" fill="#000000">1</text>
<circle cx="90.250000" cy="170.000000" r="1"/>
<rect x="68.000000" y="200.000000" width="64.500000" height="24.000000" rx="0" ry="0" style="stroke:#000000;fill:#FFFFFF;"/>
<text x="100.250000" y="214.000000" font-family="Verdana" font-size="7" text-anchor="middle" fill="#000000">[22] cntrlMax</text>
<circle cx="70.000000" cy="202.000000" r="1"/>
<rect x="148.500000" y="184.000000" width="24.000000" height="24.000000" rx="0" ry="0" style="stroke:#000000;fill:#FFFFFF;"/>
<text x="160.500000" y="198.000000" font-family="Verdana" font-size="7" text-anchor="middle" fill="#000000">/</text>
<circle cx="150.500000" cy="186.000000" r="1"/>
<line x1="145.500000" y1="191.000000" x2="148.500000" y2="192.000000"  transform="rotate(0.000000,148.500000,192.000000)" style="stroke: black; stroke-width:0.25;"/>
<line x1="145.500000" y1="193.000000" x2="148.500000" y2="192.000000"  transform="rotate(0.000000,148.500000,192.000000)" style="stroke: black; stroke-width:0.25;"/>
<line x1="145.500000" y1="199.000000" x2="148.500000" y2="200.000000"  transform="rotate(0.000000,148.500000,200.000000)" style="stroke: black; stroke-width:0.25;"/>
<line x1="145.500000" y1="201.000000" x2="148.500000" y2="200.000000"  transform="rotate(0.000000,148.500000,200.000000)" style="stroke: black; stroke-width:0.25;"/>
<rect x="208.500000" y="136.000000" width="24.000000" height="24.000000" rx="0" ry="0" style="stroke:#000000;fill:#FFFFFF;"/>
<text x="220.500000" y="150.000000" font-family="Verdana" font-size="7" text-anchor="middle" fill="#000000">+</text>
<circle cx="210.500000" cy="138.000000" r="1"/>
<line x1="205.500000" y1="143.000000" x2="208.500000" y2="144.000000"  transform="rotate(0.000000,208.500000,144.000000)" style="stroke: black; stroke-width:0.25;"/>
<line x1="205.500000" y1="145.000000" x2="208.500000" y2="144.000000"  transform="rotate(0.000000,208.500000,144.000000)" style="stroke: black; stroke-width:0.25;"/>
<line x1="205.500000" y1="151.000000" x2="208.500000" y2="152.000000"  transform="rotate(0.000000,208.500000,152.000000)" style="stroke: black; stroke-width:0.25;"/>
<line x1="205.500000" y1="153.000000" x2="208.500000" y2="152.000000"  transform="rotate(0.000000,208.500000,152.000000)" style="stroke: black; stroke-width:0.25;"/>
<a xlink:href="sah-0x60000f19afd0.svg">
<rect x="248.500000" y="116.000000" width="24.000000" height="24.000000" rx="0" ry="0" style="stroke:#000000;fill:#FFFFFF;"/>
</a>
<a xlink:href="sah-0x60000f19afd0.svg">
<text x="260.500000" y="130.000000" font-family="Verdana" font-size="7" text-anchor="middle" fill="#000000">sah</text>
</a>
<circle cx="250.500000" cy="118.000000" r="1"/>
<line x1="245.500000" y1="123.000000" x2="248.500000" y2="124.000000"  transform="rotate(0.000000,248.500000,124.000000)" style="stroke: black; stroke-width:0.25;"/>
<line x1="245.500000" y1="125.000000" x2="248.500000" y2="124.000000"  transform="rotate(0.000000,248.500000,124.000000)" style="stroke: black; stroke-width:0.25;"/>
<line x1="245.500000" y1="131.000000" x2="248.500000" y2="132.000000"  transform="rotate(0.000000,248.500000,132.000000)" style="stroke: black; stroke-width:0.25;"/>
<line x1="245.500000" y1="133.000000" x2="248.500000" y2="132.000000"  transform="rotate(0.000000,248.500000,132.000000)" style="stroke: black; stroke-width:0.25;"/>
<a xlink:href="pulseTrain-0x60000f1969a0.svg">
<rect x="280.500000" y="116.000000" width="51.600000" height="24.000000" rx="0" ry="0" style="stroke:#000000;fill:#FFFFFF;"/>
</a>
<a xlink:href="pulseTrain-0x60000f1969a0.svg">
<text x="306.300000" y="130.000000" font-family="Verdana" font-size="7" text-anchor="middle" fill="#000000">pulseTrain</text>
</a>
<circle cx="282.500000" cy="118.000000" r="1"/>
<line x1="277.500000" y1="127.000000" x2="280.500000" y2="128.000000"  transform="rotate(0.000000,280.500000,128.000000)" style="stroke: black; stroke-width:0.25;"/>
<line x1="277.500000" y1="129.000000" x2="280.500000" y2="128.000000"  transform="rotate(0.000000,280.500000,128.000000)" style="stroke: black; stroke-width:0.25;"/>
<line x1="334.100000" y1="128.000000" x2="334.100000" y2="124.000000"  style="stroke:black; stroke-linecap:round; stroke-width:0.25;"/>
<line x1="334.100000" y1="124.000000" x2="338.100000" y2="124.000000"  style="stroke:black; stroke-linecap:round; stroke-width:0.25;"/>
<line x1="338.100000" y1="124.000000" x2="338.100000" y2="128.000000"  style="stroke:black; stroke-linecap:round; stroke-width:0.25;"/>
<line x1="15.000000" y1="15.000000" x2="15.000000" y2="233.000000"  style="stroke: black; stroke-linecap:round; stroke-width:0.25; stroke-dasharray:3,3;"/>
<line x1="15.000000" y1="233.000000" x2="365.100000" y2="233.000000"  style="stroke: black; stroke-linecap:round; stroke-width:0.25; stroke-dasharray:3,3;"/>
<line x1="365.100000" y1="233.000000" x2="365.100000" y2="15.000000"  style="stroke: black; stroke-linecap:round; stroke-width:0.25; stroke-dasharray:3,3;"/>
<line x1="15.000000" y1="15.000000" x2="20.000000" y2="15.000000"  style="stroke: black; stroke-linecap:round; stroke-width:0.25; stroke-dasharray:3,3;"/>
<line x1="68.375000" y1="15.000000" x2="365.100000" y2="15.000000"  style="stroke: black; stroke-linecap:round; stroke-width:0.25; stroke-dasharray:3,3;"/>
<text x="20.000000" y="17.000000" font-family="Verdana" font-size="7">randomtrigger</text>
<line x1="367.100000" y1="123.000000" x2="370.100000" y2="124.000000"  transform="rotate(0.000000,370.100000,124.000000)" style="stroke: black; stroke-width:0.25;"/>
<line x1="367.100000" y1="125.000000" x2="370.100000" y2="124.000000"  transform="rotate(0.000000,370.100000,124.000000)" style="stroke: black; stroke-width:0.25;"/>
<line x1="10.000000" y1="124.000000" x2="20.000000" y2="124.000000"  style="stroke:black; stroke-linecap:round; stroke-width:0.25;"/>
<line x1="20.000000" y1="124.000000" x2="24.000000" y2="124.000000"  style="stroke:black; stroke-linecap:round; stroke-width:0.25;"/>
<line x1="24.000000" y1="124.000000" x2="28.000000" y2="124.000000"  style="stroke:black; stroke-linecap:round; stroke-width:0.25;"/>
<line x1="28.000000" y1="84.000000" x2="36.000000" y2="84.000000"  style="stroke:black; stroke-linecap:round; stroke-width:0.25;"/>
<line x1="28.000000" y1="124.000000" x2="28.000000" y2="84.000000"  style="stroke:black; stroke-linecap:round; stroke-width:0.25;"/>
<line x1="28.000000" y1="124.000000" x2="28.000000" y2="124.000000"  style="stroke:black; stroke-linecap:round; stroke-width:0.25;"/>
<line x1="36.000000" y1="84.000000" x2="44.000000" y2="84.000000"  style="stroke:black; stroke-linecap:round; stroke-width:0.25;"/>
<line x1="44.000000" y1="32.000000" x2="103.350000" y2="32.000000"  style="stroke:black; stroke-linecap:round; stroke-width:0.25;"/>
<line x1="44.000000" y1="24.000000" x2="44.000000" y2="24.000000"  style="stroke:black; stroke-linecap:round; stroke-width:0.25;"/>
<line x1="44.000000" y1="24.000000" x2="44.000000" y2="32.000000"  style="stroke:black; stroke-linecap:round; stroke-width:0.25;"/>
<line x1="44.000000" y1="32.000000" x2="44.000000" y2="32.000000"  style="stroke:black; stroke-linecap:round; stroke-width:0.25;"/>
<line x1="44.000000" y1="84.000000" x2="84.250000" y2="84.000000"  style="stroke:black; stroke-linecap:round; stroke-width:0.25;"/>
<line x1="84.250000" y1="84.000000" x2="88.250000" y2="84.000000"  style="stroke:black; stroke-linecap:round; stroke-width:0.25;"/>
<line x1="92.250000" y1="116.000000" x2="96.250000" y2="116.000000"  style="stroke:black; stroke-linecap:round; stroke-width:0.25;"/>
<line x1="96.250000" y1="116.000000" x2="116.500000" y2="116.000000"  style="stroke:black; stroke-linecap:round; stroke-width:0.25;"/>
<line x1="103.350000" y1="32.000000" x2="120.250000" y2="32.000000"  style="stroke:black; stroke-linecap:round; stroke-width:0.25;"/>
<line x1="112.250000" y1="84.000000" x2="116.250000" y2="84.000000"  style="stroke:black; stroke-linecap:round; stroke-width:0.25;"/>
<line x1="112.250000" y1="180.000000" x2="116.250000" y2="180.000000"  style="stroke:black; stroke-linecap:round; stroke-width:0.25;"/>
<line x1="112.500000" y1="148.000000" x2="116.500000" y2="148.000000"  style="stroke:black; stroke-linecap:round; stroke-width:0.25;"/>
<line x1="116.250000" y1="84.000000" x2="156.500000" y2="84.000000"  style="stroke:black; stroke-linecap:round; stroke-width:0.25;"/>
<line x1="116.250000" y1="180.000000" x2="136.500000" y2="180.000000"  style="stroke:black; stroke-linecap:round; stroke-width:0.25;"/>
<line x1="116.500000" y1="116.000000" x2="124.500000" y2="116.000000"  style="stroke:black; stroke-linecap:round; stroke-width:0.25;"/>
<line x1="116.500000" y1="136.000000" x2="124.500000" y2="136.000000"  style="stroke:black; stroke-linecap:round; stroke-width:0.25;"/>
<line x1="116.500000" y1="148.000000" x2="116.500000" y2="136.000000"  style="stroke:black; stroke-linecap:round; stroke-width:0.25;"/>
<line x1="116.500000" y1="148.000000" x2="116.500000" y2="148.000000"  style="stroke:black; stroke-linecap:round; stroke-width:0.25;"/>
<line x1="120.250000" y1="32.000000" x2="137.150000" y2="32.000000"  style="stroke:black; stroke-linecap:round; stroke-width:0.25;"/>
<line x1="124.500000" y1="116.000000" x2="124.500000" y2="128.000000"  style="stroke:black; stroke-linecap:round; stroke-width:0.25;"/>
<line x1="124.500000" y1="128.000000" x2="124.500000" y2="128.000000"  style="stroke:black; stroke-linecap:round; stroke-width:0.25;"/>
<line x1="124.500000" y1="128.000000" x2="128.500000" y2="128.000000"  style="stroke:black; stroke-linecap:round; stroke-width:0.25;"/>
<line x1="124.500000" y1="136.000000" x2="128.500000" y2="136.000000"  style="stroke:black; stroke-linecap:round; stroke-width:0.25;"/>
<line x1="132.500000" y1="212.000000" x2="136.500000" y2="212.000000"  style="stroke:black; stroke-linecap:round; stroke-width:0.25;"/>
<line x1="133.150000" y1="52.000000" x2="137.150000" y2="52.000000"  style="stroke:black; stroke-linecap:round; stroke-width:0.25;"/>
<line x1="136.500000" y1="180.000000" x2="144.500000" y2="180.000000"  style="stroke:black; stroke-linecap:round; stroke-width:0.25;"/>
<line x1="136.500000" y1="200.000000" x2="144.500000" y2="200.000000"  style="stroke:black; stroke-linecap:round; stroke-width:0.25;"/>
<line x1="136.500000" y1="212.000000" x2="136.500000" y2="200.000000"  style="stroke:black; stroke-linecap:round; stroke-width:0.25;"/>
<line x1="136.500000" y1="212.000000" x2="136.500000" y2="212.000000"  style="stroke:black; stroke-linecap:round; stroke-width:0.25;"/>
<line x1="137.150000" y1="52.000000" x2="145.150000" y2="52.000000"  style="stroke:black; stroke-linecap:round; stroke-width:0.25;"/>
<line x1="137.150000" y1="32.000000" x2="145.150000" y2="32.000000"  style="stroke:black; stroke-linecap:round; stroke-width:0.25;"/>
<line x1="144.500000" y1="180.000000" x2="144.500000" y2="192.000000"  style="stroke:black; stroke-linecap:round; stroke-width:0.25;"/>
<line x1="144.500000" y1="192.000000" x2="144.500000" y2="192.000000"  style="stroke:black; stroke-linecap:round; stroke-width:0.25;"/>
<line x1="144.500000" y1="192.000000" x2="148.500000" y2="192.000000"  style="stroke:black; stroke-linecap:round; stroke-width:0.25;"/>
<line x1="144.500000" y1="200.000000" x2="148.500000" y2="200.000000"  style="stroke:black; stroke-linecap:round; stroke-width:0.25;"/>
<line x1="145.150000" y1="44.000000" x2="149.150000" y2="44.000000"  style="stroke:black; stroke-linecap:round; stroke-width:0.25;"/>
<line x1="145.150000" y1="52.000000" x2="149.150000" y2="52.000000"  style="stroke:black; stroke-linecap:round; stroke-width:0.25;"/>
<line x1="145.150000" y1="32.000000" x2="145.150000" y2="44.000000"  style="stroke:black; stroke-linecap:round; stroke-width:0.25;"/>
<line x1="145.150000" y1="44.000000" x2="145.150000" y2="44.000000"  style="stroke:black; stroke-linecap:round; stroke-width:0.25;"/>
<line x1="152.500000" y1="132.000000" x2="156.500000" y2="132.000000"  style="stroke:black; stroke-linecap:round; stroke-width:0.25;"/>
<line x1="156.500000" y1="84.000000" x2="164.500000" y2="84.000000"  style="stroke:black; stroke-linecap:round; stroke-width:0.25;"/>
<line x1="156.500000" y1="120.000000" x2="164.500000" y2="120.000000"  style="stroke:black; stroke-linecap:round; stroke-width:0.25;"/>
<line x1="156.500000" y1="132.000000" x2="156.500000" y2="120.000000"  style="stroke:black; stroke-linecap:round; stroke-width:0.25;"/>
<line x1="156.500000" y1="132.000000" x2="156.500000" y2="132.000000"  style="stroke:black; stroke-linecap:round; stroke-width:0.25;"/>
<line x1="164.500000" y1="84.000000" x2="164.500000" y2="112.000000"  style="stroke:black; stroke-linecap:round; stroke-width:0.25;"/>
<line x1="164.500000" y1="112.000000" x2="164.500000" y2="112.000000"  style="stroke:black; stroke-linecap:round; stroke-width:0.25;"/>
<line x1="164.500000" y1="112.000000" x2="168.500000" y2="112.000000"  style="stroke:black; stroke-linecap:round; stroke-width:0.25;"/>
<line x1="164.500000" y1="120.000000" x2="168.500000" y2="120.000000"  style="stroke:black; stroke-linecap:round; stroke-width:0.25;"/>
<line x1="172.500000" y1="196.000000" x2="176.500000" y2="196.000000"  style="stroke:black; stroke-linecap:round; stroke-width:0.25;"/>
<line x1="173.150000" y1="48.000000" x2="177.150000" y2="48.000000"  style="stroke:black; stroke-linecap:round; stroke-width:0.25;"/>
<line x1="176.500000" y1="196.000000" x2="196.500000" y2="196.000000"  style="stroke:black; stroke-linecap:round; stroke-width:0.25;"/>
<line x1="177.150000" y1="48.000000" x2="236.500000" y2="48.000000"  style="stroke:black; stroke-linecap:round; stroke-width:0.25;"/>
<line x1="190.050000" y1="24.000000" x2="44.000000" y2="24.000000"  style="stroke:black; stroke-linecap:round; stroke-width:0.25;"/>
<line x1="192.500000" y1="116.000000" x2="196.500000" y2="116.000000"  style="stroke:black; stroke-linecap:round; stroke-width:0.25;"/>
<line x1="196.500000" y1="116.000000" x2="204.500000" y2="116.000000"  style="stroke:black; stroke-linecap:round; stroke-width:0.25;"/>
<line x1="196.500000" y1="152.000000" x2="204.500000" y2="152.000000"  style="stroke:black; stroke-linecap:round; stroke-width:0.25;"/>
<line x1="196.500000" y1="196.000000" x2="196.500000" y2="152.000000"  style="stroke:black; stroke-linecap:round; stroke-width:0.25;"/>
<line x1="196.500000" y1="196.000000" x2="196.500000" y2="196.000000"  style="stroke:black; stroke-linecap:round; stroke-width:0.25;"/>
<line x1="204.500000" y1="116.000000" x2="204.500000" y2="144.000000"  style="stroke:black; stroke-linecap:round; stroke-width:0.25;"/>
<line x1="204.500000" y1="144.000000" x2="204.500000" y2="144.000000"  style="stroke:black; stroke-linecap:round; stroke-width:0.25;"/>
<line x1="204.500000" y1="144.000000" x2="208.500000" y2="144.000000"  style="stroke:black; stroke-linecap:round; stroke-width:0.25;"/>
<line x1="204.500000" y1="152.000000" x2="208.500000" y2="152.000000"  style="stroke:black; stroke-linecap:round; stroke-width:0.25;"/>
<line x1="232.500000" y1="148.000000" x2="236.500000" y2="148.000000"  style="stroke:black; stroke-linecap:round; stroke-width:0.25;"/>
<line x1="236.500000" y1="48.000000" x2="244.500000" y2="48.000000"  style="stroke:black; stroke-linecap:round; stroke-width:0.25;"/>
<line x1="236.500000" y1="132.000000" x2="244.500000" y2="132.000000"  style="stroke:black; stroke-linecap:round; stroke-width:0.25;"/>
<line x1="236.500000" y1="148.000000" x2="236.500000" y2="132.000000"  style="stroke:black; stroke-linecap:round; stroke-width:0.25;"/>
<line x1="236.500000" y1="148.000000" x2="236.500000" y2="148.000000"  style="stroke:black; stroke-linecap:round; stroke-width:0.25;"/>
<line x1="244.500000" y1="48.000000" x2="244.500000" y2="124.000000"  style="stroke:black; stroke-linecap:round; stroke-width:0.25;"/>
<line x1="244.500000" y1="124.000000" x2="244.500000" y2="124.000000"  style="stroke:black; stroke-linecap:round; stroke-width:0.25;"/>
<line x1="244.500000" y1="124.000000" x2="248.500000" y2="124.000000"  style="stroke:black; stroke-linecap:round; stroke-width:0.25;"/>
<line x1="244.500000" y1="132.000000" x2="248.500000" y2="132.000000"  style="stroke:black; stroke-linecap:round; stroke-width:0.25;"/>
<line x1="272.500000" y1="128.000000" x2="276.500000" y2="128.000000"  style="stroke:black; stroke-linecap:round; stroke-width:0.25;"/>
<line x1="276.500000" y1="128.000000" x2="276.500000" y2="128.000000"  style="stroke:black; stroke-linecap:round; stroke-width:0.25;"/>
<line x1="276.500000" y1="128.000000" x2="280.500000" y2="128.000000"  style="stroke:black; stroke-linecap:round; stroke-width:0.25;"/>
<line x1="332.100000" y1="128.000000" x2="336.100000" y2="128.000000"  style="stroke:black; stroke-linecap:round; stroke-width:0.25;"/>
<line x1="336.100000" y1="24.000000" x2="190.050000" y2="24.000000"  style="stroke:black; stroke-linecap:round; stroke-width:0.25;"/>
<line x1="336.100000" y1="24.000000" x2="336.100000" y2="24.000000"  style="stroke:black; stroke-linecap:round; stroke-width:0.25;"/>
<line x1="336.100000" y1="124.000000" x2="336.100000" y2="24.000000"  style="stroke:black; stroke-linecap:round; stroke-width:0.25;"/>
<line x1="336.100000" y1="128.000000" x2="338.100000" y2="128.000000"  style="stroke:black; stroke-linecap:round; stroke-width:0.25;"/>
<line x1="338.100000" y1="128.000000" x2="344.100000" y2="128.000000"  style="stroke:black; stroke-linecap:round; stroke-width:0.25;"/>
<line x1="344.100000" y1="124.000000" x2="352.100000" y2="124.000000"  style="stroke:black; stroke-linecap:round; stroke-width:0.25;"/>
<line x1="344.100000" y1="128.000000" x2="344.100000" y2="124.000000"  style="stroke:black; stroke-linecap:round; stroke-width:0.25;"/>
<line x1="344.100000" y1="128.000000" x2="344.100000" y2="128.000000"  style="stroke:black; stroke-linecap:round; stroke-width:0.25;"/>
<line x1="352.100000" y1="124.000000" x2="356.100000" y2="124.000000"  style="stroke:black; stroke-linecap:round; stroke-width:0.25;"/>
<line x1="356.100000" y1="124.000000" x2="360.100000" y2="124.000000"  style="stroke:black; stroke-linecap:round; stroke-width:0.25;"/>
<line x1="360.100000" y1="124.000000" x2="370.100000" y2="124.000000"  style="stroke:black; stroke-linecap:round; stroke-width:0.25;"/>
</svg>
