<?xml version="1.0"?>
<svg xmlns="http://www.w3.org/2000/svg" xmlns:xlink="http://www.w3.org/1999/xlink" viewBox="0 0 438.900000 112.000000" width="219.450000mm" height="56.000000mm" version="1.1">
<a xlink:href="mixerVoiceG-0x60000f1814d0.svg">
<rect x="0.000000" y="0.000000" width="437.900000" height="111.000000" rx="0" ry="0" style="stroke:#000000;fill:#FFFFFF;"/>
</a>
<text x="10.000000" y="7.000000" font-family="Verdana" font-size="7"></text>
<rect x="40.000000" y="32.000000" width="193.500000" height="24.000000" rx="0" ry="0" style="stroke:#000000;fill:#FFFFFF;"/>
<text x="136.750000" y="46.000000" font-family="Verdana" font-size="7" text-anchor="middle" fill="#000000">vslider(G, -8e+01f, -8e+01f, -2e+01f, 0.001f)</text>
<circle cx="42.000000" cy="34.000000" r="1"/>
<rect x="124.750000" y="64.000000" width="24.000000" height="24.000000" rx="0" ry="0" style="stroke:#000000;fill:#FFFFFF;"/>
<text x="136.750000" y="78.000000" font-family="Verdana" font-size="7" text-anchor="middle" fill="#000000">80</text>
<circle cx="126.750000" cy="66.000000" r="1"/>
<rect x="249.500000" y="48.000000" width="24.000000" height="24.000000" rx="0" ry="0" style="stroke:#000000;fill:#FFFFFF;"/>
<text x="261.500000" y="62.000000" font-family="Verdana" font-size="7" text-anchor="middle" fill="#000000">+</text>
<circle cx="251.500000" cy="50.000000" r="1"/>
<line x1="246.500000" y1="55.000000" x2="249.500000" y2="56.000000"  transform="rotate(0.000000,249.500000,56.000000)" style="stroke: black; stroke-width:0.25;"/>
<line x1="246.500000" y1="57.000000" x2="249.500000" y2="56.000000"  transform="rotate(0.000000,249.500000,56.000000)" style="stroke: black; stroke-width:0.25;"/>
<line x1="246.500000" y1="63.000000" x2="249.500000" y2="64.000000"  transform="rotate(0.000000,249.500000,64.000000)" style="stroke: black; stroke-width:0.25;"/>
<line x1="246.500000" y1="65.000000" x2="249.500000" y2="64.000000"  transform="rotate(0.000000,249.500000,64.000000)" style="stroke: black; stroke-width:0.25;"/>
<a xlink:href="db2linear-0x60000339e910.svg">
<rect x="281.500000" y="48.000000" width="38.700000" height="24.000000" rx="0" ry="0" style="stroke:#000000;fill:#FFFFFF;"/>
</a>
<a xlink:href="db2linear-0x60000339e910.svg">
<text x="300.850000" y="62.000000" font-family="Verdana" font-size="7" text-anchor="middle" fill="#000000">db2linear</text>
</a>
<circle cx="283.500000" cy="50.000000" r="1"/>
<line x1="278.500000" y1="59.000000" x2="281.500000" y2="60.000000"  transform="rotate(0.000000,281.500000,60.000000)" style="stroke: black; stroke-width:0.25;"/>
<line x1="278.500000" y1="61.000000" x2="281.500000" y2="60.000000"  transform="rotate(0.000000,281.500000,60.000000)" style="stroke: black; stroke-width:0.25;"/>
<a xlink:href="smoocntrl-0x6000033907e0.svg">
<rect x="328.200000" y="48.000000" width="38.700000" height="24.000000" rx="0" ry="0" style="stroke:#000000;fill:#FFFFFF;"/>
</a>
<a xlink:href="smoocntrl-0x6000033907e0.svg">
<text x="347.550000" y="62.000000" font-family="Verdana" font-size="7" text-anchor="middle" fill="#000000">smoocntrl</text>
</a>
<circle cx="330.200000" cy="50.000000" r="1"/>
<line x1="325.200000" y1="59.000000" x2="328.200000" y2="60.000000"  transform="rotate(0.000000,328.200000,60.000000)" style="stroke: black; stroke-width:0.25;"/>
<line x1="325.200000" y1="61.000000" x2="328.200000" y2="60.000000"  transform="rotate(0.000000,328.200000,60.000000)" style="stroke: black; stroke-width:0.25;"/>
<rect x="382.900000" y="44.000000" width="24.000000" height="24.000000" rx="0" ry="0" style="stroke:#000000;fill:#FFFFFF;"/>
<text x="394.900000" y="58.000000" font-family="Verdana" font-size="7" text-anchor="middle" fill="#000000">*</text>
<circle cx="384.900000" cy="46.000000" r="1"/>
<line x1="379.900000" y1="51.000000" x2="382.900000" y2="52.000000"  transform="rotate(0.000000,382.900000,52.000000)" style="stroke: black; stroke-width:0.25;"/>
<line x1="379.900000" y1="53.000000" x2="382.900000" y2="52.000000"  transform="rotate(0.000000,382.900000,52.000000)" style="stroke: black; stroke-width:0.25;"/>
<line x1="379.900000" y1="59.000000" x2="382.900000" y2="60.000000"  transform="rotate(0.000000,382.900000,60.000000)" style="stroke: black; stroke-width:0.25;"/>
<line x1="379.900000" y1="61.000000" x2="382.900000" y2="60.000000"  transform="rotate(0.000000,382.900000,60.000000)" style="stroke: black; stroke-width:0.25;"/>
<line x1="15.000000" y1="15.000000" x2="15.000000" y2="97.000000"  style="stroke: black; stroke-linecap:round; stroke-width:0.25; stroke-dasharray:3,3;"/>
<line x1="15.000000" y1="97.000000" x2="423.900000" y2="97.000000"  style="stroke: black; stroke-linecap:round; stroke-width:0.25; stroke-dasharray:3,3;"/>
<line x1="423.900000" y1="97.000000" x2="423.900000" y2="15.000000"  style="stroke: black; stroke-linecap:round; stroke-width:0.25; stroke-dasharray:3,3;"/>
<line x1="15.000000" y1="15.000000" x2="20.000000" y2="15.000000"  style="stroke: black; stroke-linecap:round; stroke-width:0.25; stroke-dasharray:3,3;"/>
<line x1="36.125000" y1="15.000000" x2="423.900000" y2="15.000000"  style="stroke: black; stroke-linecap:round; stroke-width:0.25; stroke-dasharray:3,3;"/>
<text x="20.000000" y="17.000000" font-family="Verdana" font-size="7">vol</text>
<line x1="425.900000" y1="55.000000" x2="428.900000" y2="56.000000"  transform="rotate(0.000000,428.900000,56.000000)" style="stroke: black; stroke-width:0.25;"/>
<line x1="425.900000" y1="57.000000" x2="428.900000" y2="56.000000"  transform="rotate(0.000000,428.900000,56.000000)" style="stroke: black; stroke-width:0.25;"/>
<line x1="10.000000" y1="56.000000" x2="20.000000" y2="56.000000"  style="stroke:black; stroke-linecap:round; stroke-width:0.25;"/>
<line x1="20.000000" y1="56.000000" x2="24.000000" y2="56.000000"  style="stroke:black; stroke-linecap:round; stroke-width:0.25;"/>
<line x1="24.000000" y1="56.000000" x2="28.000000" y2="56.000000"  style="stroke:black; stroke-linecap:round; stroke-width:0.25;"/>
<line x1="28.000000" y1="24.000000" x2="36.000000" y2="24.000000"  style="stroke:black; stroke-linecap:round; stroke-width:0.25;"/>
<line x1="28.000000" y1="56.000000" x2="28.000000" y2="24.000000"  style="stroke:black; stroke-linecap:round; stroke-width:0.25;"/>
<line x1="28.000000" y1="56.000000" x2="28.000000" y2="56.000000"  style="stroke:black; stroke-linecap:round; stroke-width:0.25;"/>
<line x1="36.000000" y1="24.000000" x2="203.450000" y2="24.000000"  style="stroke:black; stroke-linecap:round; stroke-width:0.25;"/>
<line x1="148.750000" y1="76.000000" x2="152.750000" y2="76.000000"  style="stroke:black; stroke-linecap:round; stroke-width:0.25;"/>
<line x1="152.750000" y1="76.000000" x2="237.500000" y2="76.000000"  style="stroke:black; stroke-linecap:round; stroke-width:0.25;"/>
<line x1="203.450000" y1="24.000000" x2="370.900000" y2="24.000000"  style="stroke:black; stroke-linecap:round; stroke-width:0.25;"/>
<line x1="233.500000" y1="44.000000" x2="237.500000" y2="44.000000"  style="stroke:black; stroke-linecap:round; stroke-width:0.25;"/>
<line x1="237.500000" y1="44.000000" x2="245.500000" y2="44.000000"  style="stroke:black; stroke-linecap:round; stroke-width:0.25;"/>
<line x1="237.500000" y1="64.000000" x2="245.500000" y2="64.000000"  style="stroke:black; stroke-linecap:round; stroke-width:0.25;"/>
<line x1="237.500000" y1="76.000000" x2="237.500000" y2="64.000000"  style="stroke:black; stroke-linecap:round; stroke-width:0.25;"/>
<line x1="237.500000" y1="76.000000" x2="237.500000" y2="76.000000"  style="stroke:black; stroke-linecap:round; stroke-width:0.25;"/>
<line x1="245.500000" y1="44.000000" x2="245.500000" y2="56.000000"  style="stroke:black; stroke-linecap:round; stroke-width:0.25;"/>
<line x1="245.500000" y1="56.000000" x2="245.500000" y2="56.000000"  style="stroke:black; stroke-linecap:round; stroke-width:0.25;"/>
<line x1="245.500000" y1="56.000000" x2="249.500000" y2="56.000000"  style="stroke:black; stroke-linecap:round; stroke-width:0.25;"/>
<line x1="245.500000" y1="64.000000" x2="249.500000" y2="64.000000"  style="stroke:black; stroke-linecap:round; stroke-width:0.25;"/>
<line x1="273.500000" y1="60.000000" x2="277.500000" y2="60.000000"  style="stroke:black; stroke-linecap:round; stroke-width:0.25;"/>
<line x1="277.500000" y1="60.000000" x2="277.500000" y2="60.000000"  style="stroke:black; stroke-linecap:round; stroke-width:0.25;"/>
<line x1="277.500000" y1="60.000000" x2="281.500000" y2="60.000000"  style="stroke:black; stroke-linecap:round; stroke-width:0.25;"/>
<line x1="320.200000" y1="60.000000" x2="324.200000" y2="60.000000"  style="stroke:black; stroke-linecap:round; stroke-width:0.25;"/>
<line x1="324.200000" y1="60.000000" x2="324.200000" y2="60.000000"  style="stroke:black; stroke-linecap:round; stroke-width:0.25;"/>
<line x1="324.200000" y1="60.000000" x2="328.200000" y2="60.000000"  style="stroke:black; stroke-linecap:round; stroke-width:0.25;"/>
<line x1="366.900000" y1="60.000000" x2="370.900000" y2="60.000000"  style="stroke:black; stroke-linecap:round; stroke-width:0.25;"/>
<line x1="370.900000" y1="24.000000" x2="378.900000" y2="24.000000"  style="stroke:black; stroke-linecap:round; stroke-width:0.25;"/>
<line x1="370.900000" y1="60.000000" x2="378.900000" y2="60.000000"  style="stroke:black; stroke-linecap:round; stroke-width:0.25;"/>
<line x1="378.900000" y1="24.000000" x2="378.900000" y2="52.000000"  style="stroke:black; stroke-linecap:round; stroke-width:0.25;"/>
<line x1="378.900000" y1="52.000000" x2="378.900000" y2="52.000000"  style="stroke:black; stroke-linecap:round; stroke-width:0.25;"/>
<line x1="378.900000" y1="52.000000" x2="382.900000" y2="52.000000"  style="stroke:black; stroke-linecap:round; stroke-width:0.25;"/>
<line x1="378.900000" y1="60.000000" x2="382.900000" y2="60.000000"  style="stroke:black; stroke-linecap:round; stroke-width:0.25;"/>
<line x1="406.900000" y1="56.000000" x2="410.900000" y2="56.000000"  style="stroke:black; stroke-linecap:round; stroke-width:0.25;"/>
<line x1="410.900000" y1="56.000000" x2="410.900000" y2="56.000000"  style="stroke:black; stroke-linecap:round; stroke-width:0.25;"/>
<line x1="410.900000" y1="56.000000" x2="414.900000" y2="56.000000"  style="stroke:black; stroke-linecap:round; stroke-width:0.25;"/>
<line x1="414.900000" y1="56.000000" x2="418.900000" y2="56.000000"  style="stroke:black; stroke-linecap:round; stroke-width:0.25;"/>
<line x1="418.900000" y1="56.000000" x2="428.900000" y2="56.000000"  style="stroke:black; stroke-linecap:round; stroke-width:0.25;"/>
</svg>
