<?xml version="1.0"?>
<svg xmlns="http://www.w3.org/2000/svg" xmlns:xlink="http://www.w3.org/1999/xlink" viewBox="0 0 571.400000 96.000000" width="285.700000mm" height="48.000000mm" version="1.1">
<a xlink:href="mixerVoiceM-0x6000531d6400.svg">
<rect x="0.000000" y="0.000000" width="570.400000" height="95.000000" rx="0" ry="0" style="stroke:#000000;fill:#FFFFFF;"/>
</a>
<text x="10.000000" y="7.000000" font-family="Verdana" font-size="7"></text>
<rect x="40.000000" y="40.000000" width="193.500000" height="24.000000" rx="0" ry="0" style="stroke:#000000;fill:#FFFFFF;"/>
<text x="136.750000" y="54.000000" font-family="Verdana" font-size="7" text-anchor="middle" fill="#000000">vslider(M, -8e+01f, -8e+01f, 2e+01f, 0.001f)</text>
<circle cx="42.000000" cy="42.000000" r="1"/>
<a xlink:href="db2linear-0x60000339e910.svg">
<rect x="241.500000" y="40.000000" width="38.700000" height="24.000000" rx="0" ry="0" style="stroke:#000000;fill:#FFFFFF;"/>
</a>
<a xlink:href="db2linear-0x60000339e910.svg">
<text x="260.850000" y="54.000000" font-family="Verdana" font-size="7" text-anchor="middle" fill="#000000">db2linear</text>
</a>
<circle cx="243.500000" cy="42.000000" r="1"/>
<line x1="238.500000" y1="51.000000" x2="241.500000" y2="52.000000"  transform="rotate(0.000000,241.500000,52.000000)" style="stroke: black; stroke-width:0.25;"/>
<line x1="238.500000" y1="53.000000" x2="241.500000" y2="52.000000"  transform="rotate(0.000000,241.500000,52.000000)" style="stroke: black; stroke-width:0.25;"/>
<a xlink:href="db2linear-0x60000f169ef0.svg">
<rect x="308.200000" y="40.000000" width="64.500000" height="24.000000" rx="0" ry="0" style="stroke:#000000;fill:#FFFFFF;"/>
</a>
<a xlink:href="db2linear-0x60000f169ef0.svg">
<text x="340.450000" y="54.000000" font-family="Verdana" font-size="7" text-anchor="middle" fill="#000000">db2linear(-80)</text>
</a>
<circle cx="310.200000" cy="42.000000" r="1"/>
<rect x="388.700000" y="36.000000" width="24.000000" height="24.000000" rx="0" ry="0" style="stroke:#000000;fill:#FFFFFF;"/>
<text x="400.700000" y="50.000000" font-family="Verdana" font-size="7" text-anchor="middle" fill="#000000">&gt;</text>
<circle cx="390.700000" cy="38.000000" r="1"/>
<line x1="385.700000" y1="43.000000" x2="388.700000" y2="44.000000"  transform="rotate(0.000000,388.700000,44.000000)" style="stroke: black; stroke-width:0.25;"/>
<line x1="385.700000" y1="45.000000" x2="388.700000" y2="44.000000"  transform="rotate(0.000000,388.700000,44.000000)" style="stroke: black; stroke-width:0.25;"/>
<line x1="385.700000" y1="51.000000" x2="388.700000" y2="52.000000"  transform="rotate(0.000000,388.700000,52.000000)" style="stroke: black; stroke-width:0.25;"/>
<line x1="385.700000" y1="53.000000" x2="388.700000" y2="52.000000"  transform="rotate(0.000000,388.700000,52.000000)" style="stroke: black; stroke-width:0.25;"/>
<rect x="428.700000" y="40.000000" width="24.000000" height="24.000000" rx="0" ry="0" style="stroke:#000000;fill:#FFFFFF;"/>
<text x="440.700000" y="54.000000" font-family="Verdana" font-size="7" text-anchor="middle" fill="#000000">*</text>
<circle cx="430.700000" cy="42.000000" r="1"/>
<line x1="425.700000" y1="47.000000" x2="428.700000" y2="48.000000"  transform="rotate(0.000000,428.700000,48.000000)" style="stroke: black; stroke-width:0.25;"/>
<line x1="425.700000" y1="49.000000" x2="428.700000" y2="48.000000"  transform="rotate(0.000000,428.700000,48.000000)" style="stroke: black; stroke-width:0.25;"/>
<line x1="425.700000" y1="55.000000" x2="428.700000" y2="56.000000"  transform="rotate(0.000000,428.700000,56.000000)" style="stroke: black; stroke-width:0.25;"/>
<line x1="425.700000" y1="57.000000" x2="428.700000" y2="56.000000"  transform="rotate(0.000000,428.700000,56.000000)" style="stroke: black; stroke-width:0.25;"/>
<a xlink:href="smoocntrl-0x6000033907e0.svg">
<rect x="460.700000" y="40.000000" width="38.700000" height="24.000000" rx="0" ry="0" style="stroke:#000000;fill:#FFFFFF;"/>
</a>
<a xlink:href="smoocntrl-0x6000033907e0.svg">
<text x="480.050000" y="54.000000" font-family="Verdana" font-size="7" text-anchor="middle" fill="#000000">smoocntrl</text>
</a>
<circle cx="462.700000" cy="42.000000" r="1"/>
<line x1="457.700000" y1="51.000000" x2="460.700000" y2="52.000000"  transform="rotate(0.000000,460.700000,52.000000)" style="stroke: black; stroke-width:0.25;"/>
<line x1="457.700000" y1="53.000000" x2="460.700000" y2="52.000000"  transform="rotate(0.000000,460.700000,52.000000)" style="stroke: black; stroke-width:0.25;"/>
<rect x="515.400000" y="36.000000" width="24.000000" height="24.000000" rx="0" ry="0" style="stroke:#000000;fill:#FFFFFF;"/>
<text x="527.400000" y="50.000000" font-family="Verdana" font-size="7" text-anchor="middle" fill="#000000">*</text>
<circle cx="517.400000" cy="38.000000" r="1"/>
<line x1="512.400000" y1="43.000000" x2="515.400000" y2="44.000000"  transform="rotate(0.000000,515.400000,44.000000)" style="stroke: black; stroke-width:0.25;"/>
<line x1="512.400000" y1="45.000000" x2="515.400000" y2="44.000000"  transform="rotate(0.000000,515.400000,44.000000)" style="stroke: black; stroke-width:0.25;"/>
<line x1="512.400000" y1="51.000000" x2="515.400000" y2="52.000000"  transform="rotate(0.000000,515.400000,52.000000)" style="stroke: black; stroke-width:0.25;"/>
<line x1="512.400000" y1="53.000000" x2="515.400000" y2="52.000000"  transform="rotate(0.000000,515.400000,52.000000)" style="stroke: black; stroke-width:0.25;"/>
<line x1="15.000000" y1="15.000000" x2="15.000000" y2="81.000000"  style="stroke: black; stroke-linecap:round; stroke-width:0.25; stroke-dasharray:3,3;"/>
<line x1="15.000000" y1="81.000000" x2="556.400000" y2="81.000000"  style="stroke: black; stroke-linecap:round; stroke-width:0.25; stroke-dasharray:3,3;"/>
<line x1="556.400000" y1="81.000000" x2="556.400000" y2="15.000000"  style="stroke: black; stroke-linecap:round; stroke-width:0.25; stroke-dasharray:3,3;"/>
<line x1="15.000000" y1="15.000000" x2="20.000000" y2="15.000000"  style="stroke: black; stroke-linecap:round; stroke-width:0.25; stroke-dasharray:3,3;"/>
<line x1="36.125000" y1="15.000000" x2="556.400000" y2="15.000000"  style="stroke: black; stroke-linecap:round; stroke-width:0.25; stroke-dasharray:3,3;"/>
<text x="20.000000" y="17.000000" font-family="Verdana" font-size="7">vol</text>
<line x1="558.400000" y1="47.000000" x2="561.400000" y2="48.000000"  transform="rotate(0.000000,561.400000,48.000000)" style="stroke: black; stroke-width:0.25;"/>
<line x1="558.400000" y1="49.000000" x2="561.400000" y2="48.000000"  transform="rotate(0.000000,561.400000,48.000000)" style="stroke: black; stroke-width:0.25;"/>
<line x1="10.000000" y1="48.000000" x2="20.000000" y2="48.000000"  style="stroke:black; stroke-linecap:round; stroke-width:0.25;"/>
<line x1="20.000000" y1="48.000000" x2="24.000000" y2="48.000000"  style="stroke:black; stroke-linecap:round; stroke-width:0.25;"/>
<line x1="24.000000" y1="48.000000" x2="28.000000" y2="48.000000"  style="stroke:black; stroke-linecap:round; stroke-width:0.25;"/>
<line x1="28.000000" y1="24.000000" x2="36.000000" y2="24.000000"  style="stroke:black; stroke-linecap:round; stroke-width:0.25;"/>
<line x1="28.000000" y1="48.000000" x2="28.000000" y2="24.000000"  style="stroke:black; stroke-linecap:round; stroke-width:0.25;"/>
<line x1="28.000000" y1="48.000000" x2="28.000000" y2="48.000000"  style="stroke:black; stroke-linecap:round; stroke-width:0.25;"/>
<line x1="36.000000" y1="24.000000" x2="269.700000" y2="24.000000"  style="stroke:black; stroke-linecap:round; stroke-width:0.25;"/>
<line x1="233.500000" y1="52.000000" x2="237.500000" y2="52.000000"  style="stroke:black; stroke-linecap:round; stroke-width:0.25;"/>
<line x1="237.500000" y1="52.000000" x2="237.500000" y2="52.000000"  style="stroke:black; stroke-linecap:round; stroke-width:0.25;"/>
<line x1="237.500000" y1="52.000000" x2="241.500000" y2="52.000000"  style="stroke:black; stroke-linecap:round; stroke-width:0.25;"/>
<line x1="269.700000" y1="24.000000" x2="503.400000" y2="24.000000"  style="stroke:black; stroke-linecap:round; stroke-width:0.25;"/>
<line x1="280.200000" y1="52.000000" x2="284.200000" y2="52.000000"  style="stroke:black; stroke-linecap:round; stroke-width:0.25;"/>
<line x1="284.200000" y1="52.000000" x2="304.200000" y2="32.000000"  style="stroke:black; stroke-linecap:round; stroke-width:0.25;"/>
<line x1="284.200000" y1="52.000000" x2="304.200000" y2="72.000000"  style="stroke:black; stroke-linecap:round; stroke-width:0.25;"/>
<line x1="304.200000" y1="32.000000" x2="340.450000" y2="32.000000"  style="stroke:black; stroke-linecap:round; stroke-width:0.25;"/>
<line x1="304.200000" y1="72.000000" x2="360.450000" y2="72.000000"  style="stroke:black; stroke-linecap:round; stroke-width:0.25;"/>
<line x1="340.450000" y1="32.000000" x2="376.700000" y2="32.000000"  style="stroke:black; stroke-linecap:round; stroke-width:0.25;"/>
<line x1="360.450000" y1="72.000000" x2="416.700000" y2="72.000000"  style="stroke:black; stroke-linecap:round; stroke-width:0.25;"/>
<line x1="372.700000" y1="52.000000" x2="376.700000" y2="52.000000"  style="stroke:black; stroke-linecap:round; stroke-width:0.25;"/>
<line x1="376.700000" y1="32.000000" x2="384.700000" y2="32.000000"  style="stroke:black; stroke-linecap:round; stroke-width:0.25;"/>
<line x1="376.700000" y1="52.000000" x2="384.700000" y2="52.000000"  style="stroke:black; stroke-linecap:round; stroke-width:0.25;"/>
<line x1="384.700000" y1="32.000000" x2="384.700000" y2="44.000000"  style="stroke:black; stroke-linecap:round; stroke-width:0.25;"/>
<line x1="384.700000" y1="44.000000" x2="384.700000" y2="44.000000"  style="stroke:black; stroke-linecap:round; stroke-width:0.25;"/>
<line x1="384.700000" y1="44.000000" x2="388.700000" y2="44.000000"  style="stroke:black; stroke-linecap:round; stroke-width:0.25;"/>
<line x1="384.700000" y1="52.000000" x2="388.700000" y2="52.000000"  style="stroke:black; stroke-linecap:round; stroke-width:0.25;"/>
<line x1="412.700000" y1="48.000000" x2="416.700000" y2="48.000000"  style="stroke:black; stroke-linecap:round; stroke-width:0.25;"/>
<line x1="416.700000" y1="48.000000" x2="424.700000" y2="48.000000"  style="stroke:black; stroke-linecap:round; stroke-width:0.25;"/>
<line x1="416.700000" y1="56.000000" x2="424.700000" y2="56.000000"  style="stroke:black; stroke-linecap:round; stroke-width:0.25;"/>
<line x1="416.700000" y1="72.000000" x2="416.700000" y2="56.000000"  style="stroke:black; stroke-linecap:round; stroke-width:0.25;"/>
<line x1="416.700000" y1="72.000000" x2="416.700000" y2="72.000000"  style="stroke:black; stroke-linecap:round; stroke-width:0.25;"/>
<line x1="424.700000" y1="48.000000" x2="428.700000" y2="48.000000"  style="stroke:black; stroke-linecap:round; stroke-width:0.25;"/>
<line x1="424.700000" y1="56.000000" x2="428.700000" y2="56.000000"  style="stroke:black; stroke-linecap:round; stroke-width:0.25;"/>
<line x1="452.700000" y1="52.000000" x2="456.700000" y2="52.000000"  style="stroke:black; stroke-linecap:round; stroke-width:0.25;"/>
<line x1="456.700000" y1="52.000000" x2="456.700000" y2="52.000000"  style="stroke:black; stroke-linecap:round; stroke-width:0.25;"/>
<line x1="456.700000" y1="52.000000" x2="460.700000" y2="52.000000"  style="stroke:black; stroke-linecap:round; stroke-width:0.25;"/>
<line x1="499.400000" y1="52.000000" x2="503.400000" y2="52.000000"  style="stroke:black; stroke-linecap:round; stroke-width:0.25;"/>
<line x1="503.400000" y1="24.000000" x2="511.400000" y2="24.000000"  style="stroke:black; stroke-linecap:round; stroke-width:0.25;"/>
<line x1="503.400000" y1="52.000000" x2="511.400000" y2="52.000000"  style="stroke:black; stroke-linecap:round; stroke-width:0.25;"/>
<line x1="511.400000" y1="24.000000" x2="511.400000" y2="44.000000"  style="stroke:black; stroke-linecap:round; stroke-width:0.25;"/>
<line x1="511.400000" y1="44.000000" x2="511.400000" y2="44.000000"  style="stroke:black; stroke-linecap:round; stroke-width:0.25;"/>
<line x1="511.400000" y1="44.000000" x2="515.400000" y2="44.000000"  style="stroke:black; stroke-linecap:round; stroke-width:0.25;"/>
<line x1="511.400000" y1="52.000000" x2="515.400000" y2="52.000000"  style="stroke:black; stroke-linecap:round; stroke-width:0.25;"/>
<line x1="539.400000" y1="48.000000" x2="543.400000" y2="48.000000"  style="stroke:black; stroke-linecap:round; stroke-width:0.25;"/>
<line x1="543.400000" y1="48.000000" x2="543.400000" y2="48.000000"  style="stroke:black; stroke-linecap:round; stroke-width:0.25;"/>
<line x1="543.400000" y1="48.000000" x2="547.400000" y2="48.000000"  style="stroke:black; stroke-linecap:round; stroke-width:0.25;"/>
<line x1="547.400000" y1="48.000000" x2="551.400000" y2="48.000000"  style="stroke:black; stroke-linecap:round; stroke-width:0.25;"/>
<line x1="551.400000" y1="48.000000" x2="561.400000" y2="48.000000"  style="stroke:black; stroke-linecap:round; stroke-width:0.25;"/>
</svg>
