<?xml version="1.0"?>
<svg xmlns="http://www.w3.org/2000/svg" xmlns:xlink="http://www.w3.org/1999/xlink" viewBox="0 0 349.100000 104.000000" width="174.550000mm" height="52.000000mm" version="1.1">
<a xlink:href="mixerVoiceV-0x6000531d0870.svg">
<rect x="0.000000" y="0.000000" width="348.100000" height="103.000000" rx="0" ry="0" style="stroke:#000000;fill:#FFFFFF;"/>
</a>
<text x="10.000000" y="7.000000" font-family="Verdana" font-size="7"></text>
<rect x="32.000000" y="40.000000" width="38.700000" height="24.000000" rx="0" ry="0" style="stroke:#000000;fill:#FFFFFF;"/>
<text x="51.350000" y="54.000000" font-family="Verdana" font-size="7" text-anchor="middle" fill="#000000">[2090] x</text>
<circle cx="34.000000" cy="42.000000" r="1"/>
<line x1="29.000000" y1="51.000000" x2="32.000000" y2="52.000000"  transform="rotate(0.000000,32.000000,52.000000)" style="stroke: black; stroke-width:0.25;"/>
<line x1="29.000000" y1="53.000000" x2="32.000000" y2="52.000000"  transform="rotate(0.000000,32.000000,52.000000)" style="stroke: black; stroke-width:0.25;"/>
<rect x="157.650000" y="24.000000" width="38.700000" height="24.000000" rx="0" ry="0" style="stroke:#000000;fill:#FFFFFF;"/>
<text x="177.000000" y="38.000000" font-family="Verdana" font-size="7" text-anchor="middle" fill="#000000">[2090] x</text>
<circle cx="159.650000" cy="26.000000" r="1"/>
<rect x="78.700000" y="56.000000" width="38.700000" height="24.000000" rx="0" ry="0" style="stroke:#000000;fill:#FFFFFF;"/>
<text x="98.050000" y="70.000000" font-family="Verdana" font-size="7" text-anchor="middle" fill="#000000">[2090] x</text>
<circle cx="80.700000" cy="58.000000" r="1"/>
<a xlink:href="envelop-0x60000339cea0.svg">
<rect x="125.400000" y="56.000000" width="38.700000" height="24.000000" rx="0" ry="0" style="stroke:#000000;fill:#FFFFFF;"/>
</a>
<a xlink:href="envelop-0x60000339cea0.svg">
<text x="144.750000" y="70.000000" font-family="Verdana" font-size="7" text-anchor="middle" fill="#000000">envelop</text>
</a>
<circle cx="127.400000" cy="58.000000" r="1"/>
<line x1="122.400000" y1="67.000000" x2="125.400000" y2="68.000000"  transform="rotate(0.000000,125.400000,68.000000)" style="stroke: black; stroke-width:0.25;"/>
<line x1="122.400000" y1="69.000000" x2="125.400000" y2="68.000000"  transform="rotate(0.000000,125.400000,68.000000)" style="stroke: black; stroke-width:0.25;"/>
<rect x="172.100000" y="56.000000" width="103.200000" height="24.000000" rx="0" ry="0" style="stroke:#000000;fill:#FFFFFF;"/>
<text x="223.700000" y="70.000000" font-family="Verdana" font-size="7" text-anchor="middle" fill="#000000">vbargraph(V, 0.0f, 1.0f)</text>
<circle cx="174.100000" cy="58.000000" r="1"/>
<line x1="169.100000" y1="67.000000" x2="172.100000" y2="68.000000"  transform="rotate(0.000000,172.100000,68.000000)" style="stroke: black; stroke-width:0.25;"/>
<line x1="169.100000" y1="69.000000" x2="172.100000" y2="68.000000"  transform="rotate(0.000000,172.100000,68.000000)" style="stroke: black; stroke-width:0.25;"/>
<rect x="291.300000" y="40.000000" width="25.800000" height="24.000000" rx="0" ry="0" style="stroke:#000000;fill:#FFFFFF;"/>
<text x="304.200000" y="54.000000" font-family="Verdana" font-size="7" text-anchor="middle" fill="#000000">attach</text>
<circle cx="293.300000" cy="42.000000" r="1"/>
<line x1="288.300000" y1="47.000000" x2="291.300000" y2="48.000000"  transform="rotate(0.000000,291.300000,48.000000)" style="stroke: black; stroke-width:0.25;"/>
<line x1="288.300000" y1="49.000000" x2="291.300000" y2="48.000000"  transform="rotate(0.000000,291.300000,48.000000)" style="stroke: black; stroke-width:0.25;"/>
<line x1="288.300000" y1="55.000000" x2="291.300000" y2="56.000000"  transform="rotate(0.000000,291.300000,56.000000)" style="stroke: black; stroke-width:0.25;"/>
<line x1="288.300000" y1="57.000000" x2="291.300000" y2="56.000000"  transform="rotate(0.000000,291.300000,56.000000)" style="stroke: black; stroke-width:0.25;"/>
<line x1="15.000000" y1="15.000000" x2="15.000000" y2="89.000000"  style="stroke: black; stroke-linecap:round; stroke-width:0.25; stroke-dasharray:3,3;"/>
<line x1="15.000000" y1="89.000000" x2="334.100000" y2="89.000000"  style="stroke: black; stroke-linecap:round; stroke-width:0.25; stroke-dasharray:3,3;"/>
<line x1="334.100000" y1="89.000000" x2="334.100000" y2="15.000000"  style="stroke: black; stroke-linecap:round; stroke-width:0.25; stroke-dasharray:3,3;"/>
<line x1="15.000000" y1="15.000000" x2="20.000000" y2="15.000000"  style="stroke: black; stroke-linecap:round; stroke-width:0.25; stroke-dasharray:3,3;"/>
<line x1="49.025000" y1="15.000000" x2="334.100000" y2="15.000000"  style="stroke: black; stroke-linecap:round; stroke-width:0.25; stroke-dasharray:3,3;"/>
<text x="20.000000" y="17.000000" font-family="Verdana" font-size="7">vumeter</text>
<line x1="336.100000" y1="51.000000" x2="339.100000" y2="52.000000"  transform="rotate(0.000000,339.100000,52.000000)" style="stroke: black; stroke-width:0.25;"/>
<line x1="336.100000" y1="53.000000" x2="339.100000" y2="52.000000"  transform="rotate(0.000000,339.100000,52.000000)" style="stroke: black; stroke-width:0.25;"/>
<line x1="10.000000" y1="52.000000" x2="20.000000" y2="52.000000"  style="stroke:black; stroke-linecap:round; stroke-width:0.25;"/>
<line x1="20.000000" y1="52.000000" x2="24.000000" y2="52.000000"  style="stroke:black; stroke-linecap:round; stroke-width:0.25;"/>
<line x1="24.000000" y1="52.000000" x2="28.000000" y2="52.000000"  style="stroke:black; stroke-linecap:round; stroke-width:0.25;"/>
<line x1="28.000000" y1="52.000000" x2="28.000000" y2="52.000000"  style="stroke:black; stroke-linecap:round; stroke-width:0.25;"/>
<line x1="28.000000" y1="52.000000" x2="32.000000" y2="52.000000"  style="stroke:black; stroke-linecap:round; stroke-width:0.25;"/>
<line x1="117.400000" y1="68.000000" x2="121.400000" y2="68.000000"  style="stroke:black; stroke-linecap:round; stroke-width:0.25;"/>
<line x1="121.400000" y1="68.000000" x2="121.400000" y2="68.000000"  style="stroke:black; stroke-linecap:round; stroke-width:0.25;"/>
<line x1="121.400000" y1="68.000000" x2="125.400000" y2="68.000000"  style="stroke:black; stroke-linecap:round; stroke-width:0.25;"/>
<line x1="164.100000" y1="68.000000" x2="168.100000" y2="68.000000"  style="stroke:black; stroke-linecap:round; stroke-width:0.25;"/>
<line x1="168.100000" y1="68.000000" x2="168.100000" y2="68.000000"  style="stroke:black; stroke-linecap:round; stroke-width:0.25;"/>
<line x1="168.100000" y1="68.000000" x2="172.100000" y2="68.000000"  style="stroke:black; stroke-linecap:round; stroke-width:0.25;"/>
<line x1="196.350000" y1="36.000000" x2="200.350000" y2="36.000000"  style="stroke:black; stroke-linecap:round; stroke-width:0.25;"/>
<line x1="200.350000" y1="36.000000" x2="279.300000" y2="36.000000"  style="stroke:black; stroke-linecap:round; stroke-width:0.25;"/>
<line x1="275.300000" y1="68.000000" x2="279.300000" y2="68.000000"  style="stroke:black; stroke-linecap:round; stroke-width:0.25;"/>
<line x1="279.300000" y1="36.000000" x2="287.300000" y2="36.000000"  style="stroke:black; stroke-linecap:round; stroke-width:0.25;"/>
<line x1="279.300000" y1="56.000000" x2="287.300000" y2="56.000000"  style="stroke:black; stroke-linecap:round; stroke-width:0.25;"/>
<line x1="279.300000" y1="68.000000" x2="279.300000" y2="56.000000"  style="stroke:black; stroke-linecap:round; stroke-width:0.25;"/>
<line x1="279.300000" y1="68.000000" x2="279.300000" y2="68.000000"  style="stroke:black; stroke-linecap:round; stroke-width:0.25;"/>
<line x1="287.300000" y1="36.000000" x2="287.300000" y2="48.000000"  style="stroke:black; stroke-linecap:round; stroke-width:0.25;"/>
<line x1="287.300000" y1="48.000000" x2="287.300000" y2="48.000000"  style="stroke:black; stroke-linecap:round; stroke-width:0.25;"/>
<line x1="287.300000" y1="48.000000" x2="291.300000" y2="48.000000"  style="stroke:black; stroke-linecap:round; stroke-width:0.25;"/>
<line x1="287.300000" y1="56.000000" x2="291.300000" y2="56.000000"  style="stroke:black; stroke-linecap:round; stroke-width:0.25;"/>
<line x1="317.100000" y1="52.000000" x2="321.100000" y2="52.000000"  style="stroke:black; stroke-linecap:round; stroke-width:0.25;"/>
<line x1="321.100000" y1="52.000000" x2="321.100000" y2="52.000000"  style="stroke:black; stroke-linecap:round; stroke-width:0.25;"/>
<line x1="321.100000" y1="52.000000" x2="325.100000" y2="52.000000"  style="stroke:black; stroke-linecap:round; stroke-width:0.25;"/>
<line x1="325.100000" y1="52.000000" x2="329.100000" y2="52.000000"  style="stroke:black; stroke-linecap:round; stroke-width:0.25;"/>
<line x1="329.100000" y1="52.000000" x2="339.100000" y2="52.000000"  style="stroke:black; stroke-linecap:round; stroke-width:0.25;"/>
</svg>
